<svg width="75" height="63" viewBox="0 0 75 63" fill="none" xmlns="http://www.w3.org/2000/svg">
<path d="M3.12209 58.6111L3.54654 53.9514L1 50.5625L5.66863 45.0556L3.54654 30.2292L14.5814 29.3819L14.157 27.6875L17.9767 25.5694L20.5233 27.6875L21.7965 27.2639L20.0988 23.875L22.2209 16.6736L27.7384 14.5555L29.0116 12.4375L26.4651 11.5903V9.47222L29.0116 8.20138L31.1337 5.23611L34.1047 6.08332L37.9244 1.4236L40.0465 1L40.471 1.84721L47.686 3.11806L49.3837 4.38887L48.9593 6.93056L54.9012 4.81251L60.4186 8.62498L59.9941 12.0139L60.843 14.1319L59.9941 18.7917L64.2383 26.4167L66.7848 28.5347L67.2093 31.5H70.6046L72.3024 31.9236L72.7267 34.0416L74 34.4653V36.1597L69.7558 39.5486L64.6627 38.2778L62.9651 39.9722L64.6627 42.5139L66.7848 52.2569L60.843 53.5278L58.7209 55.6458L57.872 61.1528L56.5988 62L54.9012 61.1528L49.3837 62L46.4128 58.6111L44.2907 61.5764L39.6221 59.0347L35.8024 61.1528L34.529 59.0347H32.8314L30.2848 56.9166L22.2209 54.375L12.0349 54.7986L10.3373 57.3403L3.12209 58.6111Z" fill="#E9F5FC" stroke="#007DC5"/>
</svg>
