<svg width="24" height="26" viewBox="0 0 24 26" fill="none" xmlns="http://www.w3.org/2000/svg">
<path d="M1.30871 5.31284C1.14065 4.7671 1.46294 4.19167 2.01608 4.04986L10.5758 1.85535C10.6478 1.83689 10.7176 1.81046 10.7837 1.77654L11.4954 1.41164C11.9516 1.17778 12.5107 1.32669 12.7901 1.75647L13.7422 3.22108C13.853 3.3915 14.013 3.5241 14.2011 3.60124L15.2419 4.02817C15.6503 4.19568 15.9005 4.61111 15.8577 5.05042L15.5801 7.89653C15.5466 8.23976 15.6924 8.57602 15.9657 8.78626L18.2382 10.5341C18.552 10.7754 18.6939 11.179 18.6001 11.5636L18.0786 13.7031C17.997 14.0379 18.0936 14.3913 18.3342 14.638L20.881 17.2499C21.0693 17.4429 21.3274 17.5517 21.597 17.5517H21.7894C22.3417 17.5517 22.7894 17.9994 22.7894 18.5517V20.9746C22.7894 21.141 22.6545 21.2758 22.4882 21.2758V21.2758C22.2599 21.2758 22.1146 21.5198 22.2234 21.7205L23.2002 23.5237C23.5612 24.19 23.0787 25 22.3209 25H20.3579C19.8918 25 19.4875 24.678 19.3833 24.2236L18.1255 18.7419C18.0213 18.2876 17.617 17.9655 17.1508 17.9655H15.0284C14.827 17.9655 14.6303 17.9047 14.464 17.791L12.834 16.6766C12.5082 16.4538 12.0818 16.4436 11.7456 16.6504L11.067 17.068C10.623 17.3412 10.0436 17.2274 9.73578 16.8066L9.1765 16.042C9.10617 15.9458 9.01923 15.863 8.91977 15.7974L3.72074 12.37C3.52701 12.2422 3.38373 12.0511 3.31544 11.8294L1.30871 5.31284Z" fill="#E9F5FC" stroke="#007DC5" stroke-linecap="round" stroke-linejoin="round"/>
</svg>
