<svg width="59" height="46" viewBox="0 0 59 46" fill="none" xmlns="http://www.w3.org/2000/svg">
<path d="M5.1726 41.8665C5.49202 42.188 5.98772 42.2545 6.38058 42.0285L11.2473 39.2293C11.5388 39.0617 11.8951 39.0517 12.1955 39.2029L14.0245 40.1235C14.5975 40.4118 15.29 40.0938 15.4446 39.4713L16.1868 36.4833C16.3202 35.9461 16.8646 35.6195 17.4013 35.7546L20.7902 36.6073C21.2462 36.7221 21.7206 36.5036 21.9298 36.0825L22.2076 35.5233C22.3468 35.2431 22.3468 34.9138 22.2076 34.6335L21.8778 33.9697C21.6933 33.5983 21.7572 33.1516 22.0384 32.8468L26.5428 27.9642C26.8854 27.5928 27.4513 27.5354 27.8615 27.8304L29.5463 29.0417C29.9013 29.2969 30.0493 29.753 29.9119 30.168L29.5571 31.2393C29.4013 31.7101 29.6139 32.224 30.0569 32.4469L31.2323 33.0385C31.6076 33.2273 31.8248 33.6306 31.776 34.0478L31.0345 40.3913C31.012 40.5838 31.0459 40.7787 31.1322 40.9523L32.6667 44.0415C32.9243 44.56 33.5671 44.7521 34.0669 44.46L46.0999 37.4274C46.3117 37.3036 46.5615 37.262 46.8019 37.3104L48.0912 37.57C48.3942 37.631 48.652 37.8287 48.7894 38.1055L49.0936 38.7178C49.2919 39.1171 49.7307 39.3369 50.1692 39.2566L54.0536 38.5457C54.113 38.5349 54.1733 38.5294 54.2336 38.5294H56.5348C56.7599 38.5294 56.8729 38.8011 56.7143 38.9608V38.9608C56.5557 39.1204 56.6688 39.3921 56.8938 39.3921H57.4405C57.7348 39.3921 57.9599 39.13 57.9155 38.8391L56.3093 28.3306C56.2937 28.2284 56.2623 28.1293 56.2164 28.0368L56.1329 27.8688C55.964 27.5287 55.617 27.3137 55.2373 27.3137H50.8419C50.4961 27.3137 50.1748 27.135 49.9924 26.8412L48.3475 24.1921C48.2159 23.9802 48.1682 23.7267 48.2139 23.4815L49.1616 18.3941C49.2902 17.7037 48.6857 17.0993 47.9952 17.2279L38.0105 19.0891C37.9089 19.108 37.805 19.1111 37.7025 19.0982L35.144 18.7763C34.7168 18.7225 34.3719 18.4013 34.288 17.9789L34.1055 17.0601C34.0397 16.729 33.8113 16.4534 33.4982 16.3273L32.1833 15.7979C31.9722 15.713 31.7385 15.7025 31.5207 15.7683L27.9536 16.8454C27.7083 16.9195 27.4439 16.8965 27.215 16.7813L25.2121 15.7734C25.0727 15.7032 24.9187 15.6666 24.7626 15.6666H16.8033C16.3341 15.6666 15.928 15.3404 15.8268 14.8822L15.3625 12.7792C15.2418 12.2328 15.593 11.6937 16.1416 11.5833L21.2897 10.5469C21.4738 10.5098 21.6646 10.5253 21.8402 10.5916L24.4438 11.5744C24.7866 11.7038 25.1728 11.6353 25.4502 11.3959L26.4372 10.5444C26.9756 10.0798 26.6471 9.19605 25.9359 9.19605V9.19605C25.6283 9.19605 25.3504 9.01236 25.2299 8.72934L24.4065 6.79563C24.2471 6.42129 24.3304 5.98769 24.6172 5.69905L25.8734 4.43463C26.1281 4.17827 26.2246 3.80443 26.126 3.45678L25.594 1.58253C25.4962 1.23785 25.1814 1 24.8231 1V1C24.6593 1 24.4994 1.05021 24.365 1.14388L19.3348 4.64905C19.1202 4.79858 18.8556 4.85809 18.5977 4.81482L17.1029 4.56405C16.6964 4.49585 16.2896 4.68412 16.0785 5.03821L15.2839 6.37119C15.1916 6.52604 15.1428 6.70297 15.1428 6.88325V8.9793C15.1428 9.37361 14.9111 9.73111 14.5512 9.89213L11.7046 11.1655C11.4387 11.2845 11.2378 11.5135 11.1546 11.7927L10.2129 14.9523C10.0866 15.3761 9.69688 15.6666 9.25461 15.6666H2.90551C2.52579 15.6666 2.17884 15.8817 2.00991 16.2218L1.28911 17.6729C1.1133 18.0268 1.16242 18.4511 1.41444 18.7555L2.94585 20.6052C3.0742 20.7602 3.24633 20.8729 3.43974 20.9285L5.41929 21.4977C5.84777 21.621 6.14291 22.0129 6.14291 22.4588V24.5267C6.14291 24.6579 6.16875 24.7879 6.21895 24.9092L8.08238 29.4106C8.20954 29.7178 8.17572 30.0681 7.99212 30.3453L4.85712 35.0784L2.73549 38.2816C2.47356 38.6771 2.52548 39.2021 2.8598 39.5386L5.1726 41.8665Z" fill="#E9F5FC" stroke="#007DC5" stroke-linecap="round" stroke-linejoin="round"/>
</svg>
