<svg width="42" height="37" viewBox="0 0 42 37" fill="none" xmlns="http://www.w3.org/2000/svg">
<path d="M14.5492 31.5092C14.1502 32.17 13.1848 32.1487 12.8152 31.4709L11.73 29.4805C11.612 29.264 11.7687 29 12.0154 29V29C12.1948 29 12.3403 28.8545 12.3403 28.675V26C12.3403 25.4477 11.8926 25 11.3403 25H11.0154C10.7469 25 10.4897 24.892 10.3017 24.7004L7.49657 21.842C7.25398 21.5949 7.15658 21.2397 7.23909 20.9034L7.82272 18.5243C7.91742 18.1383 7.77453 17.7329 7.45873 17.4915L4.9317 15.5603C4.65666 15.3501 4.50988 15.0126 4.5437 14.6681L4.85266 11.52C4.89588 11.0797 4.6446 10.6633 4.23488 10.4963L3.03336 10.0066C2.84535 9.92994 2.68512 9.7979 2.57397 9.62801L1.53805 8.04461C1.23939 7.58811 1.3617 6.97649 1.81294 6.66995L3.1907 5.73399C3.45814 5.55231 3.79691 5.51114 4.10008 5.62347L11.8653 8.50069C12.5184 8.7427 13.2127 8.25953 13.2127 7.56299V7.1424C13.2127 6.90687 13.1296 6.6789 12.978 6.49867L11.0154 4.16558C10.7603 3.86233 10.7083 3.43705 10.8829 3.0813L11.4154 1.99618C11.6768 1.46356 12.3417 1.27432 12.8444 1.58951L17.3065 4.38749C17.4809 4.49683 17.6172 4.65731 17.697 4.84703L18.6528 7.11965C18.7947 7.45688 19.1093 7.68974 19.4733 7.72683L22.6513 8.05063C23.0168 8.08787 23.3733 7.92167 23.5798 7.61777L26.4843 3.34287C26.8391 2.82069 27.583 2.75386 28.0251 3.20443L30.5737 5.80141C30.6307 5.85949 30.6804 5.92431 30.7217 5.99443L35.6623 14.3849C35.8093 14.6345 36.0571 14.808 36.3419 14.8608L40.2868 15.5917C40.5438 15.6393 40.7676 15.796 40.9002 16.0212V16.0212C41.3074 16.7127 40.6773 17.5519 39.8996 17.3538L39.0681 17.142C38.7229 17.0541 38.357 17.1564 38.1075 17.4107L36.0925 19.464C35.9625 19.5965 35.8719 19.7625 35.8309 19.9436L33.5821 29.8732C33.4353 30.5213 32.6822 30.8184 32.1325 30.445V30.445C31.5064 30.0197 30.6595 30.4682 30.6595 31.2251V35.2742C30.6595 36.0426 29.8289 36.5239 29.1623 36.1418L25.069 33.7957C24.4278 33.4282 24.393 32.5162 25.0043 32.1009L25.723 31.6127C26.0686 31.3779 26.2318 30.953 26.1322 30.5473L25.1109 26.3842C25.0346 26.073 24.8138 25.8173 24.5171 25.6964L23.1787 25.1509C22.9411 25.054 22.6753 25.0522 22.4364 25.1459L17.454 27.0985C17.2492 27.1787 17.0766 27.3243 16.9629 27.5126L14.5492 31.5092Z" fill="#E9F5FC" stroke="#007DC5" stroke-linecap="round" stroke-linejoin="round"/>
</svg>
