<svg width="312" height="166" viewBox="0 0 312 166" fill="none" xmlns="http://www.w3.org/2000/svg">
<path d="M45.6986 154.928C45.5234 155.801 46.4911 156.45 47.2327 155.957L50.2327 153.963C50.328 153.899 50.4335 153.853 50.5445 153.825L58.606 151.815C58.837 151.757 59.0811 151.784 59.2942 151.89L62.9867 153.732C63.1633 153.82 63.31 153.958 63.4081 154.129L68.0589 162.246C68.2694 162.614 68.6884 162.809 69.105 162.733L72.3018 162.153C72.7817 162.066 73.1288 161.646 73.1233 161.158L72.712 125.056C72.707 124.619 72.9868 124.229 73.4027 124.094L92.1103 118.01C92.3326 117.938 92.5731 117.946 92.7901 118.032L96.6208 119.56C96.7051 119.594 96.7845 119.639 96.8567 119.694L104.047 125.178L118.725 139.816C118.945 140.036 119.256 140.14 119.564 140.099L140.967 137.225C141.244 137.188 141.524 137.269 141.739 137.448L146.407 141.327C146.504 141.408 146.585 141.506 146.645 141.616L148.846 145.639C149.021 145.96 149.357 146.159 149.723 146.159H149.761C150.346 146.159 150.806 146.659 150.757 147.242L150.072 155.447C150.026 155.994 150.431 156.476 150.978 156.526L153.959 156.796C154.404 156.836 154.769 157.168 154.852 157.607L155.829 162.804C155.925 163.318 156.402 163.671 156.922 163.613L163.511 162.883C163.654 162.867 163.799 162.883 163.936 162.928L169.637 164.823C169.967 164.933 170.331 164.863 170.597 164.638L175.751 160.29L180.342 157.376C180.429 157.321 180.507 157.252 180.574 157.173L182.321 155.082C182.511 154.855 182.792 154.723 183.088 154.723H183.925C184.189 154.723 184.443 154.618 184.631 154.431L186.37 152.697C186.446 152.621 186.509 152.533 186.558 152.437L187.667 150.225C187.737 150.085 187.773 149.932 187.773 149.776V148.653C187.773 148.194 188.085 147.794 188.531 147.683L191.006 147.066C191.139 147.033 191.277 147.027 191.412 147.05L196.275 147.858C196.332 147.867 196.387 147.882 196.441 147.9L203.968 150.528C204.503 150.714 205.086 150.42 205.253 149.878L206.532 145.733C206.616 145.459 206.814 145.235 207.075 145.117L210.93 143.369C211.218 143.239 211.551 143.252 211.827 143.405L215.101 145.219C215.201 145.275 215.31 145.312 215.422 145.331L220.323 146.146C220.377 146.155 220.432 146.159 220.487 146.159H230.569C230.662 146.159 230.754 146.146 230.843 146.121L233.503 145.363C233.642 145.323 233.789 145.315 233.932 145.337L249.659 147.814C249.899 147.851 250.116 147.974 250.271 148.16L251.987 150.213C252.111 150.362 252.276 150.471 252.461 150.528L256.773 151.851C257.313 152.017 257.882 151.704 258.031 151.159L260.269 142.975C260.312 142.816 260.316 142.65 260.28 142.49L257.385 129.702C257.349 129.543 257.274 129.395 257.168 129.271L255.83 127.715C255.34 127.145 255.631 126.259 256.363 126.089L272.397 122.37C272.87 122.26 273.196 121.826 273.169 121.34L272.799 114.688C272.791 114.546 272.813 114.404 272.865 114.271L277.662 101.912C277.825 101.491 278.251 101.232 278.7 101.28L289.611 102.446C289.837 102.47 290.049 102.571 290.211 102.732L292.028 104.545C292.332 104.848 292.796 104.923 293.181 104.731L297.136 102.759C297.475 102.59 297.69 102.243 297.69 101.864V94.5003C297.69 94.3989 297.705 94.298 297.735 94.2013L299.635 88.1379C299.757 87.7498 300.102 87.474 300.507 87.4403L304.471 87.1109C304.796 87.0839 305.087 86.9004 305.251 86.6192L307.946 82.0121C307.978 81.9571 308.016 81.9054 308.058 81.8575L310.509 79.0635C310.8 78.7314 310.839 78.2474 310.605 77.873L307.149 72.3596C306.893 71.9502 306.38 71.7828 305.932 71.9618L304.958 72.3503C304.703 72.4517 304.502 72.6529 304.4 72.9069L304.034 73.8199C303.844 74.2926 303.33 74.5473 302.839 74.4113L296.26 72.5888C296.072 72.5368 295.904 72.4311 295.775 72.2847L293.126 69.2653C293.021 69.1458 292.947 69.0031 292.908 68.8489L292.656 67.8441C292.581 67.5454 292.373 67.2978 292.091 67.173L289.21 65.8961C288.879 65.7491 288.653 65.434 288.62 65.0727L288.286 61.4139C288.259 61.1185 288.103 60.8503 287.858 60.6818L282.72 57.1343C282.682 57.1075 282.641 57.0834 282.599 57.0623L281.588 56.5584C281.204 56.3667 280.74 56.4419 280.436 56.7452L279.52 57.6585C279.332 57.8454 279.078 57.9504 278.814 57.9504H277.757C277.348 57.9504 276.981 58.1989 276.828 58.5781L276.473 59.4636C276.321 59.8428 275.954 60.0914 275.545 60.0914H267.393C267.014 60.0914 266.668 59.8778 266.499 59.5395L265.213 56.9755C265.116 56.7806 265.116 56.551 265.213 56.356V56.356C265.37 56.0439 265.269 55.6641 264.978 55.4708L262.105 53.5606C261.807 53.3624 261.426 53.3387 261.105 53.4984L261.041 53.5303C260.861 53.6203 260.712 53.7626 260.614 53.9386L258.686 57.3997C258.641 57.481 258.584 57.5555 258.518 57.6211L257.841 58.2966C257.37 58.7664 256.58 58.6537 256.259 58.071L240.24 28.9864C240.184 28.8848 240.111 28.7938 240.023 28.7173L229.761 19.7112C229.545 19.5214 229.421 19.2475 229.421 18.9596V18.2357C229.421 17.9009 229.589 17.5883 229.867 17.403L231.32 16.4372C231.714 16.1749 231.871 15.6719 231.694 15.2322L231.555 14.8837C231.333 14.3302 230.679 14.0928 230.153 14.3749L225.713 16.7594C225.61 16.8149 225.497 16.8518 225.381 16.8684L222.943 17.2157C222.691 17.2516 222.463 17.3818 222.304 17.58L219.301 21.3234C219.18 21.4736 219.019 21.5858 218.836 21.6466L214.649 23.0387C214.24 23.1746 213.964 23.5569 213.964 23.9877V24.0643C213.964 24.7339 213.319 25.2143 212.677 25.0223L210.024 24.2286C209.796 24.1603 209.551 24.1758 209.333 24.2724L206.678 25.4491C206.19 25.6654 205.618 25.4603 205.379 24.9831L205.172 24.5709C205.031 24.2888 205.031 23.9566 205.172 23.6745L206.029 21.9644C206.16 21.7036 206.398 21.5129 206.681 21.4423L207.056 21.3489C207.562 21.2227 207.887 20.7284 207.801 20.2137L207.778 20.0787C207.659 19.3637 206.842 19.0094 206.238 19.4108L205.429 19.9485C205.131 20.1467 204.75 20.1704 204.429 20.0107L200.098 17.8509C199.917 17.7606 199.698 17.7961 199.555 17.9391V17.9391C199.438 18.0562 199.39 18.2264 199.431 18.3873L199.581 18.9874C199.69 19.4207 199.362 19.8407 198.915 19.8407V19.8407C198.482 19.8407 198.157 19.4442 198.242 19.0193L198.433 18.0678C198.481 17.8305 198.441 17.584 198.32 17.374L196.877 14.8547C196.82 14.7553 196.735 14.6751 196.632 14.624V14.624C196.283 14.45 195.866 14.6629 195.801 15.0474L195.624 16.1081C195.551 16.5443 195.2 16.8808 194.762 16.9355L189.396 17.6044C188.946 17.6606 188.514 17.4059 188.345 16.9843L187.983 16.0817C187.852 15.757 187.901 15.3879 188.111 15.1084L188.901 14.0586C189.006 13.9193 189.072 13.7549 189.094 13.5819L189.418 10.9973C189.463 10.6406 189.313 10.2874 189.025 10.0721L188.1 9.38038C187.89 9.22358 187.75 8.99081 187.711 8.73208L186.986 4.03356C186.94 3.7394 186.766 3.48075 186.511 3.32792L185.212 2.55074C184.933 2.38384 184.59 2.36291 184.293 2.49462L181.358 3.79581C181.071 3.92277 180.742 3.90814 180.468 3.7563L177.183 1.93623C177.087 1.88336 176.984 1.84645 176.877 1.82699L172.696 1.06887C172.451 1.02455 172.199 1.07279 171.988 1.20418L169.036 3.04459C168.933 3.10833 168.82 3.15307 168.702 3.17664L167.332 3.44995C166.965 3.52317 166.669 3.79532 166.566 4.1552L166.037 6.00343C165.937 6.35121 165.657 6.61805 165.305 6.70122L149.56 10.4204L144.054 11.5969C143.737 11.6647 143.472 11.882 143.344 12.18L142.52 14.0972C142.363 14.4644 142.001 14.7023 141.602 14.7023H138.171C138.036 14.7023 137.903 14.7297 137.778 14.7828L135.326 15.8311C135.094 15.9302 134.915 16.1238 134.836 16.3631V16.3631C134.672 16.8524 134.126 17.0978 133.651 16.8951L132.023 16.1993C131.713 16.0668 131.357 16.0994 131.076 16.2861L127.914 18.3889C127.75 18.4979 127.557 18.5561 127.36 18.5561H124.744C124.423 18.5561 124.126 18.7242 123.961 18.9989L123.455 19.8402C123.252 20.1775 122.747 20.1219 122.622 19.7487V19.7487C122.556 19.5504 122.364 19.4216 122.156 19.4346L116.214 19.8049C115.859 19.8271 115.518 19.6586 115.32 19.3626L115.205 19.1897C114.955 18.8155 114.485 18.6545 114.058 18.7965L112.456 19.3291C111.75 19.5639 111.538 20.4604 112.065 20.9861L112.154 21.0742C112.444 21.3636 112.528 21.8006 112.366 22.1771L112.035 22.9479C111.73 23.6578 112.311 24.4306 113.078 24.3351L114.42 24.1677C114.637 24.1407 114.846 24.2529 114.944 24.4477V24.4477C115.085 24.728 114.944 25.0677 114.646 25.1666L113.446 25.5656C112.979 25.721 112.694 26.1936 112.775 26.6794L112.936 27.6433C113.011 28.0918 113.38 28.4333 113.832 28.4744L117.477 28.8048C117.679 28.8231 117.87 28.9022 118.026 29.0317L119.388 30.1635C119.885 30.5767 119.865 31.3461 119.347 31.7333L118.912 32.0592C118.739 32.1886 118.529 32.2585 118.313 32.2585H112.189C111.924 32.2585 111.67 32.3635 111.483 32.5504L109.386 34.6418C109.033 34.9939 108.993 35.5523 109.293 35.9509L111.077 38.3232C111.248 38.5511 111.314 38.8413 111.258 39.1209L111.01 40.3566C110.951 40.6514 110.763 40.9039 110.497 41.0443L103.962 44.4942C103.75 44.6062 103.618 44.8263 103.618 45.0661V45.0661C103.618 45.3446 103.796 45.5919 104.06 45.6798L105.643 46.2059C105.984 46.3191 106.237 46.6062 106.308 46.9582L106.482 47.8235C106.566 48.2454 106.911 48.5659 107.338 48.6192L109.473 48.8853C109.834 48.9303 110.142 49.1677 110.278 49.5053L110.722 50.6142C110.844 50.918 111.107 51.143 111.426 51.2164L115.445 52.1414C116.013 52.2722 116.35 52.8589 116.175 53.415L114.529 58.6693C114.42 59.0181 114.129 59.2794 113.77 59.3509L108.271 60.4478C108.039 60.4941 107.798 60.4566 107.591 60.3419L104.92 58.8621C104.437 58.5949 103.83 58.7685 103.562 59.2501L102.186 61.719C102.01 62.0359 101.675 62.2323 101.313 62.2323H99.9923C99.5995 62.2323 99.2571 61.9652 99.1616 61.5842L98.9991 60.936C98.9461 60.7245 99.106 60.5195 99.3241 60.5195V60.5195H95.1939C94.8284 60.5195 94.492 60.3201 94.3166 59.9994L92.2352 56.1938C92.1012 55.9488 91.8708 55.7709 91.5998 55.7034L90.497 55.4284C90.3718 55.3972 90.2417 55.3905 90.114 55.4087L87.5429 55.775C87.3846 55.7976 87.234 55.8578 87.1037 55.9506L84.9235 57.5036C84.5539 57.7669 84.0532 57.7483 83.7042 57.4582L82.0613 56.0929C81.8441 55.9123 81.5607 55.8321 81.2811 55.8719L79.074 56.1864C78.8678 56.2157 78.7147 56.3923 78.7147 56.6005V56.6005C78.7147 56.8588 78.4827 57.0554 78.2279 57.0131L76.6182 56.7455C76.3154 56.6952 76.0062 56.7868 75.7796 56.9939L71.4489 60.9529C71.1659 61.2116 70.7598 61.2857 70.4037 61.1436L66.9958 59.7842C66.7987 59.7056 66.6317 59.5662 66.519 59.3864L64.7893 56.6264C64.6377 56.3845 64.3723 56.2376 64.0868 56.2376V56.2376C63.6288 56.2376 63.2576 56.6088 63.2576 57.0667V60.8319C63.2576 61.1568 63.0496 61.4451 62.7413 61.5476V61.5476C62.3248 61.6861 61.8785 61.441 61.7718 61.0153L61.1672 58.6034C61.1301 58.4555 61.0596 58.318 60.9612 58.2014L54.5406 50.5977C54.3506 50.3726 54.0711 50.2428 53.7765 50.2428H47.5214C47.163 50.2428 46.832 50.051 46.6537 49.74L45.5124 47.7482C45.3342 47.4372 45.0032 47.2454 44.6448 47.2454H44.4482C44.3933 47.2454 44.3384 47.2499 44.2842 47.2589L42.3285 47.584C41.9926 47.6398 41.7082 47.8628 41.5737 48.1757L40.8529 49.8531C40.6844 50.2453 40.1734 50.3438 39.8711 50.0424V50.0424C39.7283 49.9 39.524 49.8383 39.3263 49.8777L38.4755 50.0474C37.9343 50.1554 37.4079 49.8045 37.2994 49.2634L37.243 48.9822C37.1426 48.4814 36.6809 48.1368 36.1722 48.1829L32.8052 48.4881C32.5124 48.5147 32.246 48.6688 32.077 48.9096L29.5092 52.5681C29.3975 52.7272 29.2418 52.8504 29.0612 52.9224L23.3532 55.1994C23.0658 55.3141 22.8476 55.5553 22.7624 55.8528L22.1529 57.9801C22.0798 58.2352 21.9083 58.4508 21.6762 58.5794L18.2896 60.4558C18.2132 60.4981 18.1316 60.5302 18.0469 60.5514L17.4694 60.6954C16.9174 60.833 16.5913 61.4028 16.7522 61.9485L18.4226 67.6123C18.5331 67.987 18.4153 68.3917 18.1209 68.6486L15.9731 70.5228C15.5377 70.9027 14.8718 70.8356 14.521 70.3764L9.58909 63.9207C9.07545 63.2484 8.01095 63.4781 7.8202 64.3024L7.10066 67.4117C7.04311 67.6604 6.89264 67.8777 6.68006 68.019L4.78015 69.2822C4.55908 69.4292 4.40552 69.658 4.35332 69.9183L3.24107 75.4647C3.18148 75.7619 3.25986 76.07 3.45418 76.3026L4.65069 77.7344C5.0055 78.1591 4.94804 78.7911 4.52248 79.1447L2.95465 80.4477C2.80009 80.5762 2.68782 80.7482 2.63248 80.9414L1.26409 85.7178C1.11648 86.2331 1.40135 86.7731 1.90996 86.9422L4.34323 87.7511C4.66772 87.859 4.9146 88.1252 4.99775 88.4569L6.11942 92.9311C6.14119 93.0179 6.18013 93.0995 6.23393 93.1711L6.88153 94.0322C7.06083 94.2706 7.44044 94.1438 7.44044 93.8455V93.8455C7.44044 93.6577 7.60584 93.5128 7.79203 93.5376L13.4654 94.292C13.7312 94.3274 13.9716 94.4679 14.1328 94.6822L16.3745 97.663C16.4293 97.7359 16.4739 97.8159 16.507 97.9008L18.931 104.117C19.1866 104.773 18.703 105.48 17.9993 105.48H15.9492C15.4906 105.48 15.0907 105.792 14.9792 106.237L14.9651 106.294C14.8379 106.801 15.1233 107.321 15.6197 107.486L15.7795 107.539C15.9422 107.593 16.1161 107.604 16.2845 107.572L29.0121 105.115C29.2237 105.074 29.4164 104.966 29.5616 104.807L33.2107 100.804C33.4682 100.521 33.8643 100.41 34.2312 100.518L40.6878 102.412C40.8472 102.459 41.0158 102.465 41.1782 102.43L46.4791 101.297C46.7721 101.235 47.0776 101.307 47.3118 101.494L51.0845 104.503C51.1842 104.583 51.2678 104.681 51.3308 104.792L56.717 114.296C56.7831 114.412 56.872 114.515 56.9783 114.596L62.1561 118.568C62.3143 118.69 62.4326 118.856 62.4958 119.045L63.0369 120.664C63.1455 120.988 62.9038 121.324 62.5615 121.324V121.324C62.2517 121.324 62.0161 121.602 62.0671 121.908L62.1645 122.49C62.2786 123.173 61.681 123.763 60.9998 123.639L44.0213 120.561C43.699 120.502 43.3686 120.605 43.1367 120.836L41.6528 122.316C41.4653 122.503 41.2114 122.608 40.9467 122.608H38.1131C37.7347 122.608 37.3888 122.822 37.2192 123.16L36.4325 124.729C36.2911 125.011 36.2911 125.344 36.4325 125.626L37.6286 128.011C37.9619 128.676 37.4785 129.46 36.7346 129.46H30.1543C29.2471 129.46 28.8087 130.57 29.4714 131.19L34.2933 135.698C34.4223 135.819 34.517 135.972 34.5679 136.141L36.9327 144.002C37.0175 144.284 37.2223 144.514 37.4925 144.631L46.2003 148.407C46.6328 148.594 46.8756 149.059 46.7829 149.521L45.6986 154.928Z" fill="#E9F5FC" stroke="#007DC5" stroke-linecap="round" stroke-linejoin="round"/>
</svg>
