<svg width="224" height="233" viewBox="0 0 224 233" fill="none" xmlns="http://www.w3.org/2000/svg">
<path d="M98.5515 53.0141C99.1667 53.3905 99.1933 54.2747 98.6017 54.6873L94.6189 57.4657C94.4238 57.6018 94.2836 57.803 94.2235 58.0332L92.379 65.0961C92.2651 65.5321 92.457 65.9905 92.8475 66.2154L112.851 77.7334C112.992 77.8145 113.15 77.86 113.313 77.8661L124.148 78.2705C124.418 78.2806 124.672 78.3994 124.853 78.5999L128.619 82.7739C128.757 82.9271 128.939 83.0337 129.14 83.0793L145.695 86.8327C145.814 86.8597 145.937 86.8647 146.058 86.8472L151.321 86.0897C151.646 86.0429 151.928 85.839 152.074 85.5444L152.837 84.0075C153.009 83.6603 152.965 83.2448 152.724 82.9413L151.75 81.7148C151.541 81.4508 151.478 81.099 151.584 80.779L151.841 80.0037L152.999 74.169C153.072 73.7977 153.35 73.4998 153.715 73.3995L156.541 72.6227C157.178 72.4478 157.806 72.9268 157.806 73.5869V76.8378C157.806 77.1994 158.01 77.5302 158.333 77.6929V77.6929C158.914 77.9857 159.04 78.7604 158.582 79.2223L158.352 79.4536C158.031 79.7774 157.969 80.2776 158.203 80.6696L158.888 81.8207C159.014 82.033 159.215 82.191 159.451 82.2642L164.42 83.8049C164.554 83.8465 164.696 83.8594 164.835 83.8427L181.915 81.7938C182.287 81.7492 182.602 81.5007 182.733 81.1497L183.451 79.2187C183.643 78.703 183.382 78.1291 182.868 77.9345L181.036 77.2424C180.647 77.0954 180.39 76.7229 180.39 76.307V75.1025C180.39 74.6918 180.641 74.3229 181.023 74.1722L190.066 70.6066C190.148 70.5741 190.226 70.5307 190.297 70.4777L201.429 62.1689C201.601 62.0399 201.811 61.9702 202.027 61.9702H207.06C207.175 61.9702 207.29 61.9503 207.398 61.9112L212.204 60.1816C212.745 59.9871 213.338 60.2867 213.501 60.8372L214.33 63.6197C214.423 63.9316 214.661 64.1787 214.97 64.2823L214.992 64.2899C215.438 64.4397 215.719 64.8799 215.668 65.3474L215.427 67.5283C215.372 68.0317 215.702 68.4971 216.195 68.6119L220.647 69.647C220.793 69.6812 220.93 69.748 221.048 69.8425L222.628 71.1161C222.863 71.306 223 71.5922 223 71.8947V72.8881C223 73.296 222.752 73.663 222.374 73.8156L221.441 74.1914C221.091 74.3327 220.85 74.6597 220.819 75.0364L220.514 78.7167C220.474 79.2098 220.078 79.5989 219.585 79.632L214.371 79.9823C214.163 79.9962 213.965 80.0745 213.804 80.2063L207.568 85.3124C207.355 85.4867 207.223 85.741 207.204 86.0155L206.829 91.3049C206.815 91.4954 206.748 91.678 206.633 91.8312L203.054 96.6403C203 96.7125 202.957 96.7916 202.924 96.8754L199.322 106.152C199.206 106.449 198.956 106.673 198.649 106.756L193.443 108.155C193.027 108.267 192.73 108.632 192.705 109.062L192.365 114.872C192.339 115.325 192.01 115.704 191.565 115.794L190.949 115.918C190.507 116.007 190.19 116.394 190.19 116.845V116.845C190.19 116.901 190.195 116.957 190.205 117.013L190.916 120.951C190.991 121.371 190.792 121.792 190.42 122.001L188.351 123.159C187.775 123.481 187.051 123.168 186.892 122.527L183.933 110.603C183.722 109.75 182.592 109.565 182.12 110.306L180.106 113.462C179.797 113.946 179.145 114.071 178.679 113.735L176.818 112.396C176.647 112.273 176.519 112.098 176.453 111.898L175.038 107.622C174.923 107.272 175.009 106.887 175.262 106.62L182.821 98.6574C183.393 98.0546 183.023 97.0573 182.196 96.974L167.537 95.4969C167.307 95.4737 167.091 95.371 166.928 95.2064L165.224 93.4898C165.11 93.3744 165.025 93.2329 164.978 93.0774L163.77 89.1237C163.651 88.7333 163.093 88.7482 162.995 89.1444V89.1444C162.951 89.3238 162.79 89.4498 162.605 89.4498H161.484C161.066 89.4498 160.692 89.1901 160.546 88.7985L160.168 87.7812C159.908 87.0819 158.949 87.0052 158.581 87.6543V87.6543C158.242 88.2517 157.38 88.2465 157.048 87.6451L156.565 86.7694C156.182 86.0746 155.181 86.0812 154.807 86.7809L152.912 90.3288C152.773 90.5882 152.756 90.8956 152.864 91.169L153.331 92.3464C153.464 92.6794 153.764 92.9162 154.118 92.9673L155.785 93.2073C156.225 93.2706 156.571 93.6166 156.633 94.0567L156.792 95.1793C156.878 95.7814 156.41 96.3197 155.802 96.3197H154.509C154.173 96.3197 153.86 96.488 153.675 96.7679L151.888 99.4681C151.616 99.8799 151.685 100.429 152.05 100.761L155.347 103.751C155.556 103.94 155.676 104.209 155.676 104.491V109.1C155.676 109.167 155.682 109.234 155.696 109.299L158.955 125.308C159.029 125.673 158.82 126.035 158.468 126.153L158.142 126.263C157.954 126.326 157.749 126.231 157.675 126.046L157.517 125.647C157.398 125.348 156.954 125.433 156.954 125.754V125.754C156.954 125.871 156.885 125.976 156.778 126.022L155.074 126.758C154.5 127.006 153.842 126.672 153.703 126.063L153.337 124.464C153.134 123.58 151.919 123.472 151.564 124.306V124.306C151.468 124.532 151.288 124.711 151.062 124.804L144.788 127.408C144.414 127.563 144.171 127.927 144.171 128.331V133.286C144.171 133.536 144.077 133.777 143.908 133.961L139.17 139.134C139.095 139.215 139.008 139.283 138.912 139.336L129.015 144.738C128.894 144.804 128.787 144.895 128.703 145.004L122.943 152.467C122.892 152.533 122.832 152.593 122.766 152.645L109.818 162.746C109.711 162.829 109.623 162.933 109.557 163.051L107.719 166.385C107.595 166.61 107.389 166.779 107.144 166.856L101.095 168.761C100.847 168.839 100.639 169.011 100.515 169.239L98.4353 173.082C98.2606 173.405 97.923 173.606 97.5559 173.606H94.4076C94.0833 173.606 93.7792 173.763 93.5917 174.028L91.9549 176.337C91.8286 176.515 91.7641 176.73 91.7713 176.948L92.1797 189.299C92.184 189.427 92.2127 189.553 92.2643 189.67L93.7353 193.005C93.8353 193.231 93.8476 193.487 93.7698 193.722L90.1129 204.777C90.075 204.891 90.0582 205.012 90.0632 205.132L90.4387 214.213C90.4622 214.781 90.008 215.255 89.4395 215.255H87.2234C86.8666 215.255 86.5368 215.445 86.358 215.754L83.7986 220.175C83.7105 220.327 83.6641 220.5 83.6641 220.676V222.231C83.6641 222.676 83.3691 223.068 82.9407 223.192L78.2958 224.529C77.9301 224.634 77.6559 224.938 77.5883 225.312L76.9093 229.076C76.8687 229.301 76.752 229.505 76.5789 229.655L74.1453 231.757C73.9637 231.914 73.7317 232 73.4917 232H71.79C71.4849 232 71.1965 231.861 71.0068 231.622L66.298 225.691C66.2291 225.604 66.1751 225.506 66.1382 225.402L59.432 206.396C59.3951 206.291 59.3411 206.194 59.2721 206.107L54.4109 199.984C54.3136 199.861 54.2465 199.718 54.2148 199.564L52.1652 189.651C52.1435 189.546 52.1051 189.445 52.0514 189.352L46.2777 179.379C46.2048 179.253 46.1602 179.113 46.1472 178.968L45.8235 175.38C45.7863 174.968 45.3212 174.747 44.9778 174.977V174.977C44.7049 175.161 44.3329 175.062 44.1867 174.767L43.1842 172.747L40.6576 166.806C40.6377 166.759 40.6214 166.711 40.6089 166.662L36.8465 151.919C36.811 151.78 36.8058 151.635 36.8313 151.494L37.5541 147.489C37.6014 147.226 37.3999 146.985 37.1334 146.985V146.985C36.934 146.985 36.7611 146.847 36.7166 146.653L35.5637 141.619C35.5312 141.477 35.5301 141.33 35.5603 141.187L36.7476 135.604C36.7773 135.464 36.7768 135.32 36.746 135.181L34.3345 124.245C34.272 123.962 34.3357 123.666 34.5089 123.433L35.7394 121.779C36.2032 121.156 35.8104 120.265 35.0375 120.187L33.385 120.021C32.894 119.971 32.4404 120.288 32.3167 120.765L30.0993 129.331C30.021 129.633 29.8062 129.881 29.5183 130.002L25.0475 131.879C24.925 131.931 24.7934 131.957 24.6604 131.957H19.2886C19.0365 131.957 18.7937 131.862 18.6088 131.691L8.48168 122.302C8.32707 122.159 8.22171 121.97 8.18066 121.764L8.041 121.06C7.92292 120.465 8.35728 119.903 8.96269 119.867L14.68 119.528C14.9257 119.514 15.1573 119.409 15.3307 119.234L17.4137 117.135C17.5472 117.001 17.6397 116.831 17.6805 116.646L17.949 115.429C18.141 114.558 17.1833 113.89 16.4326 114.372L14.0298 115.912C13.8687 116.016 13.6814 116.071 13.49 116.071H8.26903C7.98207 116.071 7.70894 115.947 7.51911 115.732L1.69156 109.126C1.31469 108.699 1.37034 108.043 1.81387 107.686L2.85579 106.846C3.03357 106.703 3.25505 106.624 3.4834 106.624H6.08182C6.58649 106.624 7.01208 106.248 7.07421 105.748L7.26001 104.25C7.33121 103.676 7.87294 103.282 8.44089 103.391L15.9522 104.833C16.2012 104.88 16.4591 104.832 16.6736 104.697L19.0704 103.187C19.4667 102.938 19.9832 102.997 20.3131 103.329L20.9963 104.017C21.2742 104.297 21.6906 104.388 22.0596 104.248L23.9311 103.541C24.4459 103.347 24.7067 102.773 24.5148 102.257L21.1551 93.2291C21.0723 93.0068 20.9133 92.8211 20.7063 92.7053L17.7531 91.052C17.4113 90.8607 17.2127 90.4874 17.245 90.097L17.5423 86.5018C17.5851 85.9838 17.2239 85.5193 16.7113 85.4332L13.5423 84.901C12.978 84.8062 12.6082 84.2582 12.7314 83.6995L13.3108 81.072C13.3412 80.9338 13.4007 80.8037 13.4851 80.6903L19.0549 73.207C19.42 72.7164 20.1361 72.6656 20.5669 73.0997L22.3364 74.8827C22.5817 75.1299 22.938 75.2317 23.2769 75.1513L29.5471 73.6647C29.8198 73.6 30.0529 73.4238 30.1895 73.1791L33.6933 66.9024C33.77 66.765 33.8781 66.6476 34.0088 66.5598L37.4438 64.2522C37.576 64.1634 37.685 64.0443 37.7619 63.9049L41.7566 56.6594C41.8539 56.4829 42.0023 56.3399 42.1823 56.2492L44.1233 55.2713C44.3419 55.1612 44.5125 54.9747 44.6028 54.7472L45.2804 53.0399C45.3033 52.9824 45.3314 52.9272 45.3644 52.8749L48.1157 48.5183C48.2336 48.3317 48.4099 48.1893 48.6172 48.1133L51.1425 47.188C51.9096 46.9069 52.0342 45.8745 51.3561 45.4189L51.3269 45.3993C50.8425 45.0739 50.7385 44.4045 51.1013 43.9475L51.5801 43.3444C51.8952 42.9476 51.8636 42.3778 51.5067 42.0182L50.974 41.4813C50.6526 41.1575 50.5911 40.6573 50.8245 40.2653L51.575 39.0049C51.6611 38.8602 51.7824 38.7397 51.9275 38.6544L56.0806 36.2131C56.5059 35.9632 56.6853 35.4405 56.5033 34.9821L56.1889 34.19C56.0525 33.8465 55.7379 33.6062 55.3707 33.5651L52.8843 33.2868C52.4395 33.237 52.082 32.8977 52.009 32.4562L51.8132 31.2728C51.7483 30.8802 51.4568 30.5635 51.0709 30.4663L48.6077 29.8458C48.4059 29.795 48.2251 29.6825 48.0903 29.524L46.292 27.41C45.9743 27.0365 45.9743 26.4877 46.292 26.1142L47.7021 24.4565C48.0387 24.0607 48.0162 23.473 47.6502 23.1042L46.8661 22.3141C46.4791 21.9242 46.4791 21.2952 46.8661 20.9053L47.2644 20.5038C47.7608 20.0037 47.598 19.1608 46.9511 18.8814L46.2208 18.566C45.7284 18.3533 45.515 17.7711 45.7535 17.2906V17.2906C45.9823 16.8295 45.7958 16.2702 45.3361 16.0386L45.2621 16.0013C44.807 15.772 44.5971 15.2371 44.7748 14.7595L45.5393 12.7052C45.664 12.3701 45.9582 12.127 46.3109 12.0678L48.0856 11.7698C48.2253 11.7463 48.3684 11.7528 48.5054 11.7888L57.8087 14.2344C57.9973 14.2839 58.1964 14.2773 58.3813 14.2152L64.2639 12.2393C64.4122 12.1895 64.57 12.1751 64.7248 12.1974L66.7965 12.4957C67.204 12.5543 67.6058 12.3573 67.8089 11.9991L69.0708 9.77391C69.1405 9.65094 69.2355 9.54416 69.3496 9.4606L73.7627 6.22646C73.8298 6.17728 73.9028 6.13667 73.9799 6.10556L86.1553 1.19812C86.4627 1.07421 86.8116 1.11069 87.0868 1.29553L91.4173 4.20464C91.6369 4.35214 91.789 4.58063 91.8405 4.84009L92.0232 5.7606C92.1078 6.18703 92.5594 6.43133 92.9626 6.2688V6.2688C93.5047 6.05031 94.0573 6.55918 93.8842 7.11738L92.2693 12.3247C92.2149 12.5001 92.1133 12.6572 91.9755 12.7786L89.0617 15.3478C88.8785 15.5093 88.7608 15.7323 88.7307 15.9747L88.4504 18.2342C88.3925 18.7008 88.0174 19.064 87.5492 19.1069L84.6396 19.3735C84.0976 19.4231 83.6949 19.8971 83.7333 20.44L84.05 24.9072C84.0749 25.2587 84.2829 25.5711 84.5976 25.7296L87.1296 27.0052C87.3662 27.1245 87.5458 27.3327 87.6291 27.5843L88.5623 30.4057C88.692 30.7975 88.5675 31.2288 88.2491 31.4913L85.0622 34.1187C84.5653 34.5283 83.8165 34.3684 83.5303 33.7916L82.9395 32.6009C82.6553 32.0281 81.9139 31.8655 81.4161 32.2668L80.8803 32.6987C80.5152 32.9931 80.4037 33.5016 80.6121 33.9218L82.6842 38.0976C82.7677 38.2658 82.8021 38.4541 82.7836 38.6409L82.4118 42.387C82.3948 42.5585 82.4224 42.7316 82.4919 42.8893L83.8271 45.9165C83.987 46.279 84.3459 46.513 84.7421 46.513H87.6435C87.8276 46.513 88.0082 46.5638 88.1653 46.6599L98.5515 53.0141Z" fill="#E9F5FC" stroke="#007DC5" stroke-linecap="round" stroke-linejoin="round"/>
</svg>
