<svg width="132" height="88" viewBox="0 0 132 88" fill="none" xmlns="http://www.w3.org/2000/svg">
<path d="M115.249 57.0303H113.334C112.933 57.0303 112.57 56.7902 112.414 56.4205L111.645 54.6068C111.487 54.2336 111.57 53.8017 111.855 53.5135L113.121 52.2325C113.375 51.9764 113.471 51.604 113.373 51.2575L112.837 49.3614C112.739 49.0162 112.424 48.7778 112.066 48.7778V48.7778C111.901 48.7778 111.741 48.8284 111.606 48.9227L106.565 52.4519C106.35 52.6025 106.084 52.6624 105.825 52.6188L104.329 52.3665C103.921 52.2978 103.513 52.4869 103.302 52.8423L102.504 54.1883C102.412 54.3427 102.364 54.519 102.364 54.6986V56.8178C102.364 57.2114 102.133 57.5685 101.774 57.7299L98.9166 59.014C98.651 59.1334 98.4507 59.3626 98.3678 59.6417L97.4221 62.8299C97.2962 63.2543 96.9061 63.5455 96.4634 63.5455H90.0997C89.7193 63.5455 89.3719 63.7613 89.2033 64.1023L88.4768 65.5716C88.3023 65.9246 88.3512 66.347 88.6015 66.6508L90.1408 68.5187C90.269 68.6743 90.4413 68.7875 90.635 68.8435L92.6218 69.4175C93.0497 69.5412 93.3443 69.9329 93.3443 70.3782V72.4688C93.3443 72.5995 93.3699 72.7289 93.4197 72.8497L95.2901 77.3894C95.4163 77.6956 95.3827 78.0443 95.2004 78.3208L92.0557 83.0909L89.8372 86.456C89.6192 86.7867 89.2266 86.9575 88.8361 86.8917L82.5813 85.8376C82.0999 85.7564 81.7475 85.3396 81.7475 84.8515V81.9485C81.7475 81.8421 81.7645 81.7364 81.7978 81.6354L82.3454 79.9742C82.4966 79.5153 82.2982 79.014 81.8739 78.7829L77.3149 76.3005C77.1253 76.1972 76.9074 76.1581 76.6937 76.189L74.4532 76.5127C74.175 76.5529 73.8926 76.4741 73.6754 76.2956L67.2624 71.0264C67.1841 70.962 67.0964 70.91 67.0025 70.872L63.0403 69.2693C62.9142 69.2183 62.7998 69.1421 62.7042 69.0454L59.0639 65.364C59.0105 65.3101 58.9512 65.2624 58.8871 65.2218L52.374 61.1053C52.203 60.9972 52.0688 60.8398 51.9891 60.6539L46.6212 48.127C46.5598 47.9837 46.4657 47.8567 46.3464 47.7562L44.657 46.3325C44.2582 45.9964 43.6682 46.0232 43.3015 46.394L42.2 47.5079C41.9537 47.7569 41.5952 47.859 41.2548 47.777L33.4747 45.9038C33.0609 45.8041 32.7555 45.4535 32.7136 45.0299L32.3902 41.7593C32.369 41.5455 32.4983 41.3453 32.702 41.2766V41.2766C33.0739 41.1513 33.1295 40.6484 32.794 40.4448L31.9405 39.9269C31.6639 39.7591 31.495 39.459 31.495 39.1355V37.1818C31.495 36.6295 31.0473 36.1818 30.495 36.1818H27.1647C26.9114 36.1818 26.6675 36.0857 26.4823 35.9128L21.8971 31.6327C21.5015 31.2635 20.8841 31.2758 20.5036 31.6606L20.0942 32.0746C19.9661 32.2042 19.8049 32.2963 19.6282 32.341L19.0715 32.4818C18.6228 32.5952 18.4048 33.1043 18.6325 33.5073V33.5073C18.9841 34.1295 18.2717 34.8075 17.6529 34.45V34.45C17.2634 34.2249 16.7595 34.4113 16.6187 34.8385L16.2184 36.0529C16.104 36.4002 15.8091 36.6573 15.4495 36.7234L11.667 37.4189C11.4353 37.4615 11.226 37.5846 11.0761 37.7664L9.44065 39.7511C9.26224 39.9676 9.18298 40.2491 9.22222 40.5269L9.93208 45.5524C9.9856 45.9313 9.81821 46.3075 9.50092 46.5214L9.06699 46.8139C8.85156 46.9592 8.58807 47.0149 8.3323 46.9692L2.24436 45.8828C1.77155 45.7984 1.4255 45.3898 1.4201 44.9096L1.00822 8.24691C1.00333 7.81118 1.28115 7.42244 1.69499 7.28598L20.409 1.11483C20.6339 1.04069 20.8777 1.04872 21.0972 1.1375L24.9246 2.68568C25.0094 2.71996 25.089 2.76571 25.1614 2.82165L32.354 8.38383L47.0357 23.2308C47.2568 23.4543 47.5701 23.5609 47.8816 23.5185L69.2815 20.6053C69.5615 20.5672 69.8446 20.6494 70.0608 20.8315L74.7299 24.7663C74.826 24.8473 74.906 24.9457 74.9656 25.0563L77.1691 29.1414C77.3436 29.4649 77.6816 29.6666 78.0492 29.6666H78.0846C78.6693 29.6666 79.1293 30.1661 79.0813 30.7488L78.3928 39.1037C78.3478 39.6504 78.7516 40.1314 79.2979 40.1816L82.2823 40.456C82.7281 40.4969 83.0923 40.8292 83.174 41.2694L84.1548 46.5594C84.2505 47.0752 84.7284 47.4294 85.2497 47.3708L91.835 46.6309C91.9803 46.6146 92.1275 46.6303 92.2661 46.677L97.9602 48.5964C98.2939 48.7089 98.6622 48.6376 98.9297 48.4086L104.082 44L108.675 41.0441C108.762 40.9881 108.84 40.919 108.906 40.8391L110.654 38.7176C110.844 38.4871 111.127 38.3535 111.426 38.3535H112.255C112.522 38.3535 112.778 38.2466 112.966 38.0567L114.526 36.4787C114.714 36.2887 114.97 36.1818 115.237 36.1818H116.273C116.687 36.1818 117.055 36.4475 117.184 36.8408V36.8408C117.312 37.2268 117.182 37.6511 116.86 37.8997L110.347 42.9362C110.188 43.0593 110.095 43.2491 110.095 43.4504V43.4504C110.095 43.7677 110.324 44.0386 110.637 44.0914L112.293 44.3704C112.537 44.4116 112.757 44.5419 112.911 44.7361L114.196 46.3605C114.322 46.5204 114.495 46.6378 114.69 46.697L117.836 47.6516C118.321 47.7985 118.838 47.5603 119.042 47.097L119.78 45.4184C120.072 44.7534 120.953 44.612 121.439 45.1522L124.529 48.5896C124.64 48.7131 124.78 48.807 124.937 48.8629L130.003 50.6712C130.799 50.9553 130.906 52.0378 130.18 52.4714L122.788 56.8887C122.633 56.9814 122.455 57.0303 122.275 57.0303H115.249Z" fill="#E9F5FC" stroke="#007DC5" stroke-linecap="round" stroke-linejoin="round"/>
</svg>
