<svg width="85" height="43" viewBox="0 0 85 43" fill="none" xmlns="http://www.w3.org/2000/svg">
<path d="M14.1491 31.8602C13.9044 31.8602 13.6682 31.9499 13.4852 32.1124L11.2465 34.0999C10.9661 34.3489 10.57 34.42 10.2205 34.2843L7.66011 33.2898C7.48029 33.22 7.28411 33.2036 7.09521 33.2428L1.98618 34.3011C1.44266 34.4137 1.09484 34.9474 1.21128 35.4901L1.68178 37.6829C1.78069 38.1438 2.18809 38.4731 2.65953 38.4731H10.5462C10.7063 38.4731 10.864 38.5115 11.0061 38.5851L12.9791 39.6069C13.2127 39.7279 13.4845 39.7519 13.7357 39.6739L17.2547 38.5804C17.4779 38.5111 17.7183 38.5221 17.9342 38.6115L19.2312 39.1489C19.5416 39.2774 19.7666 39.5533 19.8303 39.8832L20.0169 40.8497C20.0986 41.2732 20.4427 41.5965 20.8704 41.6519L23.3999 41.9794C23.5053 41.993 23.6123 41.9898 23.7167 41.9698L34.374 39.9256C34.7817 39.8474 35.0987 39.5254 35.1705 39.1164L35.8105 35.4711C35.8681 35.143 36.0852 34.8651 36.3897 34.73L41.6153 32.4104C41.7766 32.3388 41.9161 32.2258 42.0196 32.0829L42.8066 30.9961C43.0125 30.7116 43.3526 30.5561 43.7025 30.5863L52.8794 31.3784C53.1796 31.4043 53.4755 31.2934 53.6848 31.0766L57.8248 26.7887C57.9625 26.646 58.1395 26.5476 58.3333 26.5058L67.8867 24.4443C68.1219 24.3935 68.3309 24.2597 68.4754 24.0673L71.0889 20.5868C71.1822 20.4625 71.3032 20.3617 71.4422 20.2924L82.3308 14.8623C82.5809 14.7376 82.7673 14.514 82.8451 14.2456L83.7291 11.1934C83.8799 10.6729 83.5886 10.127 83.0722 9.96241L78.7535 8.58601C78.5665 8.5264 78.4011 8.41305 78.278 8.26009L76.5785 6.14773C76.424 5.9557 76.204 5.82749 75.9607 5.78771L60.39 3.24122C60.2414 3.21692 60.0892 3.22649 59.9448 3.26922L57.3236 4.0449C57.2314 4.07216 57.1359 4.08601 57.0398 4.08601H47.055C46.998 4.08601 46.9411 4.08113 46.8849 4.07143L42.0364 3.23448C41.9207 3.21452 41.8095 3.17434 41.7078 3.1158L38.4833 1.26034C38.1998 1.09722 37.8545 1.08303 37.5586 1.22234L33.7539 3.01357C33.4961 3.13492 33.3024 3.36045 33.2212 3.63355L31.9483 7.91859C31.7844 8.47024 31.1899 8.77008 30.6489 8.57395L23.2167 5.8797C23.1613 5.8596 23.1042 5.84444 23.046 5.83441L18.2379 5.00436C18.098 4.98021 17.9546 4.98612 17.8171 5.02172L15.3699 5.65545C14.9287 5.76969 14.6206 6.16778 14.6206 6.62352V7.82505C14.6206 7.9756 14.5866 8.1242 14.5211 8.25978L13.9785 9.38386C13.6847 9.99247 14.1281 10.6989 14.8039 10.6989V10.6989C15.202 10.6989 15.5546 10.9558 15.6765 11.3348L15.69 11.3768C15.8148 11.7646 15.6859 12.1891 15.3665 12.442L8.91374 17.553C8.75448 17.6791 8.66162 17.8712 8.66162 18.0743V18.0743C8.66162 18.398 8.8946 18.6746 9.21353 18.7297L10.832 19.0091C11.0787 19.0517 11.3004 19.1852 11.4533 19.3832L12.725 21.0296C12.8506 21.1923 13.0233 21.3123 13.2197 21.3733L16.314 22.3348C16.803 22.4867 17.3278 22.2447 17.5297 21.7741L18.252 20.091C18.5419 19.4152 19.4375 19.273 19.9225 19.8256L22.965 23.292C23.0755 23.4179 23.2158 23.514 23.3732 23.5716L28.4242 25.418C29.2102 25.7053 29.3167 26.7733 28.6029 27.2101L21.2455 31.7131C21.0883 31.8093 20.9077 31.8602 20.7235 31.8602H14.1491Z" fill="#E9F5FC" stroke="#007DC5" stroke-linecap="round" stroke-linejoin="round"/>
</svg>
