<svg width="243" height="120" viewBox="0 0 243 120" fill="none" xmlns="http://www.w3.org/2000/svg">
<path d="M1.30089 38.8938C1.11264 39.1657 1.07104 39.5132 1.18976 39.8219L3.08377 44.7469C3.12952 44.8659 3.19758 44.975 3.2843 45.0684L8.53723 50.7261C8.67629 50.8759 8.8579 50.9795 9.05761 51.0229L18.2322 53.0176C18.5019 53.0762 18.7353 53.2437 18.8773 53.4803L19.8931 55.1736C19.9287 55.2329 19.958 55.2957 19.9806 55.361L23.7746 66.3229C23.806 66.4138 23.8242 66.5086 23.8286 66.6046L24.2449 75.7645C24.25 75.8769 24.2361 75.9894 24.2038 76.0972L23.2455 79.2921C23.0878 79.8176 23.383 80.3719 23.9069 80.5345L35.2627 84.0591C35.3853 84.0972 35.5142 84.1113 35.6422 84.1006L40.3629 83.7072C40.5288 83.6934 40.6955 83.7212 40.848 83.7881L58.0026 91.3204C58.1775 91.3972 58.3267 91.5224 58.4326 91.6814L64.236 100.387C64.2779 100.45 64.3266 100.508 64.3814 100.56L71.7479 107.518C71.9412 107.7 72.1992 107.798 72.4649 107.79L100.21 106.949C100.38 106.944 100.549 106.983 100.7 107.061L112.875 113.359C112.93 113.387 112.987 113.41 113.045 113.428L131.156 118.904C131.362 118.966 131.582 118.961 131.785 118.888L152.839 111.307C152.948 111.268 153.063 111.248 153.178 111.248H162.784C162.866 111.248 162.948 111.238 163.027 111.218L171.284 109.154C171.439 109.115 171.582 109.04 171.702 108.935L185.072 97.1835C185.449 96.8528 185.522 96.2946 185.244 95.8777L182.598 91.9076C182.403 91.6162 182.376 91.2442 182.525 90.9273L185.582 84.4304C185.677 84.2272 185.839 84.0622 186.039 83.9617L187.928 83.0172C188.174 82.8944 188.459 82.878 188.717 82.9719L197.249 86.0745C197.582 86.1957 197.954 86.1314 198.228 85.9057L207.529 78.2207C207.635 78.1329 207.759 78.068 207.891 78.0302L213.458 76.4395C213.629 76.3907 213.783 76.2974 213.906 76.1691L222.932 66.7323C223.1 66.5567 223.326 66.4483 223.568 66.4272L241.255 64.889C242.026 64.8219 242.432 63.9416 241.982 63.3116L241.005 61.9433C240.901 61.7988 240.839 61.6294 240.822 61.4526L240.448 57.329C240.427 57.1064 240.333 56.897 240.18 56.7342L234.075 50.2468C233.754 49.9062 233.241 49.8333 232.838 50.0712L224.35 55.0875C224.158 55.2011 223.933 55.2471 223.712 55.2182L214.81 54.0569C214.41 54.0047 214.08 53.7175 213.974 53.3284L212.902 49.398C212.873 49.2892 212.862 49.1761 212.87 49.0637L213.702 37.41C213.713 37.2556 213.76 37.1058 213.839 36.9725L218.225 29.5487C218.657 28.8171 218.038 27.9139 217.199 28.0537L214.448 28.5123C214.253 28.5447 214.053 28.5188 213.873 28.4378L206.032 24.9088C205.724 24.7699 205.366 24.7965 205.081 24.9796L193.6 32.3611C193.521 32.4121 193.435 32.4516 193.344 32.4784L177.786 37.1045C177.63 37.1509 177.464 37.1585 177.305 37.1265L171.089 35.8832L161.386 33.7737C161.254 33.7448 161.128 33.6892 161.017 33.6102L155.216 29.4661C155.177 29.4376 155.135 29.4121 155.091 29.3898L137.594 20.4269C137.533 20.3954 137.468 20.3704 137.402 20.3522L133.125 19.1857C132.893 19.1224 132.646 19.1449 132.429 19.249L122.365 24.0803C122.131 24.1926 121.862 24.2096 121.616 24.1274L116.975 22.5804C116.881 22.5489 116.791 22.5034 116.71 22.4454L111.13 18.4592C110.921 18.3097 110.777 18.0853 110.729 17.8326L109.185 9.72275C109.121 9.38634 108.889 9.10611 108.57 8.98005L88.9801 1.22462C88.6317 1.0867 88.2355 1.15512 87.9535 1.40188L78.5138 9.66266C78.2444 9.89843 78.1215 10.2602 78.1917 10.6113L79.7397 18.3524C79.7794 18.5508 79.758 18.7565 79.6783 18.9424L78.6312 21.3861C78.5515 21.572 78.5301 21.7777 78.5698 21.9761L79.2204 25.2292C79.3088 25.6714 79.0903 26.118 78.687 26.3197L77.8588 26.7339C77.7199 26.8033 77.5668 26.8394 77.4115 26.8394H55.6705C55.4053 26.8394 55.1509 26.7341 54.9633 26.5465L50.7656 22.3482C50.6063 22.1889 50.3978 22.088 50.1739 22.062L32.2245 19.9746C32.079 19.9577 31.9316 19.9729 31.7927 20.0192L23.0633 22.9293C22.9952 22.952 22.9298 22.982 22.8681 23.0187L5.06232 33.6187C4.93916 33.692 4.8332 33.7909 4.75162 33.9088L1.30089 38.8938Z" fill="#E9F5FC" stroke="#007DC5" stroke-linecap="round" stroke-linejoin="round"/>
</svg>
