<?xml version="1.0" encoding="utf-8"?>
<!-- Generator: Adobe Illustrator 21.1.0, SVG Export Plug-In . SVG Version: 6.00 Build 0)  -->
<svg version="1.1" id="Слой_1" xmlns="http://www.w3.org/2000/svg" xmlns:xlink="http://www.w3.org/1999/xlink" x="0px" y="0px"
	 viewBox="0 0 1291 905" style="enable-background:new 0 0 1291 905;" xml:space="preserve">
<style type="text/css">
	.st0{fill:#FFFFFF;}
</style>
<path class="st0" d="M463.6,726c0.6,0.4,0.6,1.3,0.1,1.7l-4,2.8c-0.2,0.1-0.3,0.3-0.4,0.6l-1.8,7.1c-0.1,0.4,0.1,0.9,0.5,1.1
	l20,11.5c0.1,0.1,0.3,0.1,0.5,0.1l10.8,0.4c0.3,0,0.5,0.1,0.7,0.3l3.8,4.2c0.1,0.2,0.3,0.3,0.5,0.3l16.6,3.8c0.1,0,0.2,0,0.4,0
	l5.3-0.8c0.3,0,0.6-0.3,0.8-0.5l0.8-1.5c0.2-0.3,0.1-0.8-0.1-1.1l-1-1.2c-0.2-0.3-0.3-0.6-0.2-0.9l0.3-0.8l1.2-5.8
	c0.1-0.4,0.4-0.7,0.7-0.8l2.8-0.8c0.6-0.2,1.3,0.3,1.3,1v3.3c0,0.4,0.2,0.7,0.5,0.9l0,0c0.6,0.3,0.7,1.1,0.2,1.5l-0.2,0.2
	c-0.3,0.3-0.4,0.8-0.1,1.2l0.7,1.2c0.1,0.2,0.3,0.4,0.6,0.4l5,1.5c0.1,0,0.3,0.1,0.4,0l17.1-2c0.4,0,0.7-0.3,0.8-0.6l0.7-1.9
	c0.2-0.5-0.1-1.1-0.6-1.3l-1.8-0.7c-0.4-0.1-0.6-0.5-0.6-0.9v-1.2c0-0.4,0.3-0.8,0.6-0.9l9-3.6c0.1,0,0.2-0.1,0.2-0.1l11.1-8.3
	c0.2-0.1,0.4-0.2,0.6-0.2h5c0.1,0,0.2,0,0.3-0.1l4.8-1.7c0.5-0.2,1.1,0.1,1.3,0.7l0.8,2.8c0.1,0.3,0.3,0.6,0.6,0.7l0,0
	c0.4,0.2,0.7,0.6,0.7,1.1l-0.2,2.2c-0.1,0.5,0.3,1,0.8,1.1l4.5,1c0.1,0,0.3,0.1,0.4,0.2l1.6,1.3c0.2,0.2,0.4,0.5,0.4,0.8v1
	c0,0.4-0.2,0.8-0.6,0.9l-0.9,0.4c-0.3,0.1-0.6,0.5-0.6,0.8l-0.3,3.7c0,0.5-0.4,0.9-0.9,0.9l-5.2,0.3c-0.2,0-0.4,0.1-0.6,0.2
	l-6.2,5.1c-0.2,0.2-0.3,0.4-0.4,0.7l-0.4,5.3c0,0.2-0.1,0.4-0.2,0.5l-3.6,4.8c-0.1,0.1-0.1,0.2-0.1,0.2l-3.6,9.3
	c-0.1,0.3-0.4,0.5-0.7,0.6l-5.2,1.4c-0.4,0.1-0.7,0.5-0.7,0.9l-0.3,5.8c0,0.5-0.4,0.8-0.8,0.9l-0.6,0.1c-0.4,0.1-0.8,0.5-0.8,0.9
	l0,0c0,0.1,0,0.1,0,0.2l0.7,3.9c0.1,0.4-0.1,0.8-0.5,1l-2.1,1.2c-0.6,0.3-1.3,0-1.5-0.6l-3-11.9c-0.2-0.9-1.3-1-1.8-0.3l-2,3.2
	c-0.3,0.5-1,0.6-1.4,0.3l-1.9-1.3c-0.2-0.1-0.3-0.3-0.4-0.5l-1.4-4.3c-0.1-0.4,0-0.7,0.2-1l7.6-8c0.6-0.6,0.2-1.6-0.6-1.7l-14.7-1.5
	c-0.2,0-0.4-0.1-0.6-0.3l-1.7-1.7c-0.1-0.1-0.2-0.3-0.2-0.4l-1.2-4c-0.1-0.4-0.7-0.4-0.8,0l0,0c0,0.2-0.2,0.3-0.4,0.3h-1.1
	c-0.4,0-0.8-0.3-0.9-0.7l-0.4-1c-0.3-0.7-1.2-0.8-1.6-0.1l0,0c-0.3,0.6-1.2,0.6-1.5,0l-0.5-0.9c-0.4-0.7-1.4-0.7-1.8,0l-1.9,3.5
	c-0.1,0.3-0.2,0.6,0,0.8l0.5,1.2c0.1,0.3,0.4,0.6,0.8,0.6l1.7,0.2c0.4,0.1,0.8,0.4,0.8,0.9l0.2,1.1c0.1,0.6-0.4,1.1-1,1.1h-1.3
	c-0.3,0-0.6,0.2-0.8,0.4l-1.8,2.7c-0.3,0.4-0.2,1,0.2,1.3l3.3,3c0.2,0.2,0.3,0.5,0.3,0.7v4.6c0,0.1,0,0.1,0,0.2l3.3,16
	c0.1,0.4-0.1,0.7-0.5,0.8l-0.3,0.1c-0.2,0.1-0.4,0-0.5-0.2l-0.2-0.4c-0.1-0.3-0.6-0.2-0.6,0.1l0,0c0,0.1-0.1,0.2-0.2,0.3l-1.7,0.7
	c-0.6,0.2-1.2-0.1-1.4-0.7l-0.4-1.6c-0.2-0.9-1.4-1-1.8-0.2l0,0c-0.1,0.2-0.3,0.4-0.5,0.5l-6.3,2.6c-0.4,0.2-0.6,0.5-0.6,0.9v5
	c0,0.3-0.1,0.5-0.3,0.7l-4.7,5.2c-0.1,0.1-0.2,0.1-0.3,0.2l-9.9,5.4c-0.1,0.1-0.2,0.2-0.3,0.3l-5.8,7.5c-0.1,0.1-0.1,0.1-0.2,0.2
	l-12.9,10.1c-0.1,0.1-0.2,0.2-0.3,0.3l-1.8,3.3c-0.1,0.2-0.3,0.4-0.6,0.5l-6,1.9c-0.2,0.1-0.5,0.3-0.6,0.5l-2.1,3.8
	c-0.2,0.3-0.5,0.5-0.9,0.5h-3.1c-0.3,0-0.6,0.2-0.8,0.4l-1.6,2.3c-0.1,0.2-0.2,0.4-0.2,0.6l0.4,12.4c0,0.1,0,0.3,0.1,0.4l1.5,3.3
	c0.1,0.2,0.1,0.5,0,0.7l-3.7,11.1c0,0.1-0.1,0.2-0.1,0.4l0.4,9.1c0,0.6-0.4,1-1,1h-2.2c-0.4,0-0.7,0.2-0.9,0.5l-2.6,4.4
	c-0.1,0.2-0.1,0.3-0.1,0.5v1.6c0,0.4-0.3,0.8-0.7,1l-4.6,1.3c-0.4,0.1-0.6,0.4-0.7,0.8l-0.7,3.8c0,0.2-0.2,0.4-0.3,0.6l-2.4,2.1
	c-0.2,0.2-0.4,0.2-0.7,0.2h-1.7c-0.3,0-0.6-0.1-0.8-0.4l-4.7-5.9c-0.1-0.1-0.1-0.2-0.2-0.3l-6.7-19c0-0.1-0.1-0.2-0.2-0.3l-4.9-6.1
	c-0.1-0.1-0.2-0.3-0.2-0.4l-2-9.9c0-0.1-0.1-0.2-0.1-0.3l-5.8-10c-0.1-0.1-0.1-0.3-0.1-0.4l-0.3-3.6c0-0.4-0.5-0.6-0.8-0.4l0,0
	c-0.3,0.2-0.6,0.1-0.8-0.2l-1-2l-2.5-5.9c0,0,0-0.1,0-0.1l-3.8-14.7c0-0.1,0-0.3,0-0.4l0.7-4c0-0.3-0.2-0.5-0.4-0.5l0,0
	c-0.2,0-0.4-0.1-0.4-0.3l-1.2-5c0-0.1,0-0.3,0-0.4l1.2-5.6c0-0.1,0-0.3,0-0.4l-2.4-10.9c-0.1-0.3,0-0.6,0.2-0.8l1.2-1.7
	c0.5-0.6,0.1-1.5-0.7-1.6l-1.7-0.2c-0.5,0-0.9,0.3-1.1,0.7l-2.2,8.6c-0.1,0.3-0.3,0.5-0.6,0.7l-4.5,1.9c-0.1,0.1-0.3,0.1-0.4,0.1
	h-5.4c-0.3,0-0.5-0.1-0.7-0.3l-10.1-9.4c-0.2-0.1-0.3-0.3-0.3-0.5l-0.1-0.7c-0.1-0.6,0.3-1.2,0.9-1.2l5.7-0.3c0.2,0,0.5-0.1,0.7-0.3
	l2.1-2.1c0.1-0.1,0.2-0.3,0.3-0.5l0.3-1.2c0.2-0.9-0.8-1.5-1.5-1.1l-2.4,1.5c-0.2,0.1-0.3,0.2-0.5,0.2h-5.2c-0.3,0-0.6-0.1-0.8-0.3
	l-5.8-6.6c-0.4-0.4-0.3-1.1,0.1-1.4l1-0.8c0.2-0.1,0.4-0.2,0.6-0.2h2.6c0.5,0,0.9-0.4,1-0.9l0.2-1.5c0.1-0.6,0.6-1,1.2-0.9l7.5,1.4
	c0.2,0,0.5,0,0.7-0.1l2.4-1.5c0.4-0.2,0.9-0.2,1.2,0.1l0.7,0.7c0.3,0.3,0.7,0.4,1.1,0.2l1.9-0.7c0.5-0.2,0.8-0.8,0.6-1.3l-3.4-9
	c-0.1-0.2-0.2-0.4-0.4-0.5l-3-1.7c-0.3-0.2-0.5-0.6-0.5-1l0.3-3.6c0-0.5-0.3-1-0.8-1.1l-3.2-0.5c-0.6-0.1-0.9-0.6-0.8-1.2l0.6-2.6
	c0-0.1,0.1-0.3,0.2-0.4l5.6-7.5c0.4-0.5,1.1-0.5,1.5-0.1l1.8,1.8c0.2,0.2,0.6,0.3,0.9,0.3l6.3-1.5c0.3-0.1,0.5-0.2,0.6-0.5l3.5-6.3
	c0.1-0.1,0.2-0.3,0.3-0.3l3.4-2.3c0.1-0.1,0.2-0.2,0.3-0.3l4-7.2c0.1-0.2,0.2-0.3,0.4-0.4l1.9-1c0.2-0.1,0.4-0.3,0.5-0.5l0.7-1.7
	c0-0.1,0.1-0.1,0.1-0.2l2.8-4.4c0.1-0.2,0.3-0.3,0.5-0.4l2.5-0.9c0.8-0.3,0.9-1.3,0.2-1.8l0,0c-0.5-0.3-0.6-1-0.2-1.5l0.5-0.6
	c0.3-0.4,0.3-1-0.1-1.3l-0.5-0.5c-0.3-0.3-0.4-0.8-0.1-1.2l0.8-1.3c0.1-0.1,0.2-0.3,0.4-0.4l4.2-2.4c0.4-0.3,0.6-0.8,0.4-1.2
	l-0.3-0.8c-0.1-0.3-0.5-0.6-0.8-0.6l-2.5-0.3c-0.4,0-0.8-0.4-0.9-0.8l-0.2-1.2c-0.1-0.4-0.4-0.7-0.7-0.8l-2.5-0.6
	c-0.2-0.1-0.4-0.2-0.5-0.3l-1.8-2.1c-0.3-0.4-0.3-0.9,0-1.3l1.4-1.7c0.3-0.4,0.3-1-0.1-1.4l-0.8-0.8c-0.4-0.4-0.4-1,0-1.4l0.4-0.4
	c0.5-0.5,0.3-1.3-0.3-1.6l-0.7-0.3c-0.5-0.2-0.7-0.8-0.5-1.3l0,0c0.2-0.5,0-1-0.4-1.3l-0.1,0c-0.5-0.2-0.7-0.8-0.5-1.2l0.8-2.1
	c0.1-0.3,0.4-0.6,0.8-0.6l1.8-0.3c0.1,0,0.3,0,0.4,0l9.3,2.4c0.2,0,0.4,0,0.6,0l5.9-2c0.1,0,0.3-0.1,0.5,0l2.1,0.3
	c0.4,0.1,0.8-0.1,1-0.5l1.3-2.2c0.1-0.1,0.2-0.2,0.3-0.3l4.4-3.2c0.1,0,0.1-0.1,0.2-0.1l12.2-4.9c0.3-0.1,0.7-0.1,0.9,0.1l4.3,2.9
	c0.2,0.1,0.4,0.4,0.4,0.6l0.2,0.9c0.1,0.4,0.5,0.7,0.9,0.5l0,0c0.5-0.2,1.1,0.3,0.9,0.8l-1.6,5.2c-0.1,0.2-0.2,0.3-0.3,0.5l-2.9,2.6
	c-0.2,0.2-0.3,0.4-0.3,0.6l-0.3,2.3c-0.1,0.5-0.4,0.8-0.9,0.9l-2.9,0.3c-0.5,0-0.9,0.5-0.9,1.1l0.3,4.5c0,0.4,0.2,0.7,0.5,0.8
	l2.5,1.3c0.2,0.1,0.4,0.3,0.5,0.6l0.9,2.8c0.1,0.4,0,0.8-0.3,1.1l-3.2,2.6c-0.5,0.4-1.2,0.2-1.5-0.3l-0.6-1.2
	c-0.3-0.6-1-0.7-1.5-0.3l-0.5,0.4c-0.4,0.3-0.5,0.8-0.3,1.2l2.1,4.2c0.1,0.2,0.1,0.4,0.1,0.5l-0.4,3.7c0,0.2,0,0.3,0.1,0.5l1.3,3
	c0.2,0.4,0.5,0.6,0.9,0.6h2.9c0.2,0,0.4,0.1,0.5,0.1L463.6,726z"/>
<path class="st0" d="M515.3,539.9c-0.2,0.3-0.2,0.6-0.1,0.9l1.9,4.9c0,0.1,0.1,0.2,0.2,0.3l5.3,5.7c0.1,0.1,0.3,0.3,0.5,0.3l9.2,2
	c0.3,0.1,0.5,0.2,0.6,0.5l1,1.7c0,0.1,0.1,0.1,0.1,0.2l3.8,11c0,0.1,0,0.2,0.1,0.3l0.4,9.2c0,0.1,0,0.2,0,0.3l-1,3.2
	c-0.2,0.5,0.1,1.1,0.7,1.2l11.4,3.5c0.1,0,0.3,0.1,0.4,0l4.7-0.4c0.2,0,0.3,0,0.5,0.1l17.2,7.5c0.2,0.1,0.3,0.2,0.4,0.4l5.8,8.7
	c0,0.1,0.1,0.1,0.1,0.2l7.4,7c0.2,0.2,0.5,0.3,0.7,0.3l27.7-0.8c0.2,0,0.3,0,0.5,0.1l12.2,6.3c0.1,0,0.1,0.1,0.2,0.1l18.1,5.5
	c0.2,0.1,0.4,0.1,0.6,0l21.1-7.6c0.1,0,0.2-0.1,0.3-0.1h9.6c0.1,0,0.2,0,0.2,0l8.3-2.1c0.2,0,0.3-0.1,0.4-0.2l13.4-11.8
	c0.4-0.3,0.4-0.9,0.2-1.3l-2.6-4c-0.2-0.3-0.2-0.7-0.1-1l3.1-6.5c0.1-0.2,0.3-0.4,0.5-0.5l1.9-0.9c0.2-0.1,0.5-0.1,0.8,0l8.5,3.1
	c0.3,0.1,0.7,0.1,1-0.2l9.3-7.7c0.1-0.1,0.2-0.2,0.4-0.2l5.6-1.6c0.2,0,0.3-0.1,0.4-0.3l9-9.4c0.2-0.2,0.4-0.3,0.6-0.3l17.7-1.5
	c0.8-0.1,1.2-0.9,0.7-1.6l-1-1.4c-0.1-0.1-0.2-0.3-0.2-0.5l-0.4-4.1c0-0.2-0.1-0.4-0.3-0.6l-6.1-6.5c-0.3-0.3-0.8-0.4-1.2-0.2
	l-8.5,5c-0.2,0.1-0.4,0.2-0.6,0.1l-8.9-1.2c-0.4-0.1-0.7-0.3-0.8-0.7l-1.1-3.9c0-0.1,0-0.2,0-0.3l0.8-11.7c0-0.2,0.1-0.3,0.1-0.4
	l4.4-7.4c0.4-0.7-0.2-1.6-1-1.5l-2.8,0.5c-0.2,0-0.4,0-0.6-0.1l-7.8-3.5c-0.3-0.1-0.7-0.1-1,0.1l-11.5,7.4c-0.1,0.1-0.2,0.1-0.3,0.1
	l-15.6,4.6c-0.2,0-0.3,0.1-0.5,0l-6.2-1.2l-9.7-2.1c-0.1,0-0.3-0.1-0.4-0.2l-5.8-4.1c0,0-0.1-0.1-0.1-0.1l-17.5-9
	c-0.1,0-0.1-0.1-0.2-0.1l-4.3-1.2c-0.2-0.1-0.5,0-0.7,0.1l-10.1,4.8c-0.2,0.1-0.5,0.1-0.7,0l-4.6-1.5c-0.1,0-0.2-0.1-0.3-0.1l-5.6-4
	c-0.2-0.1-0.4-0.4-0.4-0.6l-1.5-8.1c-0.1-0.3-0.3-0.6-0.6-0.7l-19.6-7.8c-0.3-0.1-0.7-0.1-1,0.2l-9.4,8.3c-0.3,0.2-0.4,0.6-0.3,0.9
	l1.5,7.7c0,0.2,0,0.4-0.1,0.6l-1,2.4c-0.1,0.2-0.1,0.4-0.1,0.6l0.6,3.3c0.1,0.4-0.1,0.9-0.5,1.1l-0.8,0.4c-0.1,0.1-0.3,0.1-0.4,0.1
	h-21.7c-0.3,0-0.5-0.1-0.7-0.3l-4.2-4.2c-0.2-0.2-0.4-0.3-0.6-0.3l-18-2.1c-0.1,0-0.3,0-0.4,0l-8.7,2.9c-0.1,0-0.1,0.1-0.2,0.1
	l-17.8,10.6c-0.1,0.1-0.2,0.2-0.3,0.3L515.3,539.9z"/>
<path class="st0" d="M27.1,507.6l0.4-4.7l-2.5-3.4l4.7-5.5l-2.1-14.8l11-0.8l-0.4-1.7l3.8-2.1l2.5,2.1l1.3-0.4l-1.7-3.4l2.1-7.2
	l5.5-2.1l1.3-2.1l-2.5-0.8v-2.1l2.5-1.3l2.1-3l3,0.8l3.8-4.7L64,450l0.4,0.8l7.2,1.3l1.7,1.3l-0.4,2.5l5.9-2.1l5.5,3.8L84,461
	l0.8,2.1l-0.8,4.7l4.2,7.6l2.5,2.1l0.4,3h3.4l1.7,0.4l0.4,2.1l1.3,0.4v1.7l-4.2,3.4l-5.1-1.3L87,489l1.7,2.5l2.1,9.7l-5.9,1.3
	l-2.1,2.1l-0.8,5.5l-1.3,0.8l-1.7-0.8l-5.5,0.8l-3-3.4l-2.1,3l-4.7-2.5l-3.8,2.1l-1.3-2.1h-1.7l-2.5-2.1l-8.1-2.5L36,503.8l-1.7,2.5
	L27.1,507.6z"/>
<path class="st0" d="M179.3,626.3c-0.2-0.5,0.2-1.1,0.7-1.3l8.6-2.2c0.1,0,0.1,0,0.2-0.1l0.7-0.4c0.5-0.2,1-0.1,1.3,0.3l1,1.5
	c0.1,0.2,0.3,0.3,0.5,0.4l1,0.4c0.4,0.2,0.7,0.6,0.6,1l-0.3,2.8c0,0.3,0.1,0.7,0.4,0.9l2.3,1.7c0.3,0.2,0.5,0.6,0.4,1l-0.5,2.1
	c-0.1,0.3,0,0.7,0.3,0.9l2.5,2.6c0.2,0.2,0.4,0.3,0.7,0.3h0.2c0.6,0,1,0.4,1,1v2.4c0,0.2-0.1,0.3-0.3,0.3l0,0
	c-0.2,0-0.4,0.2-0.3,0.4l1,1.8c0.4,0.7-0.1,1.5-0.9,1.5h-2c-0.5,0-0.9-0.3-1-0.8l-1.3-5.5c-0.1-0.5-0.5-0.8-1-0.8H193
	c-0.2,0-0.4-0.1-0.6-0.2l-1.6-1.1c-0.3-0.2-0.8-0.2-1.1,0l-0.7,0.4c-0.4,0.3-1,0.2-1.3-0.3l-0.6-0.8c-0.1-0.1-0.2-0.2-0.3-0.2
	l-5.2-3.4c-0.2-0.1-0.3-0.3-0.4-0.5L179.3,626.3z"/>
<path class="st0" d="M203.5,645.5c-0.4,0.7-1.4,0.6-1.7,0l-1.1-2c-0.1-0.2,0-0.5,0.3-0.5l0,0c0.2,0,0.3-0.1,0.3-0.3V640
	c0-0.6-0.4-1-1-1H200c-0.3,0-0.5-0.1-0.7-0.3l-2.8-2.9c-0.2-0.2-0.3-0.6-0.3-0.9l0.6-2.4c0.1-0.4,0-0.8-0.4-1l-2.5-1.9
	c-0.3-0.2-0.4-0.5-0.4-0.9l0.3-3.1c0-0.4-0.2-0.9-0.6-1L192,624c-0.2-0.1-0.3-0.2-0.5-0.4l-1-1.6c-0.3-0.5-0.2-1.1,0.3-1.4l1.4-0.9
	c0.3-0.2,0.6-0.2,0.9-0.1l7.8,2.9c0.7,0.2,1.3-0.2,1.3-0.9v-0.4c0-0.2-0.1-0.5-0.2-0.6l-2-2.3c-0.3-0.3-0.3-0.7-0.1-1.1l0.5-1.1
	c0.3-0.5,0.9-0.7,1.4-0.4l4.5,2.8c0.2,0.1,0.3,0.3,0.4,0.5l1,2.3c0.1,0.3,0.5,0.6,0.8,0.6l3.2,0.3c0.4,0,0.7-0.1,0.9-0.4l2.9-4.3
	c0.4-0.5,1.1-0.6,1.5-0.1l2.5,2.6c0.1,0.1,0.1,0.1,0.1,0.2l4.9,8.4c0.1,0.2,0.4,0.4,0.7,0.5l3.9,0.7c0.3,0,0.5,0.2,0.6,0.4l0,0
	c0.4,0.7-0.2,1.5-1,1.3l-0.8-0.2c-0.3-0.1-0.7,0-1,0.3l-2,2.1c-0.1,0.1-0.2,0.3-0.3,0.5l-2.2,9.9c-0.1,0.6-0.9,0.9-1.4,0.6l0,0
	c-0.6-0.4-1.5,0-1.5,0.8v4c0,0.8-0.8,1.3-1.5,0.9l-4.1-2.3c-0.6-0.4-0.7-1.3-0.1-1.7l0.7-0.5c0.3-0.2,0.5-0.7,0.4-1.1l-1-4.2
	c-0.1-0.3-0.3-0.6-0.6-0.7l-1.3-0.5c-0.2-0.1-0.5-0.1-0.7,0l-5,2c-0.2,0.1-0.4,0.2-0.5,0.4L203.5,645.5z"/>
<path class="st0" d="M388.2,632h-1.9c-0.4,0-0.8-0.2-0.9-0.6l-0.8-1.8c-0.2-0.4-0.1-0.8,0.2-1.1l1.3-1.3c0.3-0.3,0.4-0.6,0.3-1
	l-0.5-1.9c-0.1-0.3-0.4-0.6-0.8-0.6l0,0c-0.2,0-0.3,0-0.5,0.1l-5,3.5c-0.2,0.1-0.5,0.2-0.7,0.2l-1.5-0.3c-0.4-0.1-0.8,0.1-1,0.5
	l-0.8,1.3c-0.1,0.2-0.1,0.3-0.1,0.5v2.1c0,0.4-0.2,0.8-0.6,0.9l-2.9,1.3c-0.3,0.1-0.5,0.3-0.5,0.6l-0.9,3.2c-0.1,0.4-0.5,0.7-1,0.7
	h-6.4c-0.4,0-0.7,0.2-0.9,0.6l-0.7,1.5c-0.2,0.4-0.1,0.8,0.1,1.1l1.5,1.9c0.1,0.2,0.3,0.3,0.5,0.3l2,0.6c0.4,0.1,0.7,0.5,0.7,1v2.1
	c0,0.1,0,0.3,0.1,0.4l1.9,4.5c0.1,0.3,0.1,0.7-0.1,0.9l-3.1,4.8l-2.2,3.4c-0.2,0.3-0.6,0.5-1,0.4l-6.3-1.1c-0.5-0.1-0.8-0.5-0.8-1
	v-2.9c0-0.1,0-0.2,0.1-0.3l0.5-1.7c0.2-0.5,0-1-0.5-1.2l-4.6-2.5c-0.2-0.1-0.4-0.1-0.6-0.1l-2.2,0.3c-0.3,0-0.6,0-0.8-0.2l-6.4-5.3
	c-0.1-0.1-0.2-0.1-0.3-0.2l-4-1.6c-0.1-0.1-0.2-0.1-0.3-0.2l-3.6-3.7c-0.1-0.1-0.1-0.1-0.2-0.1l-6.5-4.1c-0.2-0.1-0.3-0.3-0.4-0.5
	l-5.4-12.5c-0.1-0.1-0.2-0.3-0.3-0.4l-1.7-1.4c-0.4-0.3-1-0.3-1.4,0.1l-1.1,1.1c-0.2,0.2-0.6,0.4-0.9,0.3l-7.8-1.9
	c-0.4-0.1-0.7-0.5-0.8-0.9l-0.3-3.3c0-0.2,0.1-0.4,0.3-0.5l0,0c0.4-0.1,0.4-0.6,0.1-0.8l-0.9-0.5c-0.3-0.2-0.4-0.5-0.4-0.8v-2
	c0-0.6-0.4-1-1-1h-3.3c-0.3,0-0.5-0.1-0.7-0.3l-4.6-4.3c-0.4-0.4-1-0.4-1.4,0l-0.4,0.4c-0.1,0.1-0.3,0.2-0.5,0.3l-0.6,0.1
	c-0.4,0.1-0.7,0.6-0.4,1l0,0c0.4,0.6-0.4,1.3-1,0.9l0,0c-0.4-0.2-0.9,0-1,0.4l-0.4,1.2c-0.1,0.3-0.4,0.6-0.8,0.7l-3.8,0.7
	c-0.2,0-0.4,0.2-0.6,0.3l-1.6,2c-0.2,0.2-0.3,0.5-0.2,0.8l0.7,5c0.1,0.4-0.1,0.8-0.4,1l-0.4,0.3c-0.2,0.1-0.5,0.2-0.7,0.2l-6.1-1.1
	c-0.5-0.1-0.8-0.5-0.8-1l-0.4-36.7c0-0.4,0.3-0.8,0.7-1l18.7-6.2c0.2-0.1,0.5-0.1,0.7,0l3.8,1.5c0.1,0,0.2,0.1,0.2,0.1l7.2,5.6
	l14.7,14.8c0.2,0.2,0.5,0.3,0.8,0.3l21.4-2.9c0.3,0,0.6,0,0.8,0.2l4.7,3.9c0.1,0.1,0.2,0.2,0.2,0.3l2.2,4.1c0.2,0.3,0.5,0.5,0.9,0.5
	h0c0.6,0,1,0.5,1,1.1l-0.7,8.4c0,0.5,0.4,1,0.9,1.1l3,0.3c0.4,0,0.8,0.4,0.9,0.8l1,5.3c0.1,0.5,0.6,0.9,1.1,0.8l6.6-0.7
	c0.1,0,0.3,0,0.4,0l5.7,1.9c0.3,0.1,0.7,0,1-0.2l5.2-4.4l4.6-3c0.1-0.1,0.2-0.1,0.2-0.2l1.7-2.1c0.2-0.2,0.5-0.4,0.8-0.4h0.8
	c0.3,0,0.5-0.1,0.7-0.3l1.6-1.6c0.2-0.2,0.4-0.3,0.7-0.3h1c0.4,0,0.8,0.3,0.9,0.7l0,0c0.1,0.4,0,0.8-0.3,1.1l-6.5,5
	c-0.2,0.1-0.3,0.3-0.3,0.5l0,0c0,0.3,0.2,0.6,0.5,0.6l1.7,0.3c0.2,0,0.5,0.2,0.6,0.4l1.3,1.6c0.1,0.2,0.3,0.3,0.5,0.3l3.1,1
	c0.5,0.1,1-0.1,1.2-0.6l0.7-1.7c0.3-0.7,1.2-0.8,1.7-0.3l3.1,3.4c0.1,0.1,0.3,0.2,0.4,0.3l5.1,1.8c0.8,0.3,0.9,1.4,0.2,1.8l-7.4,4.4
	c-0.2,0.1-0.3,0.1-0.5,0.1H388.2z"/>
<path class="st0" d="M246.7,613.9c-0.2,0.9,0.8,1.5,1.5,1l3-2c0.1-0.1,0.2-0.1,0.3-0.1l8.1-2c0.2-0.1,0.5,0,0.7,0.1l3.7,1.8
	c0.2,0.1,0.3,0.2,0.4,0.4l4.7,8.1c0.2,0.4,0.6,0.6,1,0.5l3.2-0.6c0.5-0.1,0.8-0.5,0.8-1l-0.4-36.1c0-0.4,0.3-0.8,0.7-1l18.7-6.1
	c0.2-0.1,0.5-0.1,0.7,0l3.8,1.5c0.1,0,0.2,0.1,0.2,0.1l7.2,5.5l14.7,14.6c0.2,0.2,0.5,0.3,0.8,0.3l21.4-2.9c0.3,0,0.6,0,0.8,0.2
	l4.7,3.9c0.1,0.1,0.2,0.2,0.2,0.3l2.2,4c0.2,0.3,0.5,0.5,0.9,0.5h0c0.6,0,1,0.5,1,1.1l-0.7,8.2c0,0.5,0.4,1,0.9,1.1l3,0.3
	c0.4,0,0.8,0.4,0.9,0.8l1,5.2c0.1,0.5,0.6,0.9,1.1,0.8l6.6-0.7c0.1,0,0.3,0,0.4,0l5.7,1.9c0.3,0.1,0.7,0,1-0.2l5.2-4.3l4.6-2.9
	c0.1-0.1,0.2-0.1,0.2-0.2l1.7-2.1c0.2-0.2,0.5-0.4,0.8-0.4h0.8c0.3,0,0.5-0.1,0.7-0.3l1.7-1.7c0.1-0.1,0.1-0.2,0.2-0.3l1.1-2.2
	c0.1-0.1,0.1-0.3,0.1-0.4v-1.1c0-0.5,0.3-0.9,0.8-1l2.5-0.6c0.1,0,0.3,0,0.4,0l4.9,0.8c0.1,0,0.1,0,0.2,0l7.5,2.6
	c0.5,0.2,1.1-0.1,1.3-0.7l1.3-4.1c0.1-0.3,0.3-0.5,0.5-0.6l3.9-1.7c0.3-0.1,0.6-0.1,0.9,0l3.3,1.8c0.1,0.1,0.2,0.1,0.3,0.1l4.9,0.8
	c0.1,0,0.1,0,0.2,0h10.1c0.1,0,0.2,0,0.3,0l2.7-0.8c0.1,0,0.3,0,0.4,0l15.7,2.5c0.2,0,0.5,0.2,0.6,0.3l1.7,2.1
	c0.1,0.1,0.3,0.3,0.5,0.3l4.3,1.3c0.5,0.2,1.1-0.1,1.3-0.7l2.2-8.2c0-0.2,0-0.3,0-0.5l-2.9-12.8c0-0.2-0.1-0.3-0.2-0.4l-1.3-1.6
	c-0.5-0.6-0.2-1.5,0.5-1.6l16-3.7c0.5-0.1,0.8-0.5,0.8-1l-0.4-6.7c0-0.1,0-0.3,0.1-0.4l4.8-12.4c0.2-0.4,0.6-0.7,1-0.6l10.9,1.2
	c0.2,0,0.4,0.1,0.6,0.3l1.8,1.8c0.3,0.3,0.8,0.4,1.2,0.2l4-2c0.3-0.2,0.6-0.5,0.6-0.9v-7.4c0-0.1,0-0.2,0-0.3l1.9-6.1
	c0.1-0.4,0.5-0.7,0.9-0.7l4-0.3c0.3,0,0.6-0.2,0.8-0.5l2.7-4.6c0-0.1,0.1-0.1,0.1-0.2l2.5-2.8c0.3-0.3,0.3-0.8,0.1-1.2l-3.5-5.5
	c-0.3-0.4-0.8-0.6-1.2-0.4l-1,0.4c-0.3,0.1-0.5,0.3-0.6,0.6l-0.4,0.9c-0.2,0.5-0.7,0.7-1.2,0.6l-6.6-1.8c-0.2-0.1-0.4-0.2-0.5-0.3
	l-2.6-3c-0.1-0.1-0.2-0.3-0.2-0.4l-0.3-1c-0.1-0.3-0.3-0.5-0.6-0.7l-2.9-1.3c-0.3-0.1-0.6-0.5-0.6-0.8l-0.3-3.7
	c0-0.3-0.2-0.6-0.4-0.7l-5.1-3.5c0,0-0.1-0.1-0.1-0.1l-1-0.5c-0.4-0.2-0.8-0.1-1.2,0.2l-0.9,0.9c-0.2,0.2-0.4,0.3-0.7,0.3h-1.1
	c-0.4,0-0.8,0.2-0.9,0.6l-0.4,0.9c-0.2,0.4-0.5,0.6-0.9,0.6h-8.2c-0.4,0-0.7-0.2-0.9-0.6l-1.3-2.6c-0.1-0.2-0.1-0.4,0-0.6l0,0
	c0.2-0.3,0.1-0.7-0.2-0.9l-2.9-1.9c-0.3-0.2-0.7-0.2-1-0.1l-0.1,0c-0.2,0.1-0.3,0.2-0.4,0.4l-1.9,3.5c0,0.1-0.1,0.2-0.2,0.2
	l-0.7,0.7c-0.5,0.5-1.3,0.4-1.6-0.2l-16-29.1c-0.1-0.1-0.1-0.2-0.2-0.3l-10.3-9c-0.2-0.2-0.3-0.5-0.3-0.8v-0.7
	c0-0.3,0.2-0.6,0.4-0.8l1.5-1c0.4-0.3,0.6-0.8,0.4-1.2l-0.1-0.3c-0.2-0.6-0.9-0.8-1.4-0.5l-4.4,2.4c-0.1,0.1-0.2,0.1-0.3,0.1
	l-2.4,0.3c-0.3,0-0.5,0.2-0.6,0.4l-3,3.7c-0.1,0.2-0.3,0.3-0.5,0.3l-4.2,1.4c-0.4,0.1-0.7,0.5-0.7,0.9v0.1c0,0.7-0.6,1.1-1.3,1
	l-2.7-0.8c-0.2-0.1-0.5-0.1-0.7,0l-2.7,1.2c-0.5,0.2-1.1,0-1.3-0.5l-0.2-0.4c-0.1-0.3-0.1-0.6,0-0.9l0.9-1.7
	c0.1-0.3,0.4-0.5,0.7-0.5l0.4-0.1c0.5-0.1,0.8-0.6,0.7-1.1l0-0.1c-0.1-0.7-0.9-1.1-1.5-0.7l-0.8,0.5c-0.3,0.2-0.7,0.2-1,0.1
	l-4.3-2.2c-0.2-0.1-0.4-0.1-0.5,0.1l0,0c-0.1,0.1-0.2,0.3-0.1,0.4l0.1,0.6c0.1,0.4-0.2,0.9-0.7,0.9l0,0c-0.4,0-0.8-0.4-0.7-0.8
	l0.2-1c0-0.2,0-0.5-0.1-0.7l-1.4-2.5c-0.1-0.1-0.1-0.2-0.2-0.2l0,0c-0.3-0.2-0.8,0-0.8,0.4l-0.2,1.1c-0.1,0.4-0.4,0.8-0.9,0.8
	l-5.4,0.7c-0.4,0.1-0.9-0.2-1.1-0.6l-0.4-0.9c-0.1-0.3-0.1-0.7,0.1-1l0.8-1c0.1-0.1,0.2-0.3,0.2-0.5l0.3-2.6c0-0.4-0.1-0.7-0.4-0.9
	l-0.9-0.7c-0.2-0.2-0.4-0.4-0.4-0.6L388,463c0-0.3-0.2-0.6-0.5-0.7l-1.3-0.8c-0.3-0.2-0.6-0.2-0.9-0.1l-2.9,1.3
	c-0.3,0.1-0.6,0.1-0.9,0l-3.3-1.8c-0.1-0.1-0.2-0.1-0.3-0.1l-4.2-0.8c-0.2,0-0.5,0-0.7,0.1l-3,1.8c-0.1,0.1-0.2,0.1-0.3,0.1
	l-1.4,0.3c-0.4,0.1-0.7,0.3-0.8,0.7L367,465c-0.1,0.3-0.4,0.6-0.7,0.7l-15.7,3.7l-5.5,1.2c-0.3,0.1-0.6,0.3-0.7,0.6l-0.8,1.9
	c-0.2,0.4-0.5,0.6-0.9,0.6h-3.4c-0.1,0-0.3,0-0.4,0.1l-2.5,1c-0.2,0.1-0.4,0.3-0.5,0.5l0,0c-0.2,0.5-0.7,0.7-1.2,0.5l-1.6-0.7
	c-0.3-0.1-0.7-0.1-0.9,0.1l-3.2,2.1c-0.2,0.1-0.4,0.2-0.6,0.2h-2.6c-0.3,0-0.6,0.2-0.8,0.4l-0.5,0.8c-0.2,0.3-0.7,0.3-0.8-0.1l0,0
	c-0.1-0.2-0.3-0.3-0.5-0.3l-5.9,0.4c-0.4,0-0.7-0.1-0.9-0.4l-0.1-0.2c-0.3-0.4-0.7-0.5-1.1-0.4l-1.6,0.5c-0.7,0.2-0.9,1.1-0.4,1.7
	l0.1,0.1c0.3,0.3,0.4,0.7,0.2,1.1l-0.3,0.8c-0.3,0.7,0.3,1.5,1,1.4l1.3-0.2c0.2,0,0.4,0.1,0.5,0.3l0,0c0.1,0.3,0,0.6-0.3,0.7
	l-1.2,0.4c-0.5,0.2-0.8,0.6-0.7,1.1l0.2,1c0.1,0.4,0.4,0.8,0.9,0.8l3.6,0.3c0.2,0,0.4,0.1,0.5,0.2l1.4,1.1c0.5,0.4,0.5,1.2,0,1.6
	l-0.4,0.3c-0.2,0.1-0.4,0.2-0.6,0.2h-6.1c-0.3,0-0.5,0.1-0.7,0.3l-2.1,2.1c-0.4,0.4-0.4,0.9-0.1,1.3l1.8,2.4
	c0.2,0.2,0.2,0.5,0.2,0.8l-0.2,1.2c-0.1,0.3-0.2,0.5-0.5,0.7l-6.5,3.4c-0.2,0.1-0.3,0.3-0.3,0.6l0,0c0,0.3,0.2,0.5,0.4,0.6l1.6,0.5
	c0.3,0.1,0.6,0.4,0.7,0.8l0.2,0.9c0.1,0.4,0.4,0.7,0.9,0.8l2.1,0.3c0.4,0,0.7,0.3,0.8,0.6l0.4,1.1c0.1,0.3,0.4,0.5,0.7,0.6l4,0.9
	c0.6,0.1,0.9,0.7,0.7,1.3l-1.6,5.3c-0.1,0.3-0.4,0.6-0.8,0.7l-5.5,1.1c-0.2,0-0.5,0-0.7-0.1l-2.7-1.5c-0.5-0.3-1.1-0.1-1.4,0.4
	l-1.4,2.5c-0.2,0.3-0.5,0.5-0.9,0.5H301c-0.4,0-0.7-0.3-0.8-0.6l-0.2-0.6c-0.1-0.2,0.1-0.4,0.3-0.4l0,0h-4.1c-0.4,0-0.7-0.2-0.9-0.5
	l-2.1-3.8c-0.1-0.2-0.4-0.4-0.6-0.5l-1.1-0.3c-0.1,0-0.3,0-0.4,0l-2.6,0.4c-0.2,0-0.3,0.1-0.4,0.2l-2.2,1.6c-0.4,0.3-0.9,0.2-1.2,0
	l-1.6-1.4c-0.2-0.2-0.5-0.3-0.8-0.2l-2.2,0.3c-0.2,0-0.4,0.2-0.4,0.4l0,0c0,0.3-0.2,0.5-0.5,0.4l-1.6-0.3c-0.3-0.1-0.6,0-0.8,0.2
	l-4.3,4c-0.3,0.3-0.7,0.3-1,0.2l-3.4-1.4c-0.2-0.1-0.4-0.2-0.5-0.4l-1.7-2.8c-0.2-0.2-0.4-0.4-0.7-0.4l0,0c-0.5,0-0.8,0.4-0.8,0.8
	v3.8c0,0.3-0.2,0.6-0.5,0.7l0,0c-0.4,0.1-0.9-0.1-1-0.5l-0.6-2.4c0-0.1-0.1-0.3-0.2-0.4l-6.4-7.6c-0.2-0.2-0.5-0.4-0.8-0.4h-6.3
	c-0.4,0-0.7-0.2-0.9-0.5l-1.1-2c-0.2-0.3-0.5-0.5-0.9-0.5h-0.2c-0.1,0-0.1,0-0.2,0l-2,0.3c-0.3,0.1-0.6,0.3-0.8,0.6l-0.7,1.7
	c-0.2,0.4-0.7,0.5-1,0.2l0,0c-0.1-0.1-0.3-0.2-0.5-0.2l-0.9,0.2c-0.5,0.1-1.1-0.2-1.2-0.8l-0.1-0.3c-0.1-0.5-0.6-0.8-1.1-0.8
	l-3.4,0.3c-0.3,0-0.6,0.2-0.7,0.4l-2.6,3.7c-0.1,0.2-0.3,0.3-0.4,0.4l-5.7,2.3c-0.3,0.1-0.5,0.4-0.6,0.7l-0.6,2.1
	c-0.1,0.3-0.2,0.5-0.5,0.6l-3.4,1.9c-0.1,0-0.2,0.1-0.2,0.1l-0.6,0.1c-0.6,0.1-0.9,0.7-0.7,1.3l1.7,5.7c0.1,0.4,0,0.8-0.3,1
	l-2.1,1.9c-0.4,0.4-1.1,0.3-1.5-0.1l-4.9-6.5c-0.5-0.7-1.6-0.4-1.8,0.4l-0.7,3.1c-0.1,0.2-0.2,0.5-0.4,0.6l-1.9,1.3
	c-0.2,0.1-0.4,0.4-0.4,0.6l-1.1,5.5c-0.1,0.3,0,0.6,0.2,0.8l1.2,1.4c0.4,0.4,0.3,1.1-0.1,1.4l-1.6,1.3c-0.2,0.1-0.3,0.3-0.3,0.5
	l-1.4,4.8c-0.1,0.5,0.1,1.1,0.6,1.2l2.4,0.8c0.3,0.1,0.6,0.4,0.7,0.7l1.1,4.5c0,0.1,0.1,0.2,0.1,0.2l0.6,0.9
	c0.2,0.2,0.6,0.1,0.6-0.2l0,0c0-0.2,0.2-0.3,0.4-0.3l5.7,0.8c0.3,0,0.5,0.2,0.7,0.4l2.2,3c0.1,0.1,0.1,0.2,0.1,0.2l2.4,6.2
	c0.3,0.7-0.2,1.4-0.9,1.4h-2c-0.5,0-0.9,0.3-1,0.8l0,0.1c-0.1,0.5,0.2,1,0.7,1.2l0.2,0.1c0.2,0.1,0.3,0.1,0.5,0l12.7-2.5
	c0.2,0,0.4-0.1,0.6-0.3l3.6-4c0.3-0.3,0.7-0.4,1-0.3l6.5,1.9c0.2,0,0.3,0.1,0.5,0l5.3-1.1c0.3-0.1,0.6,0,0.8,0.2l3.8,3
	c0.1,0.1,0.2,0.2,0.2,0.3l5.4,9.5c0.1,0.1,0.2,0.2,0.3,0.3l5.2,4c0.2,0.1,0.3,0.3,0.3,0.5l0.5,1.6c0.1,0.3-0.1,0.7-0.5,0.7l0,0
	c-0.3,0-0.5,0.3-0.5,0.6l0.1,0.6c0.1,0.7-0.5,1.3-1.2,1.1l-17-3.1c-0.3-0.1-0.7,0-0.9,0.3l-1.5,1.5c-0.2,0.2-0.4,0.3-0.7,0.3h-2.8
	c-0.4,0-0.7,0.2-0.9,0.6l-0.8,1.6c-0.1,0.3-0.1,0.6,0,0.9l1.2,2.4c0.3,0.7-0.2,1.4-0.9,1.4h-6.6c-0.9,0-1.3,1.1-0.7,1.7l4.8,4.5
	c0.1,0.1,0.2,0.3,0.3,0.4l2.4,7.9c0.1,0.3,0.3,0.5,0.6,0.6l8.7,3.8c0.4,0.2,0.7,0.7,0.6,1.1L246.7,613.9z"/>
<path class="st0" d="M388.1,632.9c-0.2,0-0.5,0.1-0.7,0.3l-2.2,2c-0.3,0.2-0.7,0.3-1,0.2l-2.6-1c-0.2-0.1-0.4-0.1-0.6,0l-5.1,1.1
	c-0.5,0.1-0.9,0.6-0.8,1.2l0.5,2.2c0.1,0.5,0.5,0.8,1,0.8h7.9c0.2,0,0.3,0,0.5,0.1l2,1c0.2,0.1,0.5,0.1,0.8,0.1l3.5-1.1
	c0.2-0.1,0.5-0.1,0.7,0l1.3,0.5c0.3,0.1,0.5,0.4,0.6,0.7l0.2,1c0.1,0.4,0.4,0.7,0.9,0.8l2.5,0.3c0.1,0,0.2,0,0.3,0l10.7-2
	c0.4-0.1,0.7-0.4,0.8-0.8l0.6-3.6c0.1-0.3,0.3-0.6,0.6-0.7l5.2-2.3c0.2-0.1,0.3-0.2,0.4-0.3l0.8-1.1c0.2-0.3,0.5-0.4,0.9-0.4
	l9.2,0.8c0.3,0,0.6-0.1,0.8-0.3l4.1-4.3c0.1-0.1,0.3-0.2,0.5-0.3l9.6-2.1c0.2,0,0.4-0.2,0.6-0.4l2.6-3.5c0.1-0.1,0.2-0.2,0.4-0.3
	l10.9-5.4c0.3-0.1,0.4-0.3,0.5-0.6l0.9-3.1c0.2-0.5-0.1-1.1-0.7-1.2l-4.3-1.4c-0.2-0.1-0.4-0.2-0.5-0.3l-1.7-2.1
	c-0.2-0.2-0.4-0.3-0.6-0.4l-15.6-2.5c-0.1,0-0.3,0-0.4,0l-2.6,0.8c-0.1,0-0.2,0-0.3,0h-10c-0.1,0-0.1,0-0.2,0l-4.8-0.8
	c-0.1,0-0.2-0.1-0.3-0.1l-3.2-1.9c-0.3-0.2-0.6-0.2-0.9,0l-3.8,1.8c-0.3,0.1-0.5,0.3-0.5,0.6l-1.3,4.3c-0.2,0.6-0.8,0.9-1.3,0.7
	l-7.4-2.7c-0.1,0-0.1,0-0.2,0l-4.8-0.8c-0.1,0-0.3,0-0.4,0l-2.4,0.6c-0.4,0.1-0.7,0.5-0.7,1v1.2c0,0.2,0,0.3-0.1,0.4l-0.5,1.1
	c-0.3,0.6,0.1,1.3,0.8,1.3l0,0c0.4,0,0.8,0.3,0.9,0.6l0,0c0.1,0.4,0,0.8-0.3,1.1l-6.5,5.1c-0.2,0.1-0.3,0.3-0.3,0.5l0,0
	c0,0.3,0.2,0.6,0.6,0.7l1.6,0.3c0.2,0,0.5,0.2,0.6,0.4l1.3,1.6c0.1,0.2,0.3,0.3,0.5,0.3l3.1,1c0.5,0.2,1-0.1,1.2-0.6l0.7-1.7
	c0.3-0.7,1.2-0.8,1.7-0.3l3,3.5c0.1,0.1,0.3,0.2,0.4,0.3l5.1,1.8c0.8,0.3,0.9,1.4,0.2,1.8l-7.4,4.5c-0.2,0.1-0.3,0.1-0.5,0.1H388.1z
	"/>
<path class="st0" d="M365.2,664.9c0.3,0.3,0.8,0.4,1.2,0.2l4.9-2.8c0.3-0.2,0.6-0.2,0.9,0l1.8,0.9c0.6,0.3,1.3,0,1.4-0.7l0.7-3
	c0.1-0.5,0.7-0.9,1.2-0.7l3.4,0.9c0.5,0.1,0.9-0.1,1.1-0.5l0.3-0.6c0.1-0.3,0.1-0.6,0-0.9l-0.3-0.7c-0.2-0.4-0.1-0.8,0.2-1.1
	l4.5-4.9c0.3-0.4,0.9-0.4,1.3-0.1l1.7,1.2c0.4,0.3,0.5,0.7,0.4,1.1l-0.4,1.1c-0.2,0.5,0.1,1,0.5,1.2l1.2,0.6c0.4,0.2,0.6,0.6,0.5,1
	l-0.7,6.3c0,0.2,0,0.4,0.1,0.6l1.5,3.1c0.3,0.5,0.9,0.7,1.4,0.4l12-7c0.2-0.1,0.5-0.2,0.7-0.1l1.3,0.3c0.3,0.1,0.6,0.3,0.7,0.5
	l0.3,0.6c0.2,0.4,0.6,0.6,1.1,0.5l3.9-0.7c0.1,0,0.1,0,0.2,0h2.3c0.2,0,0.3,0.3,0.2,0.4l0,0c-0.2,0.2,0,0.4,0.2,0.4h0.5
	c0.3,0,0.5-0.3,0.5-0.6l-1.6-10.5c0-0.1,0-0.2-0.1-0.3l-0.1-0.2c-0.2-0.3-0.5-0.6-0.9-0.6h-4.4c-0.3,0-0.7-0.2-0.9-0.5l-1.6-2.6
	c-0.1-0.2-0.2-0.5-0.1-0.7l0.9-5.1c0.1-0.7-0.5-1.3-1.2-1.2l-10,1.9c-0.1,0-0.2,0-0.3,0l-2.6-0.3c-0.4-0.1-0.8-0.4-0.9-0.8l-0.2-0.9
	c-0.1-0.3-0.3-0.6-0.6-0.7l-1.3-0.5c-0.2-0.1-0.4-0.1-0.7,0l-3.6,1.1c-0.2,0.1-0.5,0.1-0.7-0.1l-2-1c-0.1-0.1-0.3-0.1-0.4-0.1h-8
	c-0.5,0-0.9-0.3-1-0.8l-0.5-2.1c-0.1-0.5,0.2-1.1,0.8-1.2l5.1-1c0.2,0,0.4,0,0.5,0l2.6,1c0.3,0.1,0.7,0.1,1-0.2l1-0.9
	c0.5-0.5,0.2-1.3-0.5-1.3l0,0c-0.3,0-0.6-0.2-0.7-0.5l-0.8-1.9c-0.2-0.4-0.1-0.8,0.2-1.1l1.3-1.3c0.3-0.3,0.4-0.6,0.3-1l-0.5-1.9
	c-0.1-0.3-0.4-0.6-0.8-0.6l0,0c-0.2,0-0.3,0-0.5,0.1l-5,3.5c-0.2,0.2-0.5,0.2-0.7,0.2l-1.5-0.3c-0.4-0.1-0.8,0.1-1,0.5l-0.8,1.3
	c-0.1,0.2-0.1,0.3-0.1,0.5v2.1c0,0.4-0.2,0.8-0.6,0.9l-2.8,1.3c-0.3,0.1-0.5,0.3-0.5,0.6l-0.9,3.2c-0.1,0.4-0.5,0.7-1,0.7h-6.3
	c-0.4,0-0.7,0.2-0.9,0.6l-0.7,1.5c-0.2,0.4-0.1,0.8,0.1,1.1l1.5,1.8c0.1,0.2,0.3,0.3,0.5,0.3l2,0.6c0.4,0.1,0.7,0.5,0.7,1v2.1
	c0,0.1,0,0.3,0.1,0.4l1.9,4.5c0.1,0.3,0.1,0.7-0.1,0.9l-3.1,4.7l-2.1,3.2c-0.3,0.4-0.2,0.9,0.1,1.3L365.2,664.9z"/>
<path class="st0" d="M1206.9,338c0.1,0.6,0.3,1.2,0.6,1.7l3.1,5.3c0.3,0.6,0,1.3-0.7,1.4c-0.7,0.1-1.1,0.9-0.6,1.5l1.8,2.4
	c0.7,0.9,0.7,2.1,0.2,3l-0.9,1.5c-1.2,1.9-3.6,2.6-5.6,1.6l-6-3c-0.5-0.2-1-0.2-1.4,0.1l-0.4,0.3c-0.4,0.3-0.9,0.2-1.2-0.2
	c-0.5-0.8-1.7-0.1-1.4,0.8c0.1,0.4-0.1,0.9-0.5,1l-13.3,5c-1.1,0.4-2,1.4-2.3,2.5c-0.2,1-0.9,1.8-1.8,2.3l-6.2,3.4
	c-0.6,0.3-1.3,0.4-1.9,0.2c-1.2-0.3-2.4,0.2-3,1.2l-1,1.8c-0.4,0.7-1,1.3-1.6,1.7l-4.3,2.4c-0.4,0.2-0.6,0.7-0.5,1.1l0.1,0.5
	c0.1,0.6-0.5,1.1-1.1,0.9s-1.2,0.3-1.1,0.9l0.1,0.5c0.1,0.4-0.1,0.9-0.5,1.1l-10.1,6.1c-0.8,0.5-1.3,1.2-1.5,2.1
	c-0.6,2.6-3.9,3.5-5.7,1.5l-2.1-2.4c-0.6-0.6-1.3-1.1-2.1-1.3l-6.8-1.9c-0.9-0.2-1.8-0.2-2.7,0.2l-6.4,2.6c-0.5,0.2-1,0.6-1.3,1.1
	l-1.1,1.8c-1.2,1.9-4.1,1-4-1.3l0-0.5c0-0.4-0.2-0.9-0.6-1.1c-0.4-0.3-1-0.3-1.4,0l-4.8,3.2c-0.6,0.4-1.1,1-1.3,1.8l-0.5,1.8
	c-0.4,1.4-2.1,1.9-3.2,0.9l-0.2-0.2c-0.7-0.6-1.8-0.6-2.5,0.2l-0.6,0.7c-0.4,0.5-1.2,0.5-1.6-0.1c-0.3-0.4-0.8-0.5-1.3-0.3l-1.6,0.7
	c-0.9,0.4-1.6,1.3-1.8,2.3l-2,9c-0.1,0.6-0.6,1-1.2,1c-0.4,0-0.9,0.2-1.1,0.6l-6.1,11c-0.3,0.5-0.5,1.1-0.5,1.7l-0.3,3.1
	c0,0.5,0.1,1,0.4,1.4c0.7,0.8,1.9,1,2.7,0.2l0.6-0.5c0.8-0.7,2-0.9,2.9-0.4l0.2,0.1c1.4,0.7,2,2.4,1.4,3.8l-2.3,5.5
	c-0.3,0.6-0.4,1.3-0.3,2l0.2,3c0.1,1.2,0.8,2.2,1.9,2.8c1.1,0.5,1.8,1.6,1.9,2.7l0.2,2.5c0,0.5-0.1,0.9-0.3,1.4l-0.3,0.5
	c-0.7,1.3-2.5,1.4-3.3,0.2l-0.2-0.3c-0.3-0.4-0.4-1-0.1-1.5c0.6-1.2-0.6-2.5-1.8-2l-0.2,0.1c-0.7,0.3-1,1.2-0.6,1.9
	c0.3,0.5,0.2,1.2-0.2,1.6l-2.5,2.5c-0.4,0.4-0.8,0.9-1,1.5l-1.3,3.4c-0.3,0.9-0.4,1.8-0.1,2.7l1.8,6.3c0.5,1.6,0,3.3-1.3,4.4
	l-0.2,0.2c-1,0.9-2.4,1.2-3.7,0.8c-1.3-0.4-2.8-0.1-3.8,0.9l-4.7,4.4c-0.9,0.8-1.3,1.9-1.3,3.1v7.6c0,0.7-0.8,1.1-1.3,0.7
	c-0.2-0.2-0.5-0.2-0.8-0.1l-5.9,2.4c-1.4,0.5-2.3,1.7-2.6,3.2l-1.9,10.2c-0.2,0.8-0.5,1.5-1.1,2.1l-4.1,4.4
	c-2.4,2.6-6.7,1.3-7.3-2.1l-7.3-38c0,0,0-0.1,0-0.1c0-0.1,0-0.1,0-0.2c0-0.1,0-0.2,0-0.3l-0.4-10c0-0.1,0-0.2,0-0.3
	c0-0.1,0-0.2,0-0.4l1.9-14.9c0.2-1.2,0.8-2.3,1.8-3l4.5-3.1c0.8-0.6,1.4-1.4,1.7-2.4l1.1-4.2c0.1-0.4,0.1-0.9,0-1.4l-0.2-0.5
	c-0.4-1.5,0.8-2.9,2.3-2.7c0.4,0,0.9,0,1.3-0.3l6.3-3.5c0.5-0.3,1-0.7,1.4-1.2l14.7-20c0.1-0.1,0.2-0.2,0.2-0.3
	c0.1-0.1,0.1-0.1,0.2-0.2l9.3-9.3c0.5-0.5,0.8-1,1-1.7l0.4-1.2c0.4-1.1,1.1-1.9,2.1-2.4l10-5.2c0.9-0.5,1.3-1.6,0.9-2.6
	c-0.3-0.8-0.2-1.6,0.4-2.2l0.4-0.4c0.5-0.5,0.8-1.2,0.8-2v-2.5c0-0.7,0.2-1.3,0.4-1.9l0.5-1.1c0.2-0.4,0.3-0.8,0.4-1.2l0.9-5.4
	c0.2-1.3,1-2.4,2.1-3l3.6-2.1c0.4-0.2,0.6-0.5,0.7-0.9c0.2-0.6-0.1-1.3-0.7-1.7l-1.7-1c-1-0.6-2.3-0.8-3.4-0.4l-3.5,1.1
	c-1,0.3-1.8,1-2.4,1.9l-2.5,4.2c-0.3,0.6-0.6,1.2-0.6,1.9l-0.3,3.6c-0.1,0.6,0.2,1.2,0.7,1.6l0.5,0.4c0.5,0.4,0.6,1.2,0.3,1.7
	c-0.5,0.8-1.6,0.8-2.1,0l-0.1-0.1c-0.3-0.5-1-0.7-1.5-0.6l-1.3,0.4c-0.5,0.1-1,0.4-1.3,0.8l-13,12.7c-0.9,0.9-2.4,0-2-1.2
	c0.3-0.8-0.4-1.7-1.3-1.6l-0.3,0c-1,0.1-1.8-0.8-1.5-1.8l0.2-0.6c0.1-0.3,0.1-0.5,0-0.8l-0.1-0.7c-0.2-1,0-1.9,0.5-2.8l1.3-2.4
	c0,0,0-0.1,0.1-0.1c0-0.1,0.1-0.2,0.1-0.2l0.3-1.2c0.4-1.3-1.2-2.3-2.2-1.4c-0.4,0.4-1.1,0.5-1.6,0.2l-4.4-2.5
	c-1-0.6-2.2-0.7-3.3-0.4l-10,2.9c-1,0.3-1.8,0.9-2.4,1.8l-8.6,13.1c-0.2,0.3-0.5,0.7-0.8,0.9l-7,5.9c-0.4,0.4-0.8,0.8-1,1.3
	l-3.3,6.2c-0.1,0.2-0.3,0.3-0.5,0.3c-0.4,0-0.7,0.4-0.6,0.8l0.7,2c0.1,0.4,0.1,0.8-0.1,1.2c-0.5,0.8,0,1.8,0.8,2l4.2,1
	c0.6,0.1,1,0.6,1.1,1.2c0.1,0.7-0.2,1.4-0.9,1.7l-0.5,0.2c-0.3,0.1-0.6,0.2-1,0.1l-7.4-0.7c-1-0.1-1.9,0.1-2.7,0.7l-3.5,2.2
	c-0.8,0.5-1.8,0.5-2.6,0c-0.5-0.3-1.2-0.4-1.8-0.3l-6.7,1.6c-0.8,0.2-1.6-0.2-2-0.9c-0.5-1-0.1-2.2,0.9-2.6l1-0.4
	c2-0.8,2.4-3.5,0.6-4.8l-0.4-0.3c-0.9-0.6-2-0.7-3-0.3l-0.8,0.3c-1,0.4-2,0.5-3,0.2l-10-3.2c-0.3-0.1-0.6-0.1-0.8,0
	c-0.7,0.2-1.2,0.9-1.1,1.6l0.1,0.8c0.1,0.7-0.4,1.4-1.1,1.5c-0.7,0.1-1.2,0.8-1.1,1.5l0.1,0.7c0.1,0.6-0.3,1.1-0.8,1.2
	c-0.4,0.1-0.9-0.1-1.2-0.4l-0.5-0.8c-0.7-0.9-1.9-1.3-3-0.8l-2.5,1.1c-1.1,0.5-2.3,0.5-3.3,0l-4.4-1.9c-1.2-0.5-2.5-0.1-3.3,0.9
	c-0.9,1.3-2.8,1.5-4,0.5l-0.8-0.8c-0.7-0.7-1.7-1-2.7-0.9l-15.1,1.1c-0.6,0-1.2,0.2-1.7,0.5l-5.8,3.1c-0.4,0.2-0.8,0.5-1.1,0.9
	l-9.8,10.6c-0.3,0.3-0.5,0.6-0.7,1l-2.7,5.5c-0.3,0.5-0.7,1-1.1,1.4l-7.9,6.4c-0.3,0.2-0.5,0.5-0.7,0.8l-11,14.7
	c-0.1,0.1-0.2,0.2-0.2,0.3c0,0-0.1,0.1-0.1,0.1c-0.1,0.1-0.1,0.1-0.2,0.2l-17.2,15.9c-0.3,0.3-0.6,0.7-0.7,1.2
	c-0.2,0.9,0.2,1.8,0.9,2.3l1.4,1c0.8,0.5,1.7,0.8,2.6,0.7l2.4-0.1c2.1-0.1,3.9,1.6,3.9,3.7v4.3c0,1.2,1.4,1.9,2.4,1.2
	c0.4-0.3,0.6-0.7,0.6-1.2v-2.2c0-0.3,0.2-0.5,0.4-0.6l0.5-0.2c0.6-0.3,1.1,0.4,0.7,0.9c-0.2,0.2-0.2,0.5,0,0.7l1.3,1.8
	c0.4,0.5,0.4,1.2,0,1.7c-0.7,1.1,0.2,2.5,1.5,2.3l2.6-0.5c0.1,0,0.2-0.1,0.3-0.1c0,0,0.1,0,0.1-0.1l0.9-0.7c0.4-0.3,1,0,0.9,0.5
	c-0.1,0.6,0.7,0.9,1,0.4l1.1-1.5c0.1-0.2,0.2-0.4,0.2-0.6v-1.6c0-2.4,2-4.4,4.5-4.3l1.8,0.1c1.4,0.1,2.7,0.8,3.4,2l2.7,4.3
	c0.3,0.4,0.6,0.8,1,1.1l4.6,3.5c1.5,1.2,2.1,3.2,1.3,5l-0.1,0.3c-0.3,0.7-0.4,1.4-0.3,2.1l0.3,2.2c0,0.4,0,0.7,0,1.1l-0.2,1.1
	c-0.1,0.9,0.1,1.7,0.7,2.4c0.8,0.9,0.9,2.2,0.4,3.3l-3.7,7.3c-0.1,0.2-0.2,0.3-0.2,0.5c0,0,0,0,0,0.1c0,0,0,0,0,0.1l-2.2,6.8
	c-0.2,0.6-0.2,1.3-0.1,2l1,6.5c0.1,0.4,0.1,0.8,0,1.3l-2.3,16.5c-0.1,0.8-0.5,1.6-1,2.3l-5.8,6.5c-0.1,0.1-0.2,0.2-0.3,0.4
	c0,0.1-0.1,0.1-0.1,0.2l-5.6,8.9c-0.1,0.2-0.2,0.4-0.3,0.5l-3.5,7.8c-0.1,0.3-0.3,0.6-0.6,0.9l-22.5,28.3c-0.2,0.2-0.4,0.4-0.6,0.6
	l-6.6,5.5c-0.5,0.4-1.2,0.8-1.8,0.9l-4.1,0.9c-0.6,0.1-1.1,0.1-1.7,0l-4.6-0.9c-0.8-0.2-1.4-0.9-1.4-1.7v-1.4c0-0.8-0.9-1.3-1.5-0.8
	c-0.5,0.4-1.2,0.1-1.5-0.5l0-0.1c-0.3-0.9-1.5-0.9-1.9-0.1l-3,5.4c-0.4,0.7-1.1,1.1-1.9,1.1h-1.5c-0.6,0-1,0.5-0.9,1.1l0.1,0.5
	c0.1,0.3-0.2,0.6-0.5,0.6c-0.2,0-0.3-0.1-0.4-0.3l-0.5-1c-0.2-0.3-0.2-0.7-0.2-1V609c0-0.8,0.3-1.7,0.8-2.3l3.3-3.8
	c0.7-0.8,1-1.8,1-2.8v-6.3c0-0.5-0.1-0.9-0.2-1.4l-0.7-2c-0.5-1.5-0.1-3.2,1-4.4l2.6-2.6c1.2-1.2,3-1.6,4.6-1l3.3,1.3
	c1.1,0.4,2.3,0.2,3.2-0.7c0.2-0.2,0.4-0.5,0.6-0.8l4.7-9.5c0.1-0.1,0.1-0.3,0.2-0.4c0-0.1,0.1-0.2,0.1-0.3l3.4-11.8
	c0.2-0.7,0.6-1.3,1.1-1.8l1.2-1.2c0.9-0.9,1.4-2.2,1.2-3.5l-0.6-5.4c0-0.2,0-0.3,0.1-0.5c0.4-0.6-0.3-1.3-0.9-1.1l-18,7.3
	c-0.6,0.2-1.2,0.3-1.9,0.3l-4-0.2c-1.5-0.1-2.8-0.9-3.5-2.2l-0.5-0.8c-0.4-0.6-0.5-1.4-0.5-2.1v-2.4c0-0.5-0.1-1-0.3-1.5l-1.3-3.4
	c-0.3-0.9-1-1.7-1.8-2.2l-8.3-4.8c-0.4-0.3-0.9-0.4-1.5-0.5l-9.1-1.5c-1.8-0.3-3.2-1.7-3.5-3.5l-1.9-11c-0.1-0.4-0.2-0.7-0.3-1
	l-4.2-9.2c-0.2-0.4-0.3-0.8-0.4-1.3l-0.6-5.5c-0.1-0.7-0.4-1.4-0.8-2l-4.3-5.9c-0.6-0.9-1.6-1.5-2.6-1.7l-6.5-1.2
	c-0.6-0.1-1.1-0.3-1.6-0.6l-4.3-2.9c-0.9-0.6-1.9-0.8-3-0.7l-17.4,2.5c-1,0.1-1.8,0.6-2.5,1.3l-5.1,5.5c-0.2,0.2-0.3,0.4-0.4,0.6
	c-0.4,1.1,0.4,2.2,1.6,2.2h1c1.3,0,2.3,1,2.4,2.2l0.1,1.4c0.1,1.2-0.4,2.4-1.3,3.2l-4,3.5c-0.6,0.5-1,1.2-1.3,1.9l-3.9,12.1
	l-0.5,2.1c-0.2,1.1-0.9,2.1-1.9,2.7L746,532c-1.2,0.7-2.6,0.9-3.9,0.3l-8.4-3.4c-0.7-0.3-1.5-0.4-2.3-0.3l-2.7,0.4
	c-0.8,0.1-1.7,0-2.5-0.3l-5.3-2.4c-1.3-0.6-2.9-0.5-4.1,0.3l-9.5,6.1c-0.3,0.2-0.7,0.4-1.1,0.5l-14.2,4.2c-0.7,0.2-1.4,0.2-2.1,0.1
	l-5.4-1.1l-9-2c-0.6-0.1-1.1-0.4-1.6-0.7l-5-3.6c0,0,0,0-0.1,0c0,0,0,0-0.1,0c0,0-0.1,0-0.1-0.1l0,0c-0.1-0.1-0.2-0.1-0.3-0.2
	l-16.9-8.6c-0.3-0.1-0.5-0.2-0.8-0.3l-2.7-0.7c-1-0.3-2-0.2-3,0.3l-7.7,3.7c-1,0.5-2.2,0.6-3.2,0.2l-2.9-1c-0.4-0.1-0.8-0.3-1.1-0.6
	l-4.1-2.9c-0.9-0.6-1.5-1.6-1.7-2.7l-1-5c-0.3-1.4-1.3-2.6-2.6-3.2l-15.9-6.3c-1.5-0.6-3.2-0.3-4.4,0.8l-6.4,5.6
	c-1.2,1-1.7,2.6-1.4,4.1l1,4.8c0.2,0.8,0.1,1.7-0.3,2.5l-0.3,0.6c-0.3,0.8-0.4,1.6-0.2,2.4l0.3,1.6c0.2,0.8-0.2,1.7-1,2.1
	c-0.3,0.1-0.6,0.2-0.9,0.2h-20c-1.1,0-2.2-0.5-3-1.3L566,524c-0.7-0.7-1.6-1.1-2.5-1.2l-16-1.9c-0.6-0.1-1.3,0-1.8,0.2l-7.6,2.5
	c-0.3,0.1-0.6,0.2-0.8,0.4l-16.8,10c-0.5,0.3-1,0.7-1.3,1.2l-3,4.3c-0.2,0.3-0.5,0.6-0.8,0.9l-1.3,1.1c-0.5,0.4-1.2,0.6-1.9,0.4
	c-1.3-0.4-1.8-2.1-0.9-3.2l0.1-0.1c0.6-0.7,0.7-1.6,0.2-2.4l-2.7-4.3c-0.5-0.7-1.4-1.1-2.2-0.7l0,0c-0.4,0.2-0.8,0.5-1,1
	c-0.3,0.8-1.2,1.3-2.1,1l-5-1.4c-0.8-0.2-1.5-0.7-2.1-1.3l-1.8-2c-0.3-0.3-0.4-0.6-0.5-1c-0.2-0.7-0.7-1.3-1.4-1.6l-0.7-0.3
	c-1.3-0.6-2.2-1.8-2.3-3.2l0-0.4c-0.1-1.3-0.8-2.4-1.8-3.1l-3.8-2.6c-0.1-0.1-0.2-0.1-0.3-0.2l-0.2-0.1c-0.8-0.4-1.8-0.2-2.5,0.4
	l-0.1,0c-0.4,0.4-0.9,0.6-1.4,0.6h-0.2c-0.7,0-1.3,0.4-1.6,1.1c-0.3,0.6-0.9,1.1-1.6,1.1h-6.1c-1.3,0-2.5-0.7-3.1-1.9l-0.6-1.2
	c-0.1-0.2-0.1-0.4,0-0.6c0.2-0.3,0.1-0.7-0.2-0.9l-2.8-1.9c-0.3-0.2-0.7-0.2-1.1-0.1c-0.2,0.1-0.4,0.3-0.5,0.4l-1.9,3.4
	c-0.1,0.1-0.2,0.3-0.3,0.4c-0.8,0.8-2.1,0.6-2.6-0.4l-15.3-27.8c-0.2-0.4-0.6-0.8-0.9-1.2l-9.5-8.4c-0.4-0.3-0.6-0.8-0.6-1.3
	c0-0.6,0.3-1.1,0.8-1.4l1-0.7c0.5-0.3,0.7-0.9,0.4-1.4c-0.3-0.7-1-0.9-1.7-0.6l-3.7,2c-0.4,0.2-0.9,0.4-1.4,0.5l-0.6,0.1
	c-1.1,0.2-2.1,0.7-2.7,1.6l-1.6,2c-0.5,0.6-1.2,1.1-2,1.4l-3.2,1.1c-0.4,0.1-0.7,0.5-0.7,1c0,0.7-0.7,1.2-1.3,1l-2-0.6
	c-0.6-0.2-1.2-0.1-1.8,0.1l-1.8,0.8c-0.6,0.3-1.4,0-1.7-0.6c-0.2-0.4-0.2-0.8,0-1.2l0.7-1.5c0.2-0.3,0.5-0.6,0.8-0.7l0.2,0
	c0.5-0.1,0.9-0.7,0.8-1.2c-0.1-0.8-1-1.1-1.6-0.7l-0.5,0.3c-0.4,0.3-1,0.3-1.5,0.1l-4.1-2c-0.2-0.1-0.4-0.1-0.5,0.1
	c-0.1,0.1-0.2,0.3-0.1,0.4l0.2,0.6c0.1,0.4-0.2,0.8-0.7,0.8c-0.4,0-0.8-0.4-0.7-0.8l0.2-0.8c0.1-0.3,0-0.7-0.2-0.9l-1.4-2.4
	c-0.1-0.1-0.1-0.2-0.2-0.2c-0.3-0.2-0.8,0-0.8,0.4l-0.1,0.9c-0.1,0.5-0.5,1-1.1,1l-4.6,0.6c-0.8,0.1-1.5-0.3-1.8-1.1
	c-0.2-0.6-0.1-1.2,0.2-1.7l0.3-0.4c0.3-0.4,0.4-0.8,0.5-1.2l0.2-1.5c0.1-0.8-0.2-1.5-0.8-2c-0.5-0.3-0.8-0.8-0.8-1.4l-0.5-3.5
	c-0.1-0.7-0.6-1.4-1.2-1.8c-0.7-0.4-1.6-0.5-2.3-0.1l-0.8,0.3c-1.2,0.5-2.6,0.5-3.7-0.2l-1.4-0.8c-0.4-0.2-0.9-0.4-1.3-0.5l-2.4-0.4
	c-1-0.2-2.1,0-3,0.6l-1.6,1c-0.3,0.2-0.6,0.3-0.9,0.4l-0.1,0c-1,0.2-1.7,0.9-2,1.8c-0.3,0.9-1,1.6-1.9,1.8l-14.8,3.5l-4.6,1
	c-0.9,0.2-1.6,0.8-2,1.6c-0.4,1-1.4,1.7-2.5,1.7h-1.6c-0.6,0-1.2,0.1-1.7,0.3l-1.8,0.8c-0.2,0.1-0.4,0.3-0.5,0.5
	c-0.2,0.5-0.7,0.7-1.2,0.5l-1.1-0.5c-0.6-0.3-1.3-0.2-1.9,0.2l-2,1.3c-0.6,0.4-1.4,0.7-2.2,0.7h-1.7c-0.3,0-0.6,0.2-0.8,0.4
	l-0.5,0.8c-0.2,0.3-0.7,0.3-0.8-0.1c-0.1-0.2-0.3-0.3-0.5-0.3l-5.8,0.4c-0.4,0-0.8-0.2-1-0.5c-0.3-0.4-0.8-0.6-1.3-0.5l-1.4,0.5
	c-0.7,0.2-1,1.2-0.4,1.7c0.3,0.3,0.4,0.8,0.2,1.2l-0.1,0.2c-0.4,1,0.4,2,1.4,1.9l0.7-0.1c0.2,0,0.4,0.1,0.5,0.3
	c0.1,0.3,0,0.6-0.3,0.7l-0.9,0.3c-0.6,0.2-1,0.8-0.9,1.5l0,0.2c0.1,0.7,0.7,1.3,1.4,1.3l2.8,0.3c0.4,0,0.8,0.2,1.2,0.5l0.8,0.6
	c0.7,0.6,0.6,1.6-0.1,2.1c-0.2,0.2-0.5,0.3-0.8,0.3h-5c-0.9,0-1.7,0.3-2.3,1l0,0c-1.1,1.1-1.3,3-0.3,4.3l0.2,0.3
	c0.4,0.5,0.6,1.2,0.4,1.9c-0.1,0.7-0.6,1.3-1.2,1.6l-5.9,3.1c-0.2,0.1-0.3,0.3-0.3,0.6c0,0.3,0.2,0.5,0.4,0.6l1.2,0.4
	c0.6,0.2,1,0.7,1.1,1.3c0.1,0.7,0.7,1.2,1.4,1.3l1,0.1c0.7,0.1,1.4,0.6,1.7,1.3c0.3,0.6,0.8,1.1,1.5,1.2l0.8,0.2
	c2,0.5,3.2,2.6,2.6,4.5l-0.2,0.8c-0.5,1.5-1.7,2.6-3.2,2.9l-2.8,0.6c-0.8,0.2-1.5,0-2.2-0.3l-0.4-0.2c-1.3-0.7-3-0.3-3.8,1.1
	l-0.3,0.5c-0.3,0.6-1,1-1.6,1H302c-0.4,0-0.7-0.3-0.8-0.6l-0.2-0.6c-0.1-0.2,0.1-0.4,0.3-0.4h-2.2c-1.6,0-3-0.9-3.8-2.2l-0.8-1.4
	c-0.4-0.7-1-1.2-1.8-1.4c-0.3-0.1-0.7-0.1-1.1-0.1l-1.6,0.2c-0.6,0.1-1.1,0.3-1.6,0.6l-0.6,0.4c-1,0.7-2.4,0.7-3.4-0.1l-0.1-0.1
	c-0.5-0.4-1.2-0.6-1.8-0.5l-1.6,0.2c-0.2,0-0.4,0.2-0.4,0.4c0,0.3-0.2,0.5-0.5,0.4l-1.3-0.2c-0.5-0.1-1,0.1-1.3,0.4l-2.6,2.4
	c-1.2,1.1-3,1.4-4.5,0.8l-0.5-0.2c-0.8-0.3-1.6-0.9-2-1.7l-1.2-1.8c-0.2-0.2-0.4-0.4-0.7-0.4c-0.5,0-0.8,0.4-0.8,0.8v3.8
	c0,0.3-0.2,0.6-0.5,0.7c-0.4,0.1-0.9-0.1-1-0.5l-0.5-2c-0.1-0.4-0.3-0.8-0.6-1.1l-5.2-6.1c-0.8-1-2-1.5-3.3-1.5h-3.6
	c-1.1,0-2.1-0.6-2.6-1.5l-0.5-0.8c-0.2-0.4-0.7-0.7-1.1-0.7c-0.1,0-0.1,0-0.2,0l-1.6,0.3c-0.5,0.1-1,0.4-1.2,1l-0.6,1.4
	c-0.2,0.4-0.7,0.5-1,0.2c-0.1-0.1-0.3-0.2-0.5-0.2l-0.7,0.1c-0.6,0.1-1.2-0.3-1.4-0.9c-0.1-0.6-0.6-1-1.2-0.9l-2.1,0.2
	c-1,0.1-1.9,0.6-2.5,1.5l-1.3,1.9c-0.5,0.7-1.1,1.2-1.9,1.5l-3.7,1.5c-1,0.4-1.7,1.2-2,2.3c-0.3,0.9-0.8,1.6-1.6,2.1l-2.4,1.3
	c-0.1,0.1-0.2,0.1-0.4,0.1c-0.8,0.2-1.3,1.1-1.1,1.9l1.2,4.1c0.3,1,0,2.1-0.8,2.8c-1.2,1-2.9,0.8-3.9-0.4l-2.2-2.9
	c-1.2-1.5-3.6-1-4,0.9c-0.1,0.6-0.5,1.1-0.9,1.4l-0.5,0.3c-0.8,0.6-1.4,1.4-1.6,2.4l-0.8,3.8c-0.1,0.7,0,1.4,0.5,1.9
	c0.8,1,0.7,2.4-0.3,3.2l-0.2,0.2c-0.4,0.3-0.7,0.8-0.8,1.3l-0.8,2.8c-0.4,1.4,0.4,2.8,1.7,3.3c0.9,0.3,1.5,1,1.8,1.9l0.9,3.6
	c0,0.1,0.1,0.2,0.1,0.2l0.6,0.9c0.2,0.2,0.6,0.1,0.6-0.2c0-0.2,0.2-0.3,0.4-0.3l4.3,0.6c1.1,0.1,2.1,0.7,2.8,1.6l1.2,1.6
	c0.2,0.3,0.4,0.7,0.6,1l1.8,4.6c0.5,1.3-0.4,2.6-1.8,2.6h-0.7c-0.5,0-0.9,0.3-1,0.8c-0.1,0.5,0.2,1.1,0.7,1.2l0.2,0.1
	c0.1,0,0.2,0.1,0.4,0.2l0.9,0.6c1,0.7,0.7,2.2-0.5,2.5c-0.3,0.1-0.6,0.3-0.8,0.5l-0.6,0.9c-1.1,1.5-3.4,1.2-4.1-0.5l-0.3-0.6
	c-0.2-0.4-0.5-0.6-0.9-0.7l-0.3,0c-0.8-0.1-1.4,0.8-1,1.5c0.1,0.2,0.2,0.4,0.1,0.7l-0.7,4c-0.1,0.3-0.4,0.5-0.7,0.3
	c-0.3-0.2-0.7,0-0.7,0.4l-0.3,3.7c0,0.4-0.2,0.9-0.4,1.2l-2.8,4.2c-1.1,1.7-0.9,4,0.5,5.4l1.1,1.1c0.2,0.2,0.4,0.5,0.5,0.7l2.1,4.9
	c0.1,0.2,0.4,0.2,0.5,0c0.1-0.3,0.5-0.2,0.5,0.1l-0.3,5.8c0,0.2,0,0.4,0.1,0.5l5.9,11.3c0.5,0.8,0.5,1.8,0,2.6l-1.8,2.5
	c-0.8,1.1-2.1,1.7-3.4,1.6c-1.3-0.1-2.4-1-3-2.2c-0.3-0.7-0.8-1.3-1.4-1.6l-4.6-2.8l-4-2.7c-0.7-0.5-1.1-1.3-1.1-2.1
	c0-1-0.6-1.9-1.5-2.3l-2-0.9c-0.3-0.1-0.5-0.2-0.8-0.3l-2.3-0.5c-0.7-0.2-1.5-0.1-2.2,0.1l-2.4,0.7c-1.3,0.4-2.7,0.2-3.8-0.6
	l-5.4-3.9c-0.7-0.5-1.5-0.8-2.3-0.8l-7-0.3c-0.4,0-0.9-0.1-1.3-0.3l-6.5-2.4c-0.6-0.2-1.3-0.3-2-0.2l-3.9,0.5
	c-1.2,0.2-2.5-0.2-3.4-1.1l-6.7-6l-7.4-5c-0.5-0.3-1.1-0.5-1.6-0.3c-0.8,0.2-1.6-0.1-2.1-0.7l-1.2-1.4c-0.3-0.4-0.9-0.4-1.4-0.4
	c-0.1,0-0.3,0-0.4,0l-4.2-0.5c-1-0.1-2,0.1-2.9,0.7l-8.6,5.7c-1,0.7-2.4,0.8-3.5,0.4c-1.5-0.6-2.4-2-2.4-3.6v-1.6
	c0-1.1-0.6-2.1-1.7-2.6c-2.1-1-2.2-3.8-0.3-5l3.9-2.5c0.1-0.1,0.2-0.1,0.3-0.2c0.1-0.1,0.2-0.2,0.4-0.3l1-0.5
	c0.6-0.3,1.2-0.2,1.7,0.3c0.3,0.3,0.6,0.4,1,0.3l1.4-0.2c0.7-0.1,1.2,0.6,0.9,1.2c-0.2,0.4,0,0.9,0.5,1.1l1.4,0.6
	c0.6,0.2,1,0.7,1.2,1.2l0.2,0.5c0.7,1.5,2.3,2.4,3.9,2.1l4.4-0.7c0.4-0.1,0.7-0.4,1-0.8c0,0,0,0,0,0c0.3-0.4,0.8-0.7,1.3-0.7h1.2
	c1.4,0,2.7-0.7,3.4-1.9l2.3-3.8c0.2-0.4,0.6-0.7,1.1-0.9c1.5-0.5,1.9-2.4,0.6-3.4l-2.2-1.7c-0.5-0.4-0.7-1.1-0.4-1.6
	c0.2-0.5,0.7-0.7,1.2-0.7h3.3c0.5,0,0.9-0.5,0.8-1c-0.1-0.4,0.1-0.8,0.5-0.9l4.6-1.4c0.8-0.2,1.1-1.1,0.7-1.8
	c-0.3-0.5-0.8-0.7-1.4-0.6l-2.3,0.6c-1.7,0.5-3.4-0.7-3.6-2.5c-0.1-0.6,0.1-1.2,0.4-1.8l0.2-0.3c0.4-0.7,1.1-1.2,1.8-1.5l0.3-0.1
	c0.4-0.2,0.8-0.4,1.1-0.8l0.7-0.8c0.6-0.7,1.6-0.8,2.3-0.3c0.3,0.2,0.6,0.3,1,0.3h1c1.6,0,3.1-1.1,3.5-2.6l0.7-2.6
	c0.1-0.4-0.1-0.9-0.5-1c-0.3-0.1-0.5-0.4-0.6-0.7l-0.3-2.3c-0.1-0.6,0.2-1.2,0.8-1.5l0.9-0.5c0.6-0.3,0.6-1.2,0.1-1.6l-0.1-0.1
	c-0.6-0.5-0.4-1.4,0.4-1.6c0.3,0,0.6-0.3,0.7-0.5l0.3-0.9c0.2-0.5,0.2-1.1,0.1-1.6l-0.5-1.8c-0.1-0.2,0-0.4,0.1-0.6
	c0.3-0.3,0.2-0.8-0.2-1l-5.9-2.6c-0.7-0.3-1.4-0.4-2.2-0.3c-0.9,0.2-1.9,0-2.7-0.5l-1.3-0.8c-0.6-0.4-1.3-0.5-2-0.4
	c-0.9,0.2-1.9-0.2-2.5-0.9l-2.3-2.5c-1.1-1.2-2.8-1.7-4.4-1.2l-2.5,0.8c-0.3,0.1-0.7,0.2-1,0.2h-0.1c-0.7,0-1.4-0.2-1.9-0.6
	c-0.6-0.4-1.2-0.6-1.9-0.6h-1.4c-1.1,0-2.1-0.6-2.7-1.5c-0.2-0.4-0.4-0.9-0.4-1.3l-0.3-2.9c-0.1-0.7-0.3-1.4-0.7-2l-0.6-0.9
	c-0.5-0.8-1.5-1.1-2.4-1c-0.4,0.1-0.8,0.1-1.2-0.1l-1.7-0.6c-1-0.3-1.7-1.1-2-2.1l-0.4-1.5c-0.2-0.7,0.2-1.5,0.8-1.8l0.1,0
	c0.5-0.2,0.8-0.7,0.8-1.2c0-0.3-0.1-0.6-0.3-0.8l-3.1-3.9c-0.9-1.1-2.2-1.7-3.5-1.6l-6.1,0.3c-1,0-1.9,0.4-2.6,1.1l-1.3,1.3
	c-0.6,0.6-1.6,0.7-2.3,0.2c-0.3-0.2-0.6-0.6-0.7-1l-1.9-8.6c-0.1-0.4-0.2-0.7-0.4-1l-0.6-0.9c-0.5-0.7-0.4-1.6,0.2-2.2
	c0.4-0.4,1.1-0.6,1.7-0.5l2.1,0.5c1.3,0.3,2.7,0,3.7-0.8l2.1-1.7c0.3-0.3,0.5-0.7,0.5-1.1v-0.3c0-0.4-0.3-0.8-0.7-1
	c-0.4-0.1-0.6-0.4-0.7-0.8l-0.1-0.4c-0.1-0.7-0.7-1.2-1.3-1.4l-0.3-0.1c-0.2,0-0.4-0.1-0.6-0.1h-1c-1.2,0-2.2-0.9-2.4-2.1
	c-0.1-0.6-0.4-1.1-0.8-1.5l-1.2-1c-0.4-0.3-0.7-0.7-1-1.2l-3.1-5.7c-0.5-0.9-0.6-1.9-0.5-2.8l0.4-2c0.1-0.8,0.1-1.6-0.2-2.3l0-0.1
	c-0.3-0.6-0.3-1.3-0.3-2c0.2-1.5-0.5-2.9-1.7-3.8l-2.4-1.6c-0.8-0.5-1.7-0.7-2.6-0.3l-2.8,1c-0.8,0.3-1.6-0.4-1.5-1.2
	c0.1-0.4-0.1-0.8-0.4-1.1l-0.7-0.5c-0.3-0.2-0.7-0.4-1.1-0.5l-6-1.1c-0.4-0.1-0.8-0.3-1-0.7c-0.1-0.2-0.1-0.3-0.1-0.5l-0.4-4.6
	c0-0.5-0.2-1-0.4-1.4l-1.1-2.5c-0.2-0.5-0.6-0.9-1-1.1c-0.9-0.5-1.3-1.5-1.2-2.6l0.3-1.6c0.2-1.2-0.1-2.3-0.8-3.3l-1.3-1.7
	c-0.1-0.2-0.2-0.3-0.3-0.5c-0.2-0.6-0.1-1.3,0.4-1.8l1-1.1c0.6-0.7,0.8-1.6,0.7-2.4l0-0.2c-0.1-0.7-0.5-1.2-1-1.6
	c-0.6-0.4-0.9-1.1-1-1.8l-0.2-1.6c0-0.4-0.4-0.7-0.8-0.7c-0.4,0-0.7-0.2-0.8-0.6l-0.9-3.2c-0.6-2.2,0.6-4.5,2.8-5.2l1-0.3
	c1-0.3,1.8-1,2.3-1.9l1.5-2.5c0.5-0.8,0.7-1.7,0.6-2.6l0-0.3c-0.2-1.6,0.6-3.1,1.9-4l3.4-2.3c0.6-0.4,1.2-0.6,1.9-0.5l3,0.1
	c1.7,0.1,2.6-1.9,1.5-3.2c-0.3-0.3-0.6-0.5-1-0.6l-8.4-1.9c-0.2-0.1-0.4-0.2-0.5-0.4l-0.6-1.6c-0.1-0.3,0.3-0.6,0.6-0.4
	c0.2,0.2,0.6,0.1,0.6-0.2v-2c0-0.7-0.7-1.3-1.4-1.2l-0.6,0.1c-1.7,0.3-2.7-1.8-1.5-3l12.9-12c0.2-0.2,0.5-0.5,0.6-0.7l10.5-15.6
	c0.5-0.7,0.7-1.5,0.7-2.4v-3.1c0-1-0.4-2-1-2.8l-3.7-4.4l-2.7-3.9c-0.7-1-0.9-2.3-0.6-3.6l1.4-5.2c0.4-1.4,0-2.9-0.9-4l-1.2-1.3
	c-0.7-0.8-1.1-1.8-1.1-2.9v-2.6c0-0.8-0.5-1.4-1.3-1.5c-0.7-0.1-1.3-0.8-1.3-1.5v-5.8c0-0.4,0.1-0.8,0.2-1.1l2.1-7.6
	c0.2-0.8,0.2-1.6-0.1-2.4l-5.9-18.5c-0.3-1.1-0.3-2.2,0.2-3.2l4.7-9.4c0.6-1.2,0.6-2.6,0-3.8l-3.9-7.7c-0.2-0.4-0.5-0.8-0.8-1.1
	l-4.1-4.1c-0.9-0.9-1.4-2.1-1.2-3.4l0.6-7.1c0-0.2-0.1-0.4-0.3-0.5c-0.3-0.1-0.3-0.5-0.1-0.7l10.3-10.3c0.5-0.5,0.8-1.1,0.9-1.8
	l0.3-1.5c0.2-1.2,1.4-1.9,2.5-1.6l0.8,0.2c0.9,0.2,1.7-0.4,1.7-1.3c0-1,1-1.6,1.9-1.3l2.6,1.1c0.8,0.3,1.7-0.1,1.9-0.9l0.3-0.9
	c0.1-0.3,0.4-0.4,0.7-0.4c0.4,0.1,0.7-0.2,0.7-0.5l-0.1-1c-0.1-0.9,0.8-1.6,1.6-1.2l5.8,2.7c0.9,0.4,1.3,1.5,0.9,2.4
	c-0.5,0.9-1.7,1.3-2.5,0.7l-1.9-1.1c-1-0.6-2.4-0.1-2.8,1c-0.3,0.9,0.1,1.9,1,2.3l5.3,2.5c0.3,0.1,0.4,0.4,0.3,0.7
	c-0.1,0.6,0.5,1,1,0.6l0.1-0.1c0.3-0.3,0.8-0.2,1,0.2l0.8,1.6c0.3,0.7,1,1.1,1.8,1.2l16,0.7c1,0,2,0.5,2.8,1.2l17.8,17.1
	c0.4,0.4,1,0.8,1.6,1l9.2,3.2c0.7,0.2,1.3,0.7,1.8,1.2l6.5,7.5c0.6,0.7,0.9,1.5,1,2.3l0.6,5.8c0.1,0.7,0.4,1.2,1,1.6
	c0.7,0.4,1.1,1.3,1,2.2l-0.8,4.5c-0.2,0.9-0.6,1.7-1.2,2.3l-7.4,7.4c-0.4,0.4-0.8,0.7-1.3,0.9l-6.9,3c-0.9,0.4-1.8,0.4-2.7,0.2
	l-30.5-7.8c-0.9-0.2-1.6-1-1.7-1.9c-0.1-1.1-1-1.9-2.1-2l-3.4-0.2c-1-0.1-1.9-0.5-2.7-1.2l-6.1-5.7c-0.6-0.5-1.4-0.7-2.1-0.3
	c-1.1,0.6-1.4,2-0.5,2.9l18.3,19c0.9,0.9,1.3,2.1,1.2,3.4l-0.5,5.5c-0.1,0.7-0.4,1.4-1,1.9c-1,0.8-1.3,2.2-0.7,3.4l2.5,5
	c0.2,0.5,0.4,1,0.4,1.5l0.3,3.2c0,0.4-0.1,0.9-0.3,1.2c-0.7,1.2,0,2.7,1.3,3.1l3,0.7c1,0.2,1.9,0.8,2.5,1.7l2.6,3.6
	c0.5,0.7,1.2,1.2,2,1.5l7.7,2.9c0.9,0.3,1.9,0.4,2.8,0.1c2.1-0.7,3.3-2.9,2.7-5l-0.9-3.4c-0.4-1.4-1.9-2.2-3.3-1.7
	c-1,0.4-2.2,0.1-2.8-0.8l-3.2-4c-0.3-0.3-0.5-0.7-0.6-1.1l-0.4-1c-0.4-1.1-0.3-2.4,0.3-3.5c1.1-1.9,3.6-2.6,5.5-1.5l5.7,3.2
	c0.7,0.4,0.7,1.3,0,1.7c-0.4,0.2-0.6,0.7-0.4,1.2l0,0.1c0.3,0.8,1.3,1,1.8,0.4l0.6-0.8c0.4-0.5,1.1-0.7,1.7-0.5l7.4,2.5
	c3.6,1.2,6.8-2.5,5.2-5.9l-2.7-5.6c-0.2-0.5-0.4-1-0.4-1.5l-0.2-2.3c-0.1-1.5,0.6-3,1.9-3.9l9.3-6.3c0.4-0.3,0.8-0.6,1.1-1.1
	l3.8-5.3c1.2-1.7,3.6-2.3,5.5-1.3l5.7,3c0.5,0.3,0.8,0.9,0.6,1.4l-0.2,0.5c-0.3,0.8,0.6,1.6,1.4,1.1c0.5-0.3,1.1-0.1,1.3,0.4
	c0.5,0.9,1.9,0.5,1.9-0.5l-0.2-3.1c0-0.2,0-0.4,0.1-0.5l2.8-10.1c0.4-1.3,0.1-2.7-0.7-3.7l-3-3.9c-0.8-1-1.1-2.4-0.7-3.7l1.5-5.6
	c0.1-0.3,0.1-0.6,0.1-0.9l0.4-9.9c0-0.7-0.2-1.5-0.7-2c-1.8-2.2,0.2-5.5,3-4.9l8.6,2c1,0.2,1.9,0.8,2.5,1.7l2.9,4.1
	c0.3,0.4,0.5,0.8,0.6,1.3l0.6,2.2c0.7,2.4-0.8,4.9-3.2,5.4l-3.3,0.7c-1.3,0.3-2.4,1.2-3,2.4L192,265c-0.6,1.3-0.5,2.8,0.3,4.1
	l5.1,8.1c0.6,0.9,1.6,1.4,2.7,1.3l1-0.1c0.9-0.1,1.7,0.5,1.9,1.4c0.3,1.3,1.7,1.8,2.8,1l4.3-3.4c1-0.8,1.6-2,1.6-3.4v-1.1
	c0-0.5,0.1-0.9,0.2-1.4l1.9-5.7c0.3-0.9,0.9-1.7,1.7-2.2l25.3-17c0.5-0.4,1.2-0.6,1.8-0.7l1.4-0.2c0.6-0.1,1.2,0.2,1.6,0.7l0.1,0.2
	c0.8,1,2.4,0.8,2.8-0.5l0.1-0.2c0.1-0.4,0-0.9-0.3-1.3c-0.4-0.4-0.5-1.1-0.1-1.6l0.6-0.8c0.7-0.9,2-0.9,2.7,0l0.2,0.3
	c0.3,0.5,1,0.6,1.5,0.4c0.5-0.2,0.7-0.8,0.6-1.3l-0.1-0.8c-0.1-0.6,0-1.1,0.3-1.6l0.7-1.1c0.1-0.2,0.3-0.3,0.4-0.3l2.8-0.7
	c0.5-0.1,0.8,0.6,0.3,0.9c-0.3,0.2-0.4,0.6,0,0.8l1,0.5c0.4,0.2,0.6,0.7,0.5,1.2l-0.8,2.7c-0.2,0.5-0.2,1-0.2,1.6l0.2,2.6
	c0.1,1.4,0.9,2.6,2,3.3l0.3,0.2c1.9,1.2,4.4,0.7,5.7-1.2l2.3-3.3c0.9-1.2,2.3-1.9,3.8-1.8l9.9,0.6c1.2,0.1,2.3-0.3,3.2-1.1l6.6-6.1
	c1.9-1.8,5-1.4,6.4,0.7l0.5,0.7c0.9,1.3,1,2.9,0.3,4.3l-0.6,1.3c-0.5,0.9-0.3,2.1,0.5,2.8c1,1,2.5,1,3.5,0l0.5-0.5
	c0.7-0.7,1.1-1.8,0.9-2.8l0-0.2c-0.3-1.5,0.4-2.9,1.7-3.7l3.6-2.1c1-0.6,1.7-1.5,2-2.7l0.5-1.9c0.2-1,0.1-2-0.3-3l-2.9-5.8
	c-0.9-1.8-0.4-4,1.2-5.3l2-1.6c1.1-0.9,2.5-1.2,3.9-0.8l19.5,5.6c0.4,0.1,0.8,0.3,1.2,0.6l21.5,14.6c0.4,0.3,0.8,0.7,1.1,1.1
	l4.3,6.1c1.9,2.7,6,2.3,7.4-0.6l1.7-3.6c0.9-1.9,0.2-4.3-1.6-5.4l-0.3-0.2c-0.8-0.5-1.4-1.3-1.7-2.1l-2.3-6.2
	c-0.1-0.3-0.2-0.7-0.1-1.1c0.2-1.1-0.5-2.2-1.7-2.4l-4.3-0.9c-2-0.4-3.5-2.3-3.4-4.4l0.2-4.5c0-0.8,0.5-1.5,1.3-1.9
	c1-0.4,1.5-1.5,1.2-2.6l-0.4-1.5c-0.2-0.6-0.2-1.3-0.1-2l1.3-5.7c0.4-1.5-0.5-3.1-2-3.6l-1-0.3c-1.4-0.5-2-2.1-1.2-3.4l1.2-1.8
	c0.5-0.7-0.1-1.7-0.9-1.7c-0.7,0-1.2-0.7-1.1-1.4l0.7-3.2c0.2-0.7,0.5-1.3,1-1.8l10.3-10.3c0.6-0.6,1-1.4,1.2-2.2l3.5-18.4
	c0.1-0.3,0.1-0.5,0.2-0.8l1.9-4.8c0.8-2,2.9-3.1,4.9-2.6l17.7,4c1.8,0.4,3.2,2,3.3,3.9l0.6,8.2c0,0.7-0.1,1.3-0.3,1.9l-5.9,14.1
	c-0.6,1.5-0.3,3.2,0.7,4.5l3.8,4.4c0.5,0.6,0.9,1.3,1,2.1l1,6.1c0,0.2,0.1,0.5,0.1,0.7v8.5c0,0.9-0.3,1.8-0.9,2.6l-0.5,0.7
	c-0.8,1-1,2.3-0.8,3.5l1.5,6.8c0.1,0.4,0.1,0.9,0.1,1.4l-1.5,15.1c-0.1,1.1,0.2,2.2,0.9,3.1l5.2,6.4c0.6,0.8,1,1.7,1,2.7v1.5
	c0,0.6-0.1,1.2-0.3,1.7l-1.9,4.4c-0.2,0.5-0.3,1.1-0.3,1.7v5.5c0,1.1-0.5,2.2-1.3,3l-1.2,1.2c-0.3,0.3-0.6,0.8-0.8,1.2l-3,6.4
	c-0.3,0.7-1,1.1-1.7,1l-0.9-0.1c-1.3-0.1-2.1,1.5-1.1,2.4c0.7,0.7,0.5,2-0.5,2.4l-8.8,3.4c-0.2,0.1-0.4,0.1-0.6,0.1l-2.9-0.5
	c-0.5-0.1-0.8,0.5-0.4,0.8c0.1,0.1,0.2,0.2,0.2,0.3l0.4,3.4c0.2,1.9,1.7,3.4,3.6,3.7l11,1.6c0.2,0,0.5,0,0.7-0.1
	c0.6-0.2,1-0.7,1.1-1.3l0.4-3.1c0.2-1.2,0.9-2.3,1.9-3l5.7-3.7c0.8-0.5,1.4-1.3,1.7-2.1l2.7-7.3c0.2-0.5,0.5-1,0.8-1.4l4.5-5.2
	c0.6-0.7,1-1.6,1-2.5l0.2-3.4c0.1-0.7-0.1-1.5-0.4-2.1l-2.7-5.6c-0.4-0.9-0.5-2-0.2-3l1-3.5c0.4-1.4,1.5-2.5,2.9-2.9l9.1-2.8
	c2.3-0.7,4.6,0.6,5.3,2.8l0.2,0.6c0.2,0.6,0.5,1.1,0.9,1.6l2,2.2c0.8,0.9,1.2,2.1,1.1,3.3l-0.1,1.2c-0.1,0.8,0.1,1.6,0.5,2.2
	c0.4,0.7,0.6,1.6,0.5,2.4L436,259c-0.2,1.3,0.3,2.7,1.2,3.6l1.8,1.8c0.3,0.3,0.8,0.5,1.2,0.5c1.7-0.1,2.1-2.5,0.5-3.1l-1.6-0.6
	c-0.8-0.3-1.3-1.1-1.3-2l0.2-3.9c0.1-1.2,0.7-2.3,1.6-3.1l0.5-0.4c1.4-1.1,1.9-3,1.4-4.7l-2.5-7.7c-0.3-0.9-0.9-1.8-1.8-2.3
	l-8.6-5.5c-1.3-0.8-2.9-0.9-4.3-0.2l-3.4,1.8c-1,0.5-2.2,0.6-3.4,0.3l-4.8-1.6c-2.1-0.7-3.3-2.9-2.8-5l0.2-0.7
	c0.2-0.7,0.1-1.5-0.1-2.2l-1.9-6.3c-0.2-0.8-0.2-1.6,0-2.4l4.4-15.7c0.3-1,0.2-2-0.2-3l-8-17.1c-0.5-1-0.5-2.2-0.2-3.2l1.6-4.5
	c0.3-0.7,0.7-1.4,1.3-1.9l9.7-8c1.1-0.9,1.7-2.4,1.5-3.8l-1.3-11c-0.1-0.7,0.4-1.3,1.1-1.4c0.6-0.1,1.1,0.2,1.4,0.7l3.4,6.1
	c0.2,0.4,0.1,1-0.3,1.3c-0.3,0.2-0.5,0.6-0.4,1l0.9,4.4c0.2,0.9,0.1,1.8-0.3,2.6l-1.8,3.8c-0.4,0.9-0.5,1.8-0.3,2.8l1.7,7.5
	c0.1,0.3,0.1,0.6,0.1,0.9v2.6c0,0.5-0.3,0.9-0.8,1c-0.7,0.1-1,0.9-0.6,1.5l0.3,0.5c0.2,0.3,0.4,0.5,0.7,0.6l16.4,6.4
	c2.4,0.9,4.8-1.4,3.8-3.8l-0.5-1.4c-0.4-1.1-1.8-1.5-2.8-0.8c-0.6,0.5-1.5,0.5-2.1,0l-7.1-5.2c-0.8-0.6-1.3-1.4-1.6-2.3l-1.3-4.8
	c-0.2-0.9,0.2-1.8,1-2.1c0.9-0.4,1.9,0,2.3,0.8l1,2.1c0.7,1.4,2.3,2.1,3.8,1.7c0.5-0.1,1.1-0.4,1.5-0.8l3.1-2.9
	c1.3-1.2,0.9-3.3-0.7-3.9l-0.4-0.2c-0.8-0.3-1.3-1.2-1.1-2c0.1-0.7,0.6-1.2,1.3-1.5l11.1-3.7c1.3-0.4,2.6-0.2,3.7,0.5l9.1,6.1
	c0.5,0.3,0.9,0.7,1.2,1.2l3.6,5.4c0.7,1,1.8,1.7,3,1.9l6.7,0.8c2.6,0.3,4.3,3,3.6,5.5l-0.2,0.8c-0.2,0.8-0.7,1.5-1.3,2l-3,2.6
	c-1,0.9-1.6,2.1-1.5,3.4l0.3,8.6l-0.4,8.5c0,1.1,0.5,2.2,1.4,2.7l2.6,1.6c1.1,0.7,2.5-0.2,2.4-1.5c-0.1-0.7,0.3-1.3,0.9-1.6l1.3-0.6
	c1.2-0.6,2-1.9,2-3.3v-3.7c0-0.3,0-0.6-0.1-0.9l-2.7-12.6c-0.1-0.7-0.1-1.4,0.1-2.1l1.9-6.4c0.2-0.7,0.2-1.5,0.1-2.2l-0.6-2.7
	c-0.3-1.1-0.9-2.1-1.9-2.7l-5.8-3.6c-1-0.6-1.5-1.8-1.2-2.9c0-0.2,0.1-0.4,0.1-0.5c0-1.1-0.6-2.2-1.7-2.7l-6.9-3.3
	c-1.3-0.6-2.2-1.9-2.4-3.3l-0.4-3.3c-0.1-0.5,0-1.1,0.1-1.6l0.6-2.4c0.3-1.3,0-2.6-0.7-3.6l-3.1-4.2c-0.5-0.6-0.5-1.5-0.1-2.2
	l0.6-1.1c0.2-0.4,0.1-0.9-0.3-1.1c-0.5-0.2-0.6-0.9-0.2-1.3l2.2-2.2c0.5-0.5,0.6-1.4,0.1-1.9c-0.6-0.8-0.3-1.9,0.6-2.3l1.3-0.5
	c0.1-0.1,0.3-0.1,0.4-0.1l40.5-7.3c1.2-0.2,1.9-1.3,1.8-2.4l-0.1-0.6c-0.1-0.7,0.3-1.3,1-1.5c0.8-0.3,1.2-1.1,0.9-1.9l-1.1-2.8
	c-0.3-0.9-1-1.6-1.8-2l-1.2-0.6c-1.7-0.9-2.1-3.2-0.7-4.5c1.4-1.4,1-3.7-0.7-4.5l-1.6-0.8c-1-0.5-1.4-1.6-1-2.6
	c0.5-1.3,2.1-1.7,3.2-0.9l0.9,0.7c1.6,1.2,4,0.4,4.6-1.5l1.1-3.4c0.2-0.5,0.5-0.9,1-1.1l1.8-0.9c0.7-0.3,0.7-1.3,0-1.7
	c-0.9-0.4-0.6-1.8,0.4-1.8h2.8c0.5,0,0.9-0.2,1.2-0.5l8.2-9.7c0.5-0.6,1.1-1,1.8-1.3l29.7-10.8c0.6-0.2,1-0.7,1.1-1.3
	c0.3-1.2-0.7-2.4-1.9-2.3l-0.5,0c-0.9,0.1-1.7-0.6-1.7-1.5c0-0.8,0.6-1.4,1.3-1.5l19.5-2.7c0.6-0.1,1.3,0.1,1.8,0.4l0.7,0.4
	c0.6,0.4,0.9,1.2,0.6,2l-0.2,0.6c-0.6,1.4,1.1,2.7,2.3,1.7l0.1-0.1c0.3-0.3,0.7-0.4,1.1-0.3c0.6,0.2,1,0.7,1,1.4l0,0.2
	c-0.1,1.1,1,2,2.1,1.6l5.2-2.1c1.1-0.4,1.6-1.6,1.2-2.7c-0.3-0.9,0-1.9,0.7-2.4l3.4-2.5c1.7-1.2,4-1,5.5,0.4l2.1,2.1
	c1.3,1.3,3.4,0.6,3.8-1.2l0.2-1.2c0.2-0.9-0.1-1.9-0.8-2.6l-0.5-0.5c-2.4-2.4-1.1-6.5,2.3-7.1l8.3-1.4c0.8-0.1,1.3-0.8,1.3-1.5v-2
	c0-0.3,0.3-0.4,0.5-0.3c0.3,0.2,0.6-0.2,0.4-0.5l-2.6-3.8c-0.3-0.4-0.4-0.9-0.2-1.4l2.9-7.7c0.1-0.3,0.3-0.6,0.5-0.9l11.7-16.8
	c0.5-0.7,1.2-1.3,2.1-1.6l5.6-2c1.1-0.4,2.2-0.3,3.2,0.2l8.8,4.1c1,0.5,1.8,1.4,2.2,2.5l1.6,4.4c0.2,0.7,0.1,1.5-0.4,2l-4.9,4.9
	c-1,1,0.3,2.5,1.4,1.8c0.8-0.5,1.8,0.1,1.8,1v0.5c0,0.7,0.5,1.3,1.2,1.4l8.5,1.3c1.1,0.2,2,0.9,2.4,2c0.2,0.5,0.2,1.1,0.1,1.7
	l-0.9,3.4c-0.1,0.6-0.4,1.1-0.8,1.6l-2.8,3.5c-1.8,2.3-0.2,5.6,2.7,5.6c1.2,0,2.3-0.6,2.9-1.6l4-6.2c0.8-1.3,2.3-2,3.8-1.9l17.7,1
	c1,0.1,2,0.5,2.8,1.2l10.1,10.1c0.9,0.9,1.2,2.4,0.6,3.5l-0.3,0.5c-0.3,0.6-0.3,1.3,0,1.8l0.6,1c0.5,0.9,1.7,0.9,2.2,0
	c0.6-0.9,2-0.8,2.3,0.3l1.9,5.9c0.2,0.5,0.6,0.9,1.2,0.9c0.7,0,1.2,0.6,1.2,1.2v1.9c0,0.5-0.1,0.9-0.3,1.3l-1.8,3.9
	c-0.4,0.9-1.6,1.1-2.3,0.4l-0.5-0.5c-1-1-2.7,0.2-2.1,1.5c0.2,0.3,0.4,0.6,0.8,0.7l4.4,1.5c0.7,0.2,1,1.2,0.6,1.8
	c-0.2,0.3-0.3,0.6-0.2,1l0.7,2.9c0.3,1.1,0.1,2.3-0.5,3.3l-3.2,5.3c-0.3,0.6-0.8,1-1.4,1.4l-5.3,3.3c-0.4,0.2-0.5,0.8-0.2,1.1
	c0.4,0.5,0.1,1.1-0.5,1.3l-1.8,0.3c-0.9,0.2-1.6,1-1.6,1.9v0.5c0,1-0.6,1.9-1.5,2.4l-7.7,3.5c-0.7,0.3-1.3,0.8-1.8,1.5l-15.1,22.2
	c-0.8,1.2-2.3,2-3.8,1.9l-2.9-0.2c-1.5-0.1-2.9,0.6-3.7,1.8l-9,13.8c-0.5,0.8,0.5,1.8,1.3,1.2l0.1-0.1c0.2-0.2,0.5-0.2,0.8,0
	l1.3,0.7c0.5,0.3,1.1-0.4,0.6-0.8c-0.1-0.1-0.2-0.2-0.2-0.4V139c0-0.2,0-0.3,0.1-0.5c0.2-0.6,0.8-1,1.5-1l6.8,0.3
	c0.7,0,1.3-0.1,2-0.4l10.9-4.9c0.4-0.2,0.7-0.4,0.9-0.7l0.6-0.9c0.2-0.2,0.2-0.5,0-0.8c-0.4-0.6,0.4-1.4,1-0.9l1.2,0.9
	c0.3,0.3,0.8,0.3,1.2,0l6.7-4.8c1-0.7,1.2-2,0.5-2.9c-0.7-0.9-2-1.1-3-0.4l-1.4,1.1c-1.6,1.3-4,0.6-4.6-1.4
	c-0.3-0.9-0.1-1.9,0.5-2.6l1.1-1.4c1.3-1.7,3.7-2.1,5.5-1l1.9,1.2c0.3,0.2,0.6,0.2,0.9,0l2.6-1.9c0.3-0.2,0.6,0.1,0.4,0.4
	c0,0.1-0.1,0.1-0.1,0.2l0.2,1.4c0.2,1.4,1.2,2.7,2.5,3.1l4.7,1.5c1.3,0.4,2.7,0.1,3.6-0.8l0.7-0.7c0.2-0.2,0.3-0.4,0.3-0.7
	c0-1.1,1.6-1.4,2-0.4l1.8,4.7c0.1,0.2,0.1,0.5,0.1,0.8l-0.4,6.7c0,0.4,0.2,0.7,0.6,0.9l0,0c0.7,0.3,0.8,1.1,0.2,1.6l-0.1,0.1
	c-0.6,0.4-0.4,1.4,0.3,1.5c0.2,0,0.3,0,0.5,0l3-1.1c1.6-0.6,2-2.8,0.7-3.9c-1.3-1.2-0.9-3.3,0.8-3.9l11.3-3.9
	c0.8-0.3,1.6-0.3,2.4-0.1l20.2,5c1,0.2,1.2,1.6,0.2,2.1c-0.4,0.2-0.7,0.7-0.6,1.1l0.4,3.3c0.2,1.7,1.4,3.1,3,3.6l15.6,4.9
	c0.7,0.2,1.4,0.2,2,0.1l13.8-2.5c0.9-0.2,1.8-0.7,2.3-1.5c0.6-0.8,0.7-1.9,0.5-2.9l-1.4-5.2c-0.2-0.7-0.2-1.4-0.1-2l1.2-5.6
	c0.2-0.8,1-1.3,1.8-1.1c0.8,0.2,1.6-0.3,1.8-1.1l0-0.2c0.2-1.1,1.4-1.6,2.4-1.1l16.9,9.3c1.2,0.7,2.7,0.3,3.5-0.8
	c0.7-0.9,1.9-1.3,3-1l5.9,1.7c0.8,0.2,1.5,0.7,2.1,1.3l8.1,9.4c0.9,1,1.2,2.4,0.9,3.7l-1.4,6.8c-0.2,0.9-0.1,1.9,0.4,2.8l1.3,2.5
	c0.4,0.8,0.5,1.8,0.4,2.7l-0.5,3c0,0.2,0,0.4,0.1,0.6c0.2,0.3,0.1,0.8-0.2,1.1l-4.4,4.7c-0.7,0.8-1.1,1.9-1,3l0.5,4
	c0.1,0.5,0.6,0.8,1.1,0.6c0.4-0.2,0.9,0,1.1,0.4l5.7,12.2c0.5,1.1,1.4,1.9,2.5,2.2l5,1.7c0.6,0.2,1.2,0.7,1.4,1.3
	c0.9,1.9,3.5,1.9,4.4,0.1l2.8-5.7c0.3-0.6,0.5-1.2,0.5-1.9v-6.6c0-0.6,0.1-1.3,0.4-1.9l1-2.1c1.5-3.2,6-3.2,7.7-0.1l2,3.9
	c0.6,1.1,1.6,1.9,2.8,2.2l3.3,0.8c2.1,0.5,4.2-0.8,4.8-2.9c0.4-1.6,1.8-2.8,3.5-2.9l0.1,0c0.9-0.1,1.9,0.1,2.6,0.6l14.2,9.1
	c1.6,1,3.6,0.9,5-0.3l8-6.4c0.5-0.4,1.1-0.5,1.6-0.2c1.3,0.5,2.6-0.7,2.2-2.1l-0.9-2.5c-0.3-0.8-0.2-1.8,0.3-2.5l0.1-0.2
	c0.5-0.8,0.7-1.7,0.4-2.6l-0.3-1.1c-0.4-1.4,0-2.8,0.9-3.9l7.9-9.2c1-1.2,1.2-2.9,0.5-4.2l-0.5-0.9c-0.5-0.9-0.3-2,0.4-2.7
	c0.6-0.6,1.4-0.8,2.2-0.6l61.1,14.4c0.6,0.2,1.2,0.5,1.8,0.9l0.9,0.7c0.6,0.5,1,1.2,1.2,2l0.7,3.1c0.3,1.3-0.9,2.5-2.3,2.1
	c-0.8-0.2-1.6,0.1-2,0.8L983,171c-1.1,1.8-0.1,4,2,4.4l3.7,0.7c1,0.2,1.9,0.7,2.5,1.5l1.3,1.6c0.9,1.1,2.4,1.7,3.9,1.5l1.8-0.2
	c1.4-0.2,2.9,0.4,3.8,1.4l2.2,2.6c1.1,1.2,1.1,3.1,0.1,4.4c-1.2,1.6-0.8,3.8,0.8,4.9l1,0.7c1,0.7,2.3,0.9,3.5,0.6l13.8-3.6
	c0.4-0.1,0.8-0.1,1.2-0.1l28.8,0.4c1.4,0,2.7,0.7,3.5,1.9l6.3,9.2c0.4,0.6,0.7,1.3,0.7,2l0.2,2.4c0.1,0.5,0,1-0.1,1.6l-1.4,5.2
	c-0.6,2,0.4,4.1,2.3,5l7.9,3.7c0.5,0.2,0.8,0.7,0.8,1.3c0,1.2,1.4,1.8,2.3,1.1l5.7-4.6c0.6-0.5,1.4-0.8,2.2-0.9l9.4-1
	c0.9-0.1,1.8,0.1,2.5,0.5l5.8,3.3c0.4,0.2,0.9,0.4,1.4,0.5l11,1.7c1.2,0.2,2.4-0.1,3.4-0.9l2.8-2.3c1.6-1.3,4-1,5.1,0.8
	c0.3,0.4,0.5,0.9,0.5,1.4l0.9,5.4c0.2,1,0.7,1.9,1.5,2.6l8,6.6c1.6,1.3,3.8,1.3,5.4,0l4-3.2c1.4-1.1,1.9-3,1.4-4.7l-2.2-6.5
	c-0.2-0.6-0.7-1-1.3-1c-1.2-0.1-1.8-1.6-1-2.5l0.3-0.3c0.3-0.3,0.4-0.7,0.4-1.1v-3.2c0-1.3,0.8-2.4,1.9-3c0.7-0.3,1.4-0.3,2.1-0.1
	l16.3,4.6c0.4,0.1,0.8,0.2,1.3,0.2l20.4-0.4c0.8,0,1.6,0.2,2.2,0.6l15.7,9c0.2,0.1,0.4,0.3,0.7,0.5l11.3,9.7
	c0.3,0.2,0.6,0.4,0.9,0.6l2.1,1l4.1,1.8c1.2,0.5,2.1,1.5,2.4,2.8l0.2,0.7c0.3,1.3,1.3,2.3,2.5,2.7l0.1,0c1.1,0.4,2,1.2,2.3,2.3
	c0.4,1.3,1.6,2.2,2.9,2.5l2.1,0.4c0.6,0.1,1.1,0.3,1.6,0.6l1.8,1.1c0.6,0.4,1,0.9,1.1,1.6l0.1,0.6c0.1,0.3,0,0.6-0.2,0.9
	c-0.5,0.6-0.2,1.5,0.6,1.7l3.2,0.8c0.9,0.2,1.2,1.4,0.6,2c-0.5,0.5-0.4,1.4,0.2,1.9l2.8,1.9c0.9,0.6,2-0.5,1.4-1.4
	c-0.5-0.7,0.1-1.6,1-1.6l1.1,0.1c0.4,0,0.8,0.3,1.1,0.6l3.3,4.7c0.3,0.4,0.2,1-0.2,1.3c-0.3,0.2-0.5,0.6-0.4,0.9l2.1,9.8
	c0.2,1,0.8,1.9,1.6,2.5l4,3.1c0.2,0.1,0.3,0.3,0.2,0.6c-0.1,0.7,0.8,0.9,1.1,0.4l0.3-0.5c0.2-0.4,0-0.8-0.3-1l-1.4-0.7
	c-0.8-0.4-1.3-1.3-1.2-2.2l0.3-4.6c0-0.2-0.1-0.4-0.3-0.5c-0.5-0.3-0.2-1.1,0.4-1l1.4,0.2c0.4,0.1,0.8-0.2,0.9-0.5l0.1-0.4
	c0.3-0.8,1.2-1.1,1.9-0.7l1,0.6c0.7,0.4,0.9,1.4,0.3,2l-0.2,0.2c-0.2,0.2-0.3,0.6-0.2,0.9c0.2,0.7,1.3,0.8,1.6,0.1l0.2-0.4
	c0.2-0.4,0.5-0.6,0.9-0.6l8.5,0.3c1.3,0,2.4,0.6,3.2,1.6l7.7,9.8c0.3,0.4,0.4,0.9,0.2,1.3c-0.3,0.8,0.1,1.6,0.9,1.8l0.6,0.1
	c1.7,0.4,2,2.7,0.4,3.5l-1.2,0.6c-0.8,0.4-1.3,1.1-1.3,1.9l-0.1,1.3c-0.1,1.4-1.8,2.2-2.9,1.3l-0.8-0.6c-0.9-0.7-2.1,0-2.1,1
	c0,0.2,0.1,0.4,0.1,0.6l0.1,0.1c0.7,1.3-0.4,2.9-1.9,2.8l-0.6,0c-0.9-0.1-1.8,0.5-2.2,1.3l-1.2,2.6c-0.2,0.4-0.6,0.6-1,0.6
	c-1.1,0-1.5,1.3-0.7,2l0.4,0.4c0.7,0.5,0.6,1.6-0.1,2.1l-4.7,3.1c-0.5,0.3-0.3,1.2,0.3,1.2c0.6,0.1,0.8,0.8,0.3,1.2l-0.1,0.1
	c-0.4,0.3-0.4,0.9,0,1.2l3,2.4c0.3,0.3,0.1,0.8-0.3,0.7l-3.1-0.2c-0.2,0-0.2,0.2,0,0.3c0,0,0.1,0,0.1,0.1c0,0,0,0.1,0,0.1l-0.4,1.4
	c-0.2,1-1.3,1.5-2.2,1.1l-0.7-0.3c-0.3-0.1-0.5-0.5-0.5-0.8l0.1-1.2c0.1-0.7-0.8-0.9-1.1-0.3l-0.1,0.2c-0.2,0.5-0.9,0.4-1-0.1
	c-0.1-0.3-0.4-0.5-0.7-0.4l-0.8,0.3c-0.7,0.2-1.4-0.1-1.6-0.8l-0.5-1.5c-0.2-0.7-0.8-1.3-1.4-1.7l-2.8-1.4c-0.2-0.1-0.3-0.3-0.2-0.6
	c0.1-0.4-0.2-0.7-0.6-0.6l-1.3,0.4c-0.2,0.1-0.2,0.3-0.1,0.4c0.2,0.2,0,0.4-0.2,0.4l-2.3-0.6c-0.2,0-0.3-0.1-0.4-0.3l-3-3.3
	c-0.7-0.8-1.1-1.8-1.1-2.9v-3.6c0-1.5-0.8-2.9-2.1-3.7l-1-0.6c-0.8-0.5-1.7-0.7-2.6-0.6l-10.4,0.9c-1.9,0.2-3.7-1-4.4-2.8l-2-5.3
	c-0.4-1,0.3-2,1.3-2.2l0.4-0.1c0.6-0.1,1-0.5,1-1.1v-0.1c0-1-1.3-1.5-2-0.7c-0.5,0.6-1.5,0.6-1.8-0.1l-1.2-2.1
	c-0.1-0.2-0.3-0.3-0.5-0.3c-0.3,0-0.5,0.2-0.5,0.5v1.4c0,1.1-0.9,1.9-1.9,1.9h-0.2c-1.3,0-2.3,1.2-2.1,2.5l0.3,1.5
	c0.1,0.4,0.2,0.8,0.5,1.2l2.4,3.8c0.9,1.5,0.9,3.4-0.2,4.8l-3.7,5.1c-0.1,0.1-0.1,0.2-0.2,0.2c-0.1,0.1-0.1,0.1-0.1,0.2
	c0,0-0.1,0.1-0.1,0.1l-1.5,1.5l-7.3,6c-1.2,0.9-2.8,0.8-3.8-0.3c-0.5-0.6-1.3-1-2.1-1h-0.4c-2.3,0-4,2-3.7,4.2l0,0.2
	c0.1,1,0.7,1.8,1.5,2.4l2.8,1.7c0.3,0.2,0.8,0.1,0.9-0.3c0.2-0.5,1-0.5,1.2,0l1.3,2.8c0.1,0.3,0,0.7-0.3,0.8
	c-0.5,0.3-0.4,1.1,0.3,1.2l0.8,0.1c0.4,0.1,0.8,0.4,0.8,0.8L1206.9,338z"/>
<path class="st0" d="M912.5,61.1c-0.7-0.2-1.2-0.6-1.6-1.1l-4.8-7.2c-1.3-1.9-3.8-2.5-5.8-1.3l-6.9,4.2c-1.6,1-2.2,3.1-1.4,4.8
	c0.6,1.3,0.5,2.8-0.4,4l-2.2,2.7c-0.9,1.1-1,2.7-0.3,3.9l1.5,2.6c0.6,1-0.1,2.3-1.3,2.4c-1.2,0.1-1.9,1.4-1.2,2.5l7.6,11.9
	c0.5,0.8,1.3,1.4,2.2,1.7l6.1,2.1c1.3,0.4,2.7-0.3,3.1-1.6l1.2-3.8c0.1-0.3-0.2-0.6-0.5-0.5c-0.3,0.1-0.5-0.1-0.5-0.4l0.2-1.7
	c0.1-0.4,0.3-0.8,0.7-1l0,0c0.8-0.5,1.8-0.1,2.2,0.7l1.2,3.1c0.2,0.5,0,1-0.4,1.3l-0.4,0.3c-0.4,0.3-0.5,0.9,0,1.2
	c0.2,0.1,0.5,0.2,0.7,0l10.6-5.6c2-1,4.4-0.3,5.4,1.7l0.2,0.4c0.8,1.6,2.6,2.3,4.3,1.7c2.4-0.9,3-4,1.2-5.8l-2.5-2.4
	c-0.7-0.7-1.2-1.6-1.3-2.6l-0.6-4.6c-0.1-0.5,0-1,0.1-1.5l1.5-6.3c0.3-1.2,0-2.5-0.7-3.5l-4.6-6.4c-0.7-0.9-1.7-1.5-2.9-1.5
	c-2.2,0-3.9,2-3.5,4.1l0.5,2.7c0.1,0.6,0.1,1.2-0.1,1.7l-0.6,2.5c-0.2,1-1.2,1.6-2.2,1.5c-1.1-0.1-2-1.2-1.8-2.3l0.3-1.9
	C914.7,62.8,913.8,61.4,912.5,61.1z"/>
<path class="st0" d="M932.1,62.2c-1.4-1.6,0.6-4,2.4-2.8l15.4,10.2c1.2,0.8,0.8,2.7-0.6,2.9c-0.8,0.1-1.4,0.9-1.4,1.7l0.2,2.7
	c0.1,0.9-0.1,1.8-0.6,2.6l-1.4,2.3c-0.8,1.3-2.2,2-3.6,2h-5c-1.5,0-3-0.8-3.7-2.2l-3.4-6.1c-0.6-1-0.7-2.2-0.4-3.4l2.6-8.4
	C932.7,63.4,932.6,62.7,932.1,62.2z"/>
<path class="st0" d="M968.4,72.1c-3.4-1.1-6.6,2.3-5.3,5.7l2.1,5.2c0.3,0.9,1,1.6,1.8,2.1l13.1,7.8c0.9,0.6,2.1,0.7,3.1,0.5l7.8-1.7
	c1.3-0.3,2.4-1.2,3-2.4l0.4-0.9c1.1-2.5-0.4-5.3-3-5.9l-14.3-3.1c-1.1-0.2-1.7-1.6-1-2.5c0.6-0.9,0.2-2.2-0.9-2.5L968.4,72.1z"/>
<path class="st0" d="M929.4,118.9l-6.8-0.7h-0.9c-1.8,0-3.4,1.1-4,2.8l-2.3,6.2c-0.3,0.8-1,1.5-1.8,1.7l-2.3,0.8
	c-0.8,0.3-1.1,1.2-0.6,1.8c0.2,0.3,0.5,0.4,0.8,0.5l21.9,3c2.7,0.4,5.1-1.9,4.8-4.7l-0.2-1.8c-0.1-0.9-0.4-1.7-1-2.3l-4.9-5.8
	C931.5,119.5,930.5,119,929.4,118.9z"/>
<path class="st0" d="M258.6,119.6c-1,0.9-1.3,2.4-0.8,3.7l0.4,0.8c0.5,1,1.6,1.5,2.7,1.2l0.9-0.3c1.8-0.5,3.3,1.6,2.1,3.1
	c-1.1,1.5,0.3,3.6,2.1,3.1l1.3-0.4c0.5-0.1,1.1-0.1,1.6,0.1l7.9,3.4c1.9,0.8,4.1,0.2,5.2-1.6l0.7-1c0.5-0.7,0.6-1.6,0.2-2.4
	l-1.3-3.3c-0.3-0.7,0.4-1.5,1.2-1.2c0.9,0.3,1.6-0.8,1-1.5l-0.4-0.5c-0.8-0.9,0.2-2.2,1.2-1.8l1.6,0.6c1,0.4,2-0.3,2.1-1.3l0.1-1.1
	c0.1-0.7-0.2-1.5-0.8-2l-2.4-2.1c-0.6-0.6-0.9-1.4-0.6-2.2c0.5-1.7,2.8-2.1,3.8-0.6l0.3,0.4c0.9,1.4,2.9,1.4,3.9,0.1l2.1-2.8
	c0.4-0.5,0.5-1.3,0.2-1.9l-1.5-3.8c-0.4-1.1,1-2.1,1.9-1.2c0.5,0.5,1.2,0.4,1.7-0.1l1.3-1.5c0.3-0.4,0.4-0.9,0.3-1.4l0-0.1
	c-0.4-1.1,0.8-2.2,1.9-1.7l0.2,0.1c1.1,0.5,2.2-0.7,1.7-1.7c-0.5-1,0.4-2.1,1.5-1.8l1.3,0.4c0.8,0.3,1.7-0.1,2.1-0.8l2.1-3.5
	c0.6-1,0.3-2.2-0.6-2.8c-0.8-0.6-1.1-1.7-0.7-2.6l0-0.1c0.4-0.8,1.2-1.3,2-1.3h3c1.2,0,2.4-0.5,3.2-1.4l14.3-16.1
	c0.7-0.8,2.1-0.6,2.5,0.3c0.4,0.8,1.3,1.1,2.1,0.7l31.9-15.8c0.9-0.4,1.6-1.2,2-2.1l3.7-8.1c0.2-0.4-0.1-0.8-0.5-0.8
	c-0.4,0-0.7-0.4-0.6-0.8l1.1-3.6c0.2-0.8,0.2-1.7-0.2-2.4l-2.7-5.6c-0.6-1.3-1.9-2.3-3.4-2.4l-3.9-0.4c-1.2-0.1-2.4,0.3-3.3,1.1
	l-21.1,18.7c-0.4,0.4-0.9,0.7-1.4,0.8l-12.2,4.3c-1,0.4-2.1,0.3-3.1-0.1l-3.8-1.6c-2.3-1-4.9,0.7-4.9,3.3v1.4c0,0.6-0.4,1.1-0.9,1.4
	l-1.4,0.6c-0.9,0.4-1.7-0.6-1.2-1.4l0-0.1c0.3-0.4,0.1-1-0.3-1.3c-0.3-0.2-0.7-0.2-1.1,0l-12.1,8.9c-0.5,0.3-0.8,0.8-1.1,1.2
	l-8.4,14.2c-0.4,0.6-0.9,1.1-1.5,1.5l-8.5,5.1c-0.8,0.5-1.7,0.4-2.4-0.1c-1.2-1-3.1-0.3-3.4,1.2l-0.1,0.3c0,0.2-0.1,0.3-0.1,0.5v0.9
	c0,0.8,0.6,1.4,1.4,1.4c1,0,1.7,1,1.3,1.9l-1,2.8c-0.2,0.7,0.2,1.4,0.9,1.6c1.3,0.3,1.2,2.2-0.1,2.3l-0.6,0.1
	c-0.9,0.1-1.4,1.2-0.9,2l1.5,2.5c0.6,1-0.1,2.3-1.2,2.4l-0.7,0.1c-1.1,0.1-1.5,1.4-0.8,2.1c0.7,0.7,0.4,1.8-0.5,2.1l-0.5,0.2
	c-0.7,0.2-0.9,1.2-0.3,1.7c0.9,0.7,0.1,2.1-0.9,1.7c-0.3-0.2-0.8-0.1-1,0.2L258.6,119.6z"/>
<path class="st0" d="M294,209.7l1.8,4.8l0.8,1.7c0.2,0.5,0.9,0.3,0.9-0.2c0-0.4,0.5-0.6,0.8-0.4l4,3.7c0.7,0.7,1.8,0.9,2.8,0.6
	c1.9-0.6,2.7-2.9,1.5-4.5l-7.2-9.6c-0.9-1.2-2.7-1.2-3.6,0.1l-0.9,1.3c-0.2,0.2-0.1,0.6,0.1,0.7c0.4,0.3,0.2,1-0.3,1h-0.1
	C294.1,208.9,293.8,209.3,294,209.7z"/>
<path class="st0" d="M256.5,135.2c0.5-0.5,1.2-0.8,1.8-1l7.6-1.9c1.1-0.3,2.2-0.1,3.1,0.4l7.4,4.1c0.9,0.5,1.1,1.8,0.4,2.5l-2.2,2.2
	c-0.6,0.6,0,1.6,0.8,1.4c0.6-0.2,1.1,0.3,1,0.9l-0.2,1.3c-0.1,0.5-0.4,1-0.9,1.3l-2.7,1.5c-0.7,0.4-0.6,1.5,0.2,1.7
	c0.6,0.1,0.9,0.8,0.6,1.3l-2.5,4.9c-0.3,0.6-0.5,1.2-0.5,1.9v10.8c0,0.4,0.1,0.8,0.2,1.1l4.2,15.4c0.2,0.7,0.6,1.4,1.2,1.9l9.2,8.9
	c0.7,0.7,0.4,1.8-0.5,2.1l-1.7,0.6c-0.7,0.2-0.6,1.2,0.1,1.4c0.5,0.1,0.7,0.7,0.4,1.1c-0.3,0.4-0.9,0.4-1.2-0.1l-2.1-3.4
	c-0.5-0.7-1.4-1-2.2-0.6l-1.4,0.7c-0.3,0.2-0.4,0.6-0.1,0.9c0.4,0.4,0,1.1-0.5,0.9l-4.4-1.5c-0.7-0.2-1.4,0-1.8,0.6l-0.3,0.4
	c-0.8,1.1-2.4,1.1-3.3,0.1l-1.3-1.4c-0.2-0.3-0.2-0.7,0.1-0.8c0.5-0.3,0.3-1-0.3-1l-5.4-0.3c-1,0-1.9-0.8-2.1-1.8l-0.3-1.9
	c-0.1-0.9,0.3-1.7,1.2-2c1.4-0.5,1.6-2.4,0.4-3.2l-2.2-1.6c-0.2-0.2-0.3-0.5-0.2-0.8l0.4-0.6c0.3-0.5-0.3-1-0.7-0.6
	c-0.3,0.3-0.8,0.1-0.8-0.3V180c0-0.9-0.7-1.6-1.5-1.7l-9.5-0.9c-1.6-0.2-3.1-1.2-3.6-2.8l-0.4-1.1c-0.3-0.7-0.3-1.5-0.2-2.3l0.5-2.5
	c0.3-1.8,2-3,3.9-2.8c1.6,0.2,3.1-0.7,3.7-2.2l3.8-10c0.1-0.3-0.3-0.6-0.5-0.4c-0.2,0.1-0.4,0.1-0.5-0.1l-1.9-3.5
	c-0.7-1.4-0.2-3.1,1.3-3.8l3.4-1.6c0.5-0.2,0.6-1,0.1-1.3l-0.1-0.1c-0.4-0.2-0.4-0.8,0-1.1c0.3-0.2,0.4-0.5,0.2-0.8l-0.5-1.1
	c-0.4-0.8-0.1-1.8,0.5-2.4L256.5,135.2z"/>
<path class="st0" d="M220,225.5c-0.8,0.4-1.5,1-1.9,1.7l-2.3,4c-0.3,0.6-0.5,1.2-0.6,1.8l-0.4,5.3c0,0.1,0,0.2,0,0.3l0.3,0.9
	c0.2,0.5,0.9,0.4,0.9-0.2c0-0.4,0.4-0.6,0.7-0.4l3,2c0.9,0.6,2,0.5,2.8-0.1l5.2-4.1c2-1.6,2.2-4.5,0.4-6.3l-3.8-3.9
	C223.4,225.1,221.6,224.8,220,225.5z"/>
<path class="st0" d="M931.8,474.9c0.6-0.2,1.3,0,1.7,0.5l0.6,0.8c0.3,0.4,0.5,0.8,0.6,1.2l3.1,15.6c0.1,0.6,0.1,1.1,0,1.7l-1,5.1
	c-0.1,0.3-0.1,0.7-0.1,1l0.4,8.4c0,0.4,0.1,0.7,0.2,1l7.5,25.1c0,0,0,0.1,0,0.1c0,0,0,0.1,0,0.1c0.7,1.4-1.1,2.7-2.2,1.6l-0.2-0.2
	c-0.4-0.4-0.9-0.5-1.4-0.4l-2.3,0.7c-1.5,0.5-2.6,1.7-2.9,3.3l-2.7,13.6c-0.2,0.9-0.1,1.8,0.3,2.7l2.7,5.8c0.3,0.7,0.9,1.3,1.5,1.7
	c1,0.7,1.7,1.7,1.9,2.9l0.5,3.5c0,0,0,0.1,0,0.1c0,0,0,0.1,0,0.1c0,0.1,0,0.1,0,0.1c-0.2,0.6-1,0.5-1.1-0.1l-0.4-2.6
	c-0.1-0.5-0.4-0.9-0.9-1.1l-1.6-0.5c-1.8-0.6-3.8,0.3-4.7,2l-2,4c-0.2,0.4-0.6,0.6-1.1,0.4c-0.3-0.1-0.6-0.4-0.6-0.8l-0.4-6.3
	c0-0.3,0-0.6,0-0.9l2-13.7c0.1-0.6,0-1.2-0.1-1.8l-1.7-6c-0.2-0.6-0.2-1.2-0.1-1.8l1.9-13.1c0-0.3,0.1-0.7,0-1l-0.8-8.1
	c0-0.2,0-0.5,0-0.7l0.3-4.3c0.1-0.8-0.1-1.7-0.6-2.4l-2.3-4c-0.3-0.6-0.5-1.2-0.6-1.9l-0.4-6.3c0-0.2,0-0.5,0-0.7l1.3-11.4
	c0.2-1.5,1.6-2.6,3.1-2.3c1.2,0.2,2.3-0.4,2.8-1.4l0.2-0.4c0.4-0.8,0.4-1.8,0.1-2.6l-1.8-4.4C930.5,476.1,931,475.2,931.8,474.9z"/>
<path class="st0" d="M475.8,203.3c-0.2,0.3-0.3,0.7-0.2,1l0.8,2.7c0.2,0.6,0.8,1,1.4,0.9c0.8-0.1,1.2-0.9,1-1.7l-0.9-2.6
	C477.7,202.6,476.4,202.4,475.8,203.3z"/>
<path class="st0" d="M386.4,281.6c-1.4,0.6-1.6,2.4-0.5,3.4c0.6,0.5,1.5,0.7,2.2,0.3l3.6-1.7c0.9-0.4,1.4-1.5,1.1-2.5
	c-0.4-1.1-1.7-1.7-2.8-1.2L386.4,281.6z"/>
<path class="st0" d="M23.2,469.8c-0.5,1.8-2,3.1-3.9,3.2l-10.2,0.6c-0.3,0-0.5,0-0.8,0l-4.6-0.6c-2.8-0.3-4.6-3.3-3.4-6l0.4-0.9
	c0.2-0.4,0.5-0.8,1-1l3.7-1.6c0.5-0.2,1,0.3,0.7,0.8c-0.2,0.3,0,0.7,0.4,0.8l1.5,0.3c0.9,0.2,1.8-0.4,2-1.3l0.5-2.6c0,0,0,0,0,0l0,0
	c0-0.2,0.2-0.3,0.4-0.2l5.2,2.2c0.3,0.1,0.6,0.2,1,0.3l3.2,0.5c1.2,0.2,2.2,0.9,2.8,1.9c0.5,0.9,0.6,1.9,0.4,2.9L23.2,469.8z"/>
</svg>
