<svg width="16" height="16" viewBox="0 0 16 16" fill="none" xmlns="http://www.w3.org/2000/svg">
<path d="M0.00308863 16L1.08469 12.0256C0.371999 10.8039 -0.00243458 9.41439 -0.000111325 7.99999C-0.000111325 3.5816 3.58149 0 7.99988 0C12.4183 0 15.9999 3.5816 15.9999 7.99999C15.9999 12.4184 12.4183 16 7.99988 16C6.58611 16.0023 5.19721 15.6281 3.97589 14.916L0.00308863 16ZM5.11269 4.2464C5.00938 4.25281 4.90842 4.28002 4.81589 4.3264C4.7291 4.37554 4.64988 4.43698 4.58069 4.5088C4.48469 4.5992 4.43029 4.6776 4.37189 4.7536C4.07621 5.13839 3.91717 5.61073 3.91989 6.096C3.92149 6.488 4.02389 6.8696 4.18389 7.2264C4.51109 7.94799 5.04949 8.71199 5.76068 9.41999C5.93188 9.59039 6.09908 9.76159 6.27908 9.92079C7.1618 10.698 8.21369 11.2584 9.35108 11.5576L9.80628 11.6272C9.95428 11.6352 10.1023 11.624 10.2511 11.6168C10.4841 11.6048 10.7116 11.5417 10.9175 11.432C11.0222 11.378 11.1245 11.3193 11.2239 11.256C11.2239 11.256 11.2583 11.2336 11.3239 11.184C11.4319 11.104 11.4983 11.0472 11.5879 10.9536C11.6543 10.8848 11.7119 10.804 11.7559 10.712C11.8183 10.5816 11.8807 10.3328 11.9063 10.1256C11.9255 9.96719 11.9199 9.88079 11.9175 9.82719C11.9143 9.74159 11.8431 9.65279 11.7655 9.61519L11.2999 9.40639C11.2999 9.40639 10.6039 9.10319 10.1791 8.90959C10.1343 8.89007 10.0863 8.87895 10.0375 8.87679C9.98275 8.87117 9.92744 8.87733 9.87528 8.89486C9.82312 8.91238 9.77532 8.94086 9.73508 8.97839V8.97679C9.73108 8.97679 9.67748 9.02239 9.09908 9.72319C9.06588 9.7678 9.02016 9.80152 8.96772 9.82004C8.91529 9.83856 8.85853 9.84105 8.80468 9.82719C8.75256 9.81326 8.70149 9.79561 8.65188 9.77439C8.55268 9.73279 8.51828 9.71679 8.45028 9.68719L8.44628 9.68559C7.98861 9.48577 7.56486 9.21587 7.19028 8.88559C7.08948 8.79759 6.99588 8.70159 6.89988 8.60879C6.58515 8.30738 6.31086 7.9664 6.08388 7.5944L6.03668 7.51839C6.00278 7.46733 5.97537 7.41224 5.95508 7.35439C5.92469 7.23679 6.00388 7.1424 6.00388 7.1424C6.00388 7.1424 6.19828 6.92959 6.28868 6.8144C6.36396 6.71865 6.43418 6.61905 6.49908 6.516C6.59348 6.364 6.62308 6.208 6.57348 6.0872C6.34948 5.54 6.11748 4.9952 5.87908 4.4544C5.83188 4.3472 5.69188 4.2704 5.56469 4.2552C5.52149 4.2504 5.47828 4.2456 5.43508 4.2424C5.32765 4.23706 5.21999 4.23813 5.11269 4.2456V4.2464Z" fill="currentColor"/>
</svg>
