<svg width="20" height="21" viewBox="0 0 20 21" fill="none" xmlns="http://www.w3.org/2000/svg">
<path d="M6.02093 2.50049L3.61228 2.50049C3.38868 2.49959 3.16735 2.54548 2.96247 2.63524C2.75759 2.72499 2.57368 2.85664 2.42252 3.02173C2.27136 3.18683 2.15627 3.38174 2.08463 3.59398C2.013 3.80622 1.98639 4.03111 2.00652 4.25425C2.27497 6.72976 3.1192 9.10765 4.47137 11.1969C5.70406 13.1406 7.34876 14.7886 9.28866 16.0237C11.3832 17.3833 13.7679 18.2294 16.2496 18.4935C16.4717 18.5136 16.6954 18.4871 16.9067 18.4158C17.118 18.3445 17.3121 18.2299 17.4767 18.0794C17.6414 17.9288 17.7729 17.7455 17.863 17.5411C17.9531 17.3368 17.9997 17.1159 17.9999 16.8926L17.9999 14.4791C18.0038 14.0887 17.8658 13.7102 17.6117 13.4142C17.3576 13.1182 17.0048 12.9248 16.619 12.8702C15.8481 12.7683 15.0913 12.5794 14.3629 12.3071C14.0755 12.1988 13.7632 12.1754 13.4629 12.2396C13.1627 12.3037 12.8871 12.4528 12.6688 12.6691L11.6491 13.6908C9.63908 12.5455 7.97478 10.8779 6.83184 8.8639L7.8515 7.84221C8.06736 7.62349 8.21613 7.34734 8.28016 7.04649C8.3442 6.74564 8.32082 6.43271 8.21279 6.14477C7.94098 5.41489 7.75244 4.65654 7.65078 3.88419C7.59576 3.49341 7.39931 3.13651 7.0988 2.88139C6.79829 2.62626 6.41468 2.4907 6.02093 2.50049Z" fill="currentcolor"/>
</svg>
