<svg width="42" height="42" viewBox="0 0 42 42" fill="none" xmlns="http://www.w3.org/2000/svg">
<path fill-rule="evenodd" clip-rule="evenodd" d="M24.4263 6.55208L21.0013 1.90735e-06L21.0013 9.33363H21.0524C22.5672 9.34025 24.0663 9.6418 25.4661 10.2216C26.8817 10.8079 28.1678 11.6673 29.2512 12.7507C30.3346 13.8341 31.194 15.1203 31.7803 16.5358C32.3435 17.8955 32.6442 19.349 32.667 20.8194V21H32.6685V21.0006H35.8503V21L42.0007 21L35.4499 17.5757C35.2676 16.8067 35.0238 16.0517 34.72 15.3182C33.9737 13.5166 32.88 11.8797 31.5011 10.5009C30.1223 9.122 28.4853 8.02823 26.6838 7.282C25.9502 6.97816 25.1952 6.73436 24.4263 6.55208ZM34.9541 7.05297L33.689 11.7742C33.2143 11.1093 32.6845 10.4833 32.1041 9.9029C31.5237 9.32255 30.8977 8.7927 30.2328 8.31801L34.9541 7.05297Z" fill="#E4006D"/>
<path fill-rule="evenodd" clip-rule="evenodd" d="M17.5757 35.4466L21.0007 41.9987L21.0007 35.847L21.0007 35.847L21.0007 32.6652L21.0007 32.6652L21.0007 32.6651L20.9501 32.6651C19.4351 32.6585 17.9358 32.3569 16.5359 31.7771C15.1203 31.1907 13.8342 30.3314 12.7508 29.248C11.6674 28.1646 10.808 26.8784 10.2216 25.4629C9.64143 24.0621 9.33986 22.5618 9.33364 21.0459L9.33364 20.9981L9.33354 20.9981L6.15172 20.9981L1.70947e-05 20.9981L6.55211 24.423C6.73439 25.192 6.97819 25.947 7.28203 26.6805C8.02826 28.4821 9.12203 30.119 10.5009 31.4978C11.8797 32.8767 13.5167 33.9705 15.3182 34.7167C16.0518 35.0205 16.8067 35.2643 17.5757 35.4466ZM7.04693 34.9456L8.31197 30.2244C8.78666 30.8892 9.31652 31.5153 9.89688 32.0956C10.4772 32.676 11.1033 33.2058 11.7681 33.6805L7.04693 34.9456Z" fill="#71BF43"/>
<path fill-rule="evenodd" clip-rule="evenodd" d="M35.4486 24.4236L42.0007 20.9987L35.849 20.9987L32.6672 20.9987L32.667 20.9987L32.667 21.0484C32.6606 22.5636 32.359 24.0633 31.779 25.4635C31.1927 26.879 30.3333 28.1652 29.2499 29.2486C28.1665 30.332 26.8804 31.1914 25.4648 31.7777C24.0642 32.3579 22.5641 32.6594 21.0484 32.6657L21 32.6657L21 32.6658L21 35.8476L21 41.9994L24.425 35.4473C25.194 35.265 25.9489 35.0212 26.6825 34.7173C28.484 33.9711 30.121 32.8773 31.4998 31.4985C32.8787 30.1196 33.9724 28.4827 34.7187 26.6811C35.0225 25.9476 35.2663 25.1926 35.4486 24.4236ZM34.9475 34.9525L30.2263 33.6874C30.8911 33.2127 31.5172 32.6829 32.0976 32.1025C32.6779 31.5221 33.2078 30.8961 33.6825 30.2312L34.9475 34.9525Z" fill="#F6A500"/>
<path fill-rule="evenodd" clip-rule="evenodd" d="M6.55223 17.576L0.000671387 21.0007L9.3343 21.0007L9.3343 20.9157C9.3451 19.4121 9.64647 17.9244 10.2221 16.5347C10.8084 15.1192 11.6678 13.833 12.7512 12.7496C13.8346 11.6662 15.1208 10.8068 16.5363 10.2205C17.8999 9.65569 19.3578 9.35493 20.8326 9.33363L21.0013 9.33363L21.0013 2.7539e-06L17.577 6.55077C16.8078 6.73307 16.0525 6.97694 15.3187 7.2809C13.5171 8.02713 11.8802 9.1209 10.5013 10.4997C9.12248 11.8786 8.02872 13.5155 7.28249 15.3171C6.97846 16.0511 6.73455 16.8065 6.55223 17.576ZM7.0538 7.0469L11.775 8.31194C11.1102 8.78663 10.4841 9.31649 9.90374 9.89685C9.32338 10.4772 8.79353 11.1033 8.31885 11.7681L7.0538 7.0469Z" fill="#007DC5"/>
<path d="M14.042 24.8476L11.7409 17.7204H13.7365L15.1213 22.628L16.5162 17.7204H18.5118L16.2107 24.8476H14.042ZM23.9794 17.7204V19.4818H22.2179V24.8476H20.3954V19.4818H18.6339V17.7204H23.9794ZM26.9768 25.0004C26.2233 25.0004 25.5989 24.8409 25.1033 24.5218C24.6078 24.2028 24.2616 23.7718 24.0648 23.2287L25.6226 22.3226C25.8873 22.9538 26.3557 23.2695 27.0277 23.2695C27.5843 23.2695 27.8626 23.1099 27.8626 22.7909C27.8626 22.5805 27.7031 22.4108 27.3841 22.2818C27.2483 22.2275 26.9496 22.1359 26.4881 22.0069C25.8364 21.8169 25.3206 21.5521 24.9404 21.2127C24.5603 20.8665 24.3702 20.388 24.3702 19.7771C24.3702 19.1187 24.6044 18.5858 25.0728 18.1785C25.5479 17.7713 26.1385 17.5676 26.8444 17.5676C27.4418 17.5676 27.9712 17.7068 28.4328 17.9851C28.8944 18.2634 29.2473 18.6673 29.4917 19.1967L27.9644 20.0927C27.7404 19.5633 27.3705 19.2986 26.8546 19.2986C26.6374 19.2986 26.4711 19.3427 26.3557 19.4309C26.2471 19.5192 26.1928 19.6312 26.1928 19.7669C26.1928 19.923 26.2742 20.0554 26.4372 20.164C26.6069 20.2726 26.9327 20.3982 27.4146 20.5407C27.7608 20.6425 28.0391 20.7376 28.2495 20.8258C28.4599 20.9141 28.6907 21.043 28.9419 21.2127C29.193 21.3756 29.3797 21.5895 29.5019 21.8542C29.6241 22.1121 29.6852 22.4176 29.6852 22.7706C29.6852 23.4697 29.4374 24.0161 28.9419 24.4098C28.4464 24.8035 27.7913 25.0004 26.9768 25.0004Z" fill="#004F9E"/>
</svg>
