<svg width="16" height="16" viewBox="0 0 16 16"
     fill="none"
     xmlns="http://www.w3.org/2000/svg">
<path d="M0.000494957 11.9791V14.3877C-0.000413895 14.6113 0.0454798 14.8327 0.135237 15.0375C0.224995 15.2424 0.356637 15.4263 0.521733 15.5775C0.686829 15.7286 0.881739 15.8437 1.09398 15.9154C1.30622 15.987 1.53111 16.0136 1.75425 15.9935C4.22976 15.725 6.60765 14.8808 8.69688 13.5286C10.6406 12.2959 12.2886 10.6512 13.5237 8.71134C14.8833 6.61679 15.7294 4.23206 15.9935 1.75036C16.0136 1.52834 15.9871 1.30457 15.9158 1.0933C15.8445 0.882034 15.7299 0.687898 15.5794 0.523253C15.4288 0.358607 15.2455 0.22706 15.0411 0.136987C14.8368 0.0469136 14.6159 0.000287778 14.3926 7.78413e-05H11.9791C11.5887 -0.00375708 11.2102 0.134222 10.9142 0.388297C10.6182 0.642373 10.4248 0.995207 10.3702 1.38103C10.2683 2.15185 10.0794 2.9087 9.80705 3.63713C9.69882 3.9245 9.67539 4.23682 9.73955 4.53707C9.80371 4.83732 9.95277 5.11292 10.1691 5.33121L11.1908 6.35087C10.0455 8.36092 8.37794 10.0252 6.3639 11.1682L5.34221 10.1485C5.12349 9.93264 4.84734 9.78387 4.54649 9.71984C4.24564 9.6558 3.93271 9.67918 3.64477 9.78721C2.91489 10.059 2.15654 10.2476 1.38419 10.3492C0.993406 10.4042 0.636512 10.6007 0.381388 10.9012C0.126264 11.2017 -0.00929451 11.5853 0.000494957 11.9791Z" fill="currentcolor"/>
</svg>
