<svg width="76" height="31" viewBox="0 0 76 31" fill="none" xmlns="http://www.w3.org/2000/svg">
<g clip-path="url(#clip0_714_2340)">
<path d="M22.0433 3.20256L20.7525 1.8805C18.3713 -0.558473 14.5101 -0.558473 12.1288 1.8805L7.38855 6.73564L9.11329 8.50219L13.8536 3.64704C15.2779 2.18822 17.6035 2.18822 19.0278 3.64704L20.3186 4.9691C21.7429 6.42792 21.7429 8.79851 20.3186 10.2687L15.5783 15.1239L17.303 16.8904L22.0433 12.0353C24.4246 9.59631 24.4246 5.64153 22.0433 3.20256Z" fill="#78C24C"/>
<path d="M17.7259 19.0901L16.0122 20.8567L14.7215 19.5346L11.706 22.6232C9.32469 25.0622 5.46349 25.0622 3.08223 22.6232L1.78033 21.3011C-0.60093 18.8622 -0.60093 14.9074 1.78033 12.4684L6.52059 7.61328L8.24534 9.37983L3.50507 14.235C2.08077 15.6938 2.08077 18.0644 3.50507 19.5346L4.80698 20.8567C6.23128 22.3155 8.54578 22.3155 9.98121 20.8567L14.7215 16.0015L17.7259 19.0901Z" fill="#007DC5"/>
<path d="M22.5775 23.9112V24.6292C22.3438 24.367 22.0767 24.1733 21.754 24.0479C21.4425 23.9112 21.1086 23.8428 20.7303 23.8428C20.1739 23.8428 19.6621 23.9681 19.217 24.2189C18.783 24.4696 18.4381 24.8229 18.1821 25.2788C17.9373 25.7233 17.8149 26.2589 17.8149 26.863C17.8149 27.467 17.9373 27.9913 18.1821 28.4472C18.4381 28.9031 18.783 29.2564 19.217 29.5071C19.6621 29.7578 20.1628 29.8832 20.7303 29.8832C21.1309 29.8832 21.487 29.8148 21.8097 29.6781C22.1435 29.5413 22.4217 29.3248 22.6442 29.0512V29.8148H23.9239V23.9226H22.5775V23.9112ZM22.1101 28.1964C21.7874 28.5384 21.3757 28.7093 20.8861 28.7093C20.3965 28.7093 19.9848 28.5384 19.6621 28.1964C19.3505 27.8545 19.1836 27.4101 19.1836 26.863C19.1836 26.3045 19.3394 25.8601 19.6621 25.5295C19.9848 25.1876 20.3965 25.0281 20.8861 25.0281C21.3757 25.0281 21.7874 25.199 22.1101 25.5295C22.4328 25.8715 22.5997 26.3159 22.5997 26.863C22.5997 27.4101 22.4439 27.8659 22.1101 28.1964ZM29.1315 28.5156C28.8867 28.6523 28.6196 28.7093 28.3192 28.7093C27.8073 28.7093 27.3845 28.5384 27.0618 28.2078C26.7391 27.8659 26.5722 27.4215 26.5722 26.863C26.5722 26.3045 26.7391 25.8601 27.0729 25.5295C27.4067 25.1876 27.8185 25.0281 28.3192 25.0281C28.6085 25.0281 28.8867 25.0964 29.1315 25.2332C29.3874 25.37 29.5877 25.5637 29.7546 25.8373L30.7895 25.2218C30.578 24.7773 30.2554 24.4354 29.8214 24.2075C29.3985 23.9681 28.8978 23.8542 28.3303 23.8542C27.7294 23.8542 27.1842 23.9795 26.7168 24.2417C26.2495 24.5038 25.8823 24.8571 25.6152 25.313C25.3482 25.7689 25.2146 26.2931 25.2146 26.8744C25.2146 27.4556 25.3482 27.9799 25.6152 28.4472C25.8823 28.9031 26.2495 29.2564 26.728 29.5185C27.2064 29.7806 27.7406 29.906 28.3303 29.906C28.8867 29.906 29.3874 29.792 29.8103 29.5527C30.2442 29.3134 30.5669 28.9715 30.7895 28.527L29.7546 27.9115C29.5877 28.1623 29.3763 28.3674 29.1315 28.5156ZM40.971 24.5038C40.5482 24.0707 39.9696 23.8542 39.2463 23.8542C38.7901 23.8542 38.3783 23.9453 38.0111 24.1163C37.6328 24.2873 37.3324 24.5266 37.0987 24.8343C36.9095 24.5152 36.6425 24.2645 36.2975 24.1049C35.9637 23.934 35.5854 23.8542 35.1514 23.8542C34.7619 23.8542 34.3947 23.9226 34.072 24.0593C33.7493 24.1961 33.4823 24.4012 33.2597 24.6634V23.9112H31.9801V29.8034H33.3265V26.806C33.3265 26.2362 33.46 25.7917 33.7271 25.4953C34.0053 25.199 34.3725 25.0395 34.8287 25.0395C35.2515 25.0395 35.5631 25.1762 35.7857 25.4384C36.0082 25.7005 36.1195 26.088 36.1195 26.6009V29.8034H37.4659V26.806C37.4659 26.2362 37.5994 25.8031 37.8776 25.5067C38.1558 25.199 38.5119 25.0395 38.9681 25.0395C39.3909 25.0395 39.7025 25.1762 39.925 25.4384C40.1476 25.7005 40.2589 26.088 40.2589 26.6009V29.8034H41.6053V26.4185C41.6053 25.5751 41.3939 24.9255 40.971 24.5038ZM47.3693 23.9112V26.8972C47.3693 27.467 47.2246 27.9115 46.9353 28.2192C46.6571 28.527 46.2788 28.6751 45.8003 28.6751C45.3663 28.6751 45.0214 28.5498 44.7877 28.2876C44.554 28.0255 44.4428 27.6266 44.4428 27.0909V23.9112H43.0963V27.2733C43.0963 28.1395 43.3189 28.7891 43.764 29.2222C44.2091 29.6553 44.8211 29.8718 45.5889 29.8718C45.9672 29.8718 46.3122 29.8034 46.6237 29.6667C46.9464 29.5185 47.2135 29.3134 47.436 29.0512V29.8034H48.7157V23.9112H47.3693ZM51.5754 28.3104C51.4085 28.1395 51.1971 28.0597 50.9523 28.0597C50.7075 28.0597 50.4849 28.1395 50.318 28.3104C50.1511 28.4814 50.0732 28.6979 50.0732 28.9715C50.0732 29.2336 50.1622 29.4615 50.3291 29.6325C50.4961 29.8034 50.7075 29.8832 50.9523 29.8832C51.1971 29.8832 51.4085 29.8034 51.5754 29.6325C51.7423 29.4501 51.8313 29.2336 51.8313 28.9715C51.8313 28.6979 51.7534 28.4814 51.5754 28.3104Z" fill="#007DC5"/>
<path d="M64.65 25.3016C64.3941 24.8457 64.0269 24.4924 63.5596 24.2303C63.0922 23.9681 62.5581 23.8428 61.9795 23.8428C61.4009 23.8428 60.8667 23.9681 60.3994 24.2303C59.932 24.4924 59.5648 24.8457 59.2978 25.3016C59.0419 25.7575 58.9083 26.2817 58.9083 26.863C58.9083 27.4442 59.0419 27.9685 59.2978 28.4358C59.5648 28.8917 59.932 29.245 60.3994 29.5071C60.8667 29.7692 61.3897 29.8946 61.9795 29.8946C62.5692 29.8946 63.0922 29.7692 63.5596 29.5071C64.0269 29.245 64.3941 28.8917 64.65 28.4358C64.9171 27.9685 65.0506 27.4442 65.0506 26.863C65.0506 26.2817 64.9171 25.7575 64.65 25.3016ZM63.2035 28.1964C62.8808 28.5384 62.4691 28.7093 61.9795 28.7093C61.4787 28.7093 61.0782 28.5384 60.7555 28.1964C60.4439 27.8545 60.277 27.4101 60.277 26.863C60.277 26.3045 60.4328 25.8601 60.7555 25.5295C61.0782 25.1876 61.4899 25.0281 61.9795 25.0281C62.4802 25.0281 62.8808 25.199 63.2035 25.5295C63.5262 25.8715 63.6931 26.3159 63.6931 26.863C63.6931 27.4101 63.5373 27.8659 63.2035 28.1964ZM75.3323 24.5038C74.9095 24.0707 74.3309 23.8542 73.6076 23.8542C73.1514 23.8542 72.7397 23.9453 72.3725 24.1163C71.9941 24.2873 71.6937 24.5266 71.46 24.8343C71.2708 24.5152 71.0038 24.2645 70.6588 24.1049C70.325 23.934 69.9467 23.8542 69.5127 23.8542C69.1233 23.8542 68.7561 23.9226 68.4334 24.0593C68.1107 24.1961 67.8436 24.4012 67.6211 24.6634V23.9112H66.3414V29.8034H67.6878V26.806C67.6878 26.2362 67.8214 25.7917 68.0884 25.4953C68.3666 25.199 68.7338 25.0395 69.19 25.0395C69.6129 25.0395 69.9244 25.1762 70.147 25.4384C70.3695 25.7005 70.4808 26.088 70.4808 26.6009V29.8034H71.8272V26.806C71.8272 26.2362 71.9607 25.8031 72.2389 25.5067C72.5171 25.199 72.8732 25.0395 73.3294 25.0395C73.7522 25.0395 74.0638 25.1762 74.2864 25.4384C74.5089 25.7005 74.6202 26.088 74.6202 26.6009V29.8034H75.9666V26.4185C75.9666 25.5751 75.7552 24.9255 75.3323 24.5038Z" fill="#007DC5"/>
<path d="M16.947 26.84V29.7919H15.6896V26.84C15.6896 25.9169 14.9552 25.1647 14.065 25.1647C13.1637 25.1647 12.4293 25.9169 12.4293 26.84V29.7919H10.4264V28.504H11.1831V26.84C11.1831 25.2102 12.4738 23.8882 14.065 23.8882C15.6563 23.8882 16.947 25.2102 16.947 26.84Z" fill="#007DC5"/>
<path d="M27.1174 18.8963C27.1174 20.5261 25.8266 21.8481 24.2354 21.8481H21.3534V20.5602H24.2354C25.1367 20.5602 25.86 19.808 25.86 18.8849C25.86 17.9617 25.1256 17.2209 24.2354 17.2209H21.3534V15.1694H22.6108V15.9444H24.2354C25.8155 15.9444 27.1174 17.2665 27.1174 18.8963Z" fill="#78C24C"/>
<path d="M53.5116 27.1476C53.5116 28.0708 54.246 28.823 55.1362 28.823H58.0182V30.8745H56.7608V30.0995H55.125C53.5338 30.0995 52.243 28.7774 52.243 27.1476C52.243 25.5179 53.5338 24.1958 55.125 24.1958H58.007V25.4837H55.125C54.246 25.4723 53.5116 26.2245 53.5116 27.1476Z" fill="#007DC5"/>
<path d="M52.2875 14.4629V15.1923H50.6852V14.4629H52.2875Z" fill="#78C24C"/>
<path d="M33.805 15.7508V21.6431H32.5253V20.8909C32.3139 21.153 32.0357 21.3582 31.713 21.5063C31.4015 21.6431 31.0565 21.7115 30.6782 21.7115C29.9104 21.7115 29.2984 21.4949 28.8533 21.0619C28.4082 20.6174 28.1857 19.9677 28.1857 19.1016V15.728H29.5321V18.9078C29.5321 19.4435 29.6434 19.831 29.877 20.1045C30.1107 20.3666 30.4557 20.492 30.8896 20.492C31.3681 20.492 31.7464 20.3438 32.0246 20.0361C32.3139 19.7284 32.4586 19.2839 32.4586 18.7141V15.728H33.805V15.7508Z" fill="#78C24C"/>
<path d="M38.9904 18.5771C39.3464 18.6797 39.6246 18.8507 39.8249 19.09C40.0252 19.318 40.1254 19.5915 40.1254 19.922C40.1254 20.2867 40.003 20.6058 39.7693 20.8794C39.5356 21.1529 39.2018 21.3694 38.7901 21.5176C38.3784 21.6771 37.8999 21.7455 37.3658 21.7455C36.9207 21.7455 36.4867 21.6885 36.0639 21.586C35.641 21.472 35.2516 21.3238 34.9066 21.1187L35.2961 20.093C35.5743 20.2525 35.897 20.3779 36.2419 20.4691C36.598 20.5602 36.9429 20.6058 37.299 20.6058C37.7552 20.6058 38.1002 20.5374 38.3561 20.4007C38.612 20.2525 38.7456 20.0588 38.7456 19.808C38.7456 19.5801 38.6454 19.3977 38.4451 19.2724C38.256 19.147 37.9778 19.09 37.6106 19.09H36.4867V18.1669H37.4993C37.8331 18.1669 38.1002 18.1099 38.2893 17.9845C38.4785 17.8705 38.5787 17.6996 38.5787 17.483C38.5787 17.2665 38.4674 17.0955 38.2337 16.9702C38 16.8448 37.6885 16.7878 37.2879 16.7878C36.7093 16.7878 36.1084 16.936 35.463 17.2209L35.118 16.2066C35.8747 15.8419 36.6314 15.6709 37.3991 15.6709C37.8888 15.6709 38.3227 15.7393 38.7122 15.876C39.1016 16.0128 39.4021 16.1952 39.6135 16.4459C39.836 16.6852 39.9473 16.9702 39.9473 17.2893C39.9473 17.5742 39.8583 17.8363 39.6914 18.0643C39.5356 18.2808 39.2908 18.4518 38.9904 18.5771Z" fill="#78C24C"/>
<path d="M45.778 15.7505V16.4685C45.5443 16.2064 45.2773 16.0126 44.9546 15.8873C44.643 15.7505 44.2981 15.6821 43.9309 15.6821C43.3745 15.6821 42.8626 15.8075 42.4176 16.0582C41.9836 16.309 41.6386 16.6623 41.3827 17.1182C41.1379 17.5626 41.0155 18.0983 41.0155 18.7023C41.0155 19.3064 41.1379 19.8421 41.3827 20.2979C41.6386 20.7538 41.9836 21.1071 42.4176 21.3579C42.8626 21.6086 43.3634 21.734 43.9309 21.734C44.3203 21.734 44.6875 21.6656 45.0102 21.5288C45.3441 21.3921 45.6222 21.1755 45.8448 20.902V21.6656H47.1244V15.7619H45.778V15.7505ZM45.3218 20.0358C44.9991 20.3777 44.5874 20.5487 44.0978 20.5487C43.5971 20.5487 43.1965 20.3777 42.8738 20.0358C42.5622 19.6939 42.3953 19.2494 42.3953 18.7023C42.3953 18.1553 42.5511 17.6994 42.8738 17.3689C43.1965 17.027 43.6082 16.856 44.0978 16.856C44.5985 16.856 44.9991 17.027 45.3218 17.3689C45.6445 17.7108 45.8114 18.1553 45.8114 18.7023C45.8003 19.2494 45.6445 19.6939 45.3218 20.0358Z" fill="#78C24C"/>
<path d="M54.3684 15.7508V21.6431H53.0887V20.8909C52.8773 21.153 52.5991 21.3582 52.2764 21.5063C51.9648 21.6431 51.6199 21.7115 51.2416 21.7115C50.4738 21.7115 49.8618 21.4949 49.4167 21.0619C48.9716 20.6174 48.749 19.9677 48.749 19.1016V15.728H50.0954V18.9078C50.0954 19.4435 50.2067 19.831 50.4404 20.1045C50.6741 20.3666 51.019 20.492 51.453 20.492C51.9315 20.492 52.3098 20.3438 52.588 20.0361C52.8773 19.7284 53.0219 19.2839 53.0219 18.7141V15.728H54.3684V15.7508Z" fill="#78C24C"/>
<path d="M56.1932 15.751H57.5396V18.1444H60.4439V15.751H61.7903V21.6433H60.4439V19.3183H57.5396V21.6433H56.1932V15.751Z" fill="#78C24C"/>
</g>
<defs>
<clipPath id="clip0_714_2340">
<rect width="76" height="31" fill="white"/>
</clipPath>
</defs>
</svg>
