<svg width="82" height="30" viewBox="0 0 82 30" fill="none" xmlns="http://www.w3.org/2000/svg">
<path d="M14.0367 4.92826V18.2821H11.4727V9.62119L7.78573 15.8212H7.48628L3.79931 9.64026V18.2821H1.21655V4.92826H3.87417L7.636 11.2427L11.3791 4.92826H14.0367ZM17.5633 7.59903C17.164 7.59903 16.8147 7.45278 16.5152 7.16026C16.2283 6.85503 16.0848 6.49893 16.0848 6.09196C16.0848 5.68498 16.2283 5.32888 16.5152 5.02365C16.8147 4.71842 17.164 4.5658 17.5633 4.5658C17.975 4.5658 18.3244 4.71842 18.6114 5.02365C18.9108 5.32888 19.0606 5.68498 19.0606 6.09196C19.0606 6.49893 18.9108 6.85503 18.6114 7.16026C18.3244 7.45278 17.975 7.59903 17.5633 7.59903ZM16.3655 18.2821V8.74365H18.7798V18.2821H16.3655ZM20.9896 18.2821V4.35596H23.4039V18.2821H20.9896ZM25.6137 18.2821V4.35596H28.028V18.2821H25.6137ZM32.2777 14.524C32.6021 15.7194 33.4818 16.3172 34.9166 16.3172C35.8399 16.3172 36.5387 15.9992 37.0128 15.3633L38.9592 16.508C38.0359 17.8688 36.6759 18.5492 34.8792 18.5492C33.3321 18.5492 32.0906 18.0723 31.1548 17.1184C30.219 16.1646 29.7511 14.9627 29.7511 13.5129C29.7511 12.0758 30.2128 10.8803 31.1361 9.92642C32.0594 8.95985 33.2447 8.47657 34.6921 8.47657C36.0645 8.47657 37.1937 8.95985 38.0796 9.92642C38.9779 10.893 39.4271 12.0885 39.4271 13.5129C39.4271 13.8308 39.3959 14.1679 39.3335 14.524H32.2777ZM32.2403 12.6163H37.0128C36.8755 11.9676 36.5886 11.4844 36.1519 11.1664C35.7276 10.8485 35.241 10.6895 34.6921 10.6895C34.0432 10.6895 33.5067 10.8612 33.0825 11.2046C32.6583 11.5352 32.3776 12.0058 32.2403 12.6163ZM46.3154 8.47657C47.3386 8.47657 48.1808 8.82632 48.8421 9.5258C49.5158 10.2253 49.8527 11.1919 49.8527 12.4255V18.2821H47.4384V12.7307C47.4384 12.0948 47.2699 11.6115 46.9331 11.2809C46.5962 10.9375 46.147 10.7658 45.5855 10.7658C44.9617 10.7658 44.4626 10.9629 44.0883 11.3572C43.714 11.7514 43.5268 12.3428 43.5268 13.1313V18.2821H41.1125V8.74365H43.5268V9.81196C44.1132 8.9217 45.0428 8.47657 46.3154 8.47657ZM53.112 7.59903C52.7128 7.59903 52.3634 7.45278 52.0639 7.16026C51.777 6.85503 51.6335 6.49893 51.6335 6.09196C51.6335 5.68498 51.777 5.32888 52.0639 5.02365C52.3634 4.71842 52.7128 4.5658 53.112 4.5658C53.5238 4.5658 53.8731 4.71842 54.1601 5.02365C54.4595 5.32888 54.6093 5.68498 54.6093 6.09196C54.6093 6.49893 54.4595 6.85503 54.1601 7.16026C53.8731 7.45278 53.5238 7.59903 53.112 7.59903ZM51.9142 18.2821V8.74365H54.3285V18.2821H51.9142ZM62.7144 8.74365H65.1287V18.2821H62.7144V17.2138C62.1279 18.1041 61.1984 18.5492 59.9257 18.5492C58.9026 18.5492 58.0542 18.1994 57.3804 17.5C56.7191 16.8005 56.3885 15.8339 56.3885 14.6003V8.74365H58.8028V14.295C58.8028 14.9309 58.9713 15.4206 59.3081 15.764C59.645 16.0946 60.0942 16.26 60.6557 16.26C61.2795 16.26 61.7786 16.0628 62.1529 15.6686C62.5272 15.2743 62.7144 14.6829 62.7144 13.8944V8.74365ZM77.6897 8.47657C78.7631 8.47657 79.6178 8.83268 80.2541 9.54488C80.9029 10.2571 81.2273 11.2109 81.2273 12.4064V18.2821H78.813V12.5781C78.813 12.0058 78.6757 11.5607 78.4012 11.2427C78.1267 10.9248 77.7396 10.7658 77.2405 10.7658C76.6915 10.7658 76.261 10.9502 75.9491 11.319C75.6497 11.6879 75.4999 12.222 75.4999 12.9215V18.2821H73.0856V12.5781C73.0856 12.0058 72.9484 11.5607 72.6739 11.2427C72.3994 10.9248 72.0126 10.7658 71.5135 10.7658C70.977 10.7658 70.5465 10.9502 70.2221 11.319C69.9102 11.6879 69.7542 12.222 69.7542 12.9215V18.2821H67.3399V8.74365H69.7542V9.75473C70.3157 8.90262 71.1829 8.47657 72.3557 8.47657C73.5036 8.47657 74.352 8.93442 74.901 9.85011C75.5249 8.93442 76.4544 8.47657 77.6897 8.47657Z" fill="white"/>
<path d="M57.8749 21.1436H58.3428V27.8205H57.8749V26.714C57.6815 27.0892 57.407 27.3849 57.0514 27.6011C56.7021 27.8173 56.3059 27.9254 55.863 27.9254C55.1892 27.9254 54.6153 27.6869 54.1412 27.21C53.6733 26.7267 53.4393 26.1353 53.4393 25.4359C53.4393 24.7364 53.6733 24.1482 54.1412 23.6712C54.6153 23.188 55.1892 22.9463 55.863 22.9463C56.3059 22.9463 56.7021 23.0544 57.0514 23.2706C57.407 23.4868 57.6815 23.7825 57.8749 24.1577V21.1436ZM54.478 26.8762C54.8648 27.2704 55.3358 27.4676 55.8911 27.4676C56.4463 27.4676 56.9142 27.2704 57.2947 26.8762C57.6815 26.4819 57.8749 26.0018 57.8749 25.4359C57.8749 24.8699 57.6815 24.3898 57.2947 23.9956C56.9142 23.6013 56.4463 23.4042 55.8911 23.4042C55.3358 23.4042 54.8648 23.6013 54.478 23.9956C54.0975 24.3898 53.9072 24.8699 53.9072 25.4359C53.9072 26.0018 54.0975 26.4819 54.478 26.8762ZM61.8851 22.9463C62.5713 22.9463 63.1265 23.1943 63.5507 23.6903C63.9812 24.1863 64.1964 24.7745 64.1964 25.4549C64.1964 25.4804 64.1933 25.5185 64.1871 25.5694C64.1871 25.6203 64.1871 25.6584 64.1871 25.6839H59.948C60.0041 26.218 60.2131 26.6504 60.575 26.9811C60.943 27.3054 61.3953 27.4676 61.9318 27.4676C62.3062 27.4676 62.6337 27.3881 62.9144 27.2291C63.1951 27.0701 63.4073 26.8603 63.5507 26.5996L63.9625 26.8476C63.7691 27.1782 63.4946 27.4421 63.139 27.6392C62.7834 27.83 62.3779 27.9254 61.9225 27.9254C61.2051 27.9254 60.6155 27.6933 60.1539 27.2291C59.6922 26.7585 59.4614 26.1608 59.4614 25.4359C59.4614 24.7237 59.686 24.1323 60.1351 23.6617C60.5906 23.1848 61.1739 22.9463 61.8851 22.9463ZM61.8851 23.4042C61.3548 23.4042 60.9118 23.5727 60.5563 23.9097C60.2007 24.2467 59.9979 24.6823 59.948 25.2165H63.7098C63.6599 24.6505 63.4603 24.2086 63.1109 23.8906C62.7678 23.5663 62.3592 23.4042 61.8851 23.4042ZM65.4254 24.3008C65.4254 24.5361 65.5221 24.7205 65.7155 24.854C65.9089 24.9876 66.146 25.0893 66.4267 25.1592C66.7074 25.2228 66.9851 25.296 67.2595 25.3786C67.5403 25.4613 67.7773 25.6012 67.9707 25.7983C68.1641 25.9891 68.2608 26.2466 68.2608 26.5709C68.2608 26.9652 68.1049 27.2895 67.7929 27.5439C67.4873 27.7982 67.0849 27.9254 66.5858 27.9254C66.1366 27.9254 65.7561 27.83 65.4441 27.6392C65.1385 27.4421 64.9263 27.1846 64.8078 26.8666L65.2102 26.6282C65.2975 26.8889 65.4597 27.0956 65.6968 27.2482C65.9401 27.3944 66.2364 27.4676 66.5858 27.4676C66.9351 27.4676 67.2221 27.3912 67.4467 27.2386C67.6775 27.0797 67.7929 26.8571 67.7929 26.5709C67.7929 26.3357 67.6962 26.1481 67.5029 26.0082C67.3095 25.8683 67.0724 25.7665 66.7917 25.7029C66.5109 25.633 66.2302 25.5567 65.9495 25.474C65.675 25.3913 65.441 25.2546 65.2476 25.0639C65.0542 24.8731 64.9575 24.6187 64.9575 24.3008C64.9575 23.9192 65.1041 23.5981 65.3973 23.3374C65.6968 23.0767 66.0805 22.9463 66.5484 22.9463C66.9227 22.9463 67.2471 23.0322 67.5216 23.2039C67.8023 23.3756 68.0082 23.6077 68.1392 23.9002L67.7462 24.1291C67.6526 23.8938 67.4966 23.7158 67.2783 23.5949C67.0599 23.4678 66.8166 23.4042 66.5484 23.4042C66.2302 23.4042 65.9619 23.4868 65.7436 23.6522C65.5315 23.8111 65.4254 24.0273 65.4254 24.3008ZM69.8435 21.7922C69.7686 21.8621 69.6813 21.8971 69.5815 21.8971C69.4816 21.8971 69.3943 21.8621 69.3194 21.7922C69.2446 21.7159 69.2071 21.6237 69.2071 21.5156C69.2071 21.4138 69.2446 21.328 69.3194 21.258C69.3943 21.1817 69.4816 21.1436 69.5815 21.1436C69.6813 21.1436 69.7686 21.1817 69.8435 21.258C69.9183 21.328 69.9558 21.4138 69.9558 21.5156C69.9558 21.6237 69.9183 21.7159 69.8435 21.7922ZM69.3475 27.8205V23.0512H69.8154V27.8205H69.3475ZM75.4123 23.0512H75.8802V27.5916C75.8802 28.2847 75.6587 28.8316 75.2158 29.2322C74.7729 29.6328 74.2176 29.8331 73.5501 29.8331C73.0136 29.8331 72.555 29.7313 72.1745 29.5279C71.7939 29.3244 71.5163 29.0446 71.3417 28.6885L71.7534 28.45C72.0528 29.0668 72.6517 29.3752 73.5501 29.3752C74.1303 29.3752 74.5857 29.2131 74.9163 28.8888C75.247 28.5708 75.4123 28.1384 75.4123 27.5916V26.714C75.2189 27.0892 74.9444 27.3849 74.5888 27.6011C74.2395 27.8173 73.8433 27.9254 73.4004 27.9254C72.7266 27.9254 72.1527 27.6869 71.6785 27.21C71.2106 26.7267 70.9767 26.1353 70.9767 25.4359C70.9767 24.7364 71.2106 24.1482 71.6785 23.6712C72.1527 23.188 72.7266 22.9463 73.4004 22.9463C73.8433 22.9463 74.2395 23.0544 74.5888 23.2706C74.9444 23.4868 75.2189 23.7825 75.4123 24.1577V23.0512ZM72.0154 26.8762C72.4022 27.2704 72.8732 27.4676 73.4284 27.4676C73.9837 27.4676 74.4516 27.2704 74.8321 26.8762C75.2189 26.4819 75.4123 26.0018 75.4123 25.4359C75.4123 24.8699 75.2189 24.3898 74.8321 23.9956C74.4516 23.6013 73.9837 23.4042 73.4284 23.4042C72.8732 23.4042 72.4022 23.6013 72.0154 23.9956C71.6349 24.3898 71.4446 24.8699 71.4446 25.4359C71.4446 26.0018 71.6349 26.4819 72.0154 26.8762ZM79.468 22.9463C80.0233 22.9463 80.4631 23.1212 80.7875 23.4709C81.1181 23.8143 81.2835 24.2753 81.2835 24.854V27.8205H80.8062V24.854C80.8062 24.4089 80.6846 24.056 80.4413 23.7952C80.2042 23.5345 79.8673 23.4042 79.4306 23.4042C78.9502 23.4042 78.5572 23.5663 78.2515 23.8906C77.9462 24.2149 77.7933 24.6855 77.7933 25.3023V27.8205H77.3254V23.0512H77.7933V23.9574C78.1299 23.2833 78.6882 22.9463 79.468 22.9463Z" fill="white"/>
<mask id="mask0_141_1129" style="mask-type:alpha" maskUnits="userSpaceOnUse" x="1" y="4" width="81" height="15">
<path d="M14.0367 4.92826V18.2821H11.4727V9.62119L7.78573 15.8212H7.48628L3.79931 9.64026V18.2821H1.21655V4.92826H3.87417L7.636 11.2427L11.3791 4.92826H14.0367ZM17.5633 7.59903C17.164 7.59903 16.8147 7.45278 16.5152 7.16026C16.2283 6.85503 16.0848 6.49893 16.0848 6.09196C16.0848 5.68498 16.2283 5.32888 16.5152 5.02365C16.8147 4.71842 17.164 4.5658 17.5633 4.5658C17.975 4.5658 18.3244 4.71842 18.6114 5.02365C18.9108 5.32888 19.0606 5.68498 19.0606 6.09196C19.0606 6.49893 18.9108 6.85503 18.6114 7.16026C18.3244 7.45278 17.975 7.59903 17.5633 7.59903ZM16.3655 18.2821V8.74365H18.7798V18.2821H16.3655ZM20.9896 18.2821V4.35596H23.4039V18.2821H20.9896ZM25.6137 18.2821V4.35596H28.028V18.2821H25.6137ZM32.2777 14.524C32.6021 15.7194 33.4818 16.3172 34.9166 16.3172C35.8399 16.3172 36.5387 15.9992 37.0128 15.3633L38.9592 16.508C38.0359 17.8688 36.6759 18.5492 34.8792 18.5492C33.3321 18.5492 32.0906 18.0723 31.1548 17.1184C30.219 16.1646 29.7511 14.9627 29.7511 13.5129C29.7511 12.0758 30.2128 10.8803 31.1361 9.92642C32.0594 8.95985 33.2447 8.47657 34.6921 8.47657C36.0645 8.47657 37.1937 8.95985 38.0796 9.92642C38.9779 10.893 39.4271 12.0885 39.4271 13.5129C39.4271 13.8308 39.3959 14.1679 39.3335 14.524H32.2777ZM32.2403 12.6163H37.0128C36.8755 11.9676 36.5886 11.4844 36.1519 11.1664C35.7276 10.8485 35.241 10.6895 34.6921 10.6895C34.0432 10.6895 33.5067 10.8612 33.0825 11.2046C32.6583 11.5352 32.3776 12.0058 32.2403 12.6163ZM46.3154 8.47657C47.3386 8.47657 48.1808 8.82632 48.8421 9.5258C49.5158 10.2253 49.8527 11.1919 49.8527 12.4255V18.2821H47.4384V12.7307C47.4384 12.0948 47.2699 11.6115 46.9331 11.2809C46.5962 10.9375 46.147 10.7658 45.5855 10.7658C44.9617 10.7658 44.4626 10.9629 44.0883 11.3572C43.714 11.7514 43.5268 12.3428 43.5268 13.1313V18.2821H41.1125V8.74365H43.5268V9.81196C44.1132 8.9217 45.0428 8.47657 46.3154 8.47657ZM53.112 7.59903C52.7128 7.59903 52.3634 7.45278 52.0639 7.16026C51.777 6.85503 51.6335 6.49893 51.6335 6.09196C51.6335 5.68498 51.777 5.32888 52.0639 5.02365C52.3634 4.71842 52.7128 4.5658 53.112 4.5658C53.5238 4.5658 53.8731 4.71842 54.1601 5.02365C54.4595 5.32888 54.6093 5.68498 54.6093 6.09196C54.6093 6.49893 54.4595 6.85503 54.1601 7.16026C53.8731 7.45278 53.5238 7.59903 53.112 7.59903ZM51.9142 18.2821V8.74365H54.3285V18.2821H51.9142ZM62.7144 8.74365H65.1287V18.2821H62.7144V17.2138C62.1279 18.1041 61.1984 18.5492 59.9257 18.5492C58.9026 18.5492 58.0542 18.1994 57.3804 17.5C56.7191 16.8005 56.3885 15.8339 56.3885 14.6003V8.74365H58.8028V14.295C58.8028 14.9309 58.9713 15.4206 59.3081 15.764C59.645 16.0946 60.0942 16.26 60.6557 16.26C61.2795 16.26 61.7786 16.0628 62.1529 15.6686C62.5272 15.2743 62.7144 14.6829 62.7144 13.8944V8.74365ZM77.6897 8.47657C78.7631 8.47657 79.6178 8.83268 80.2541 9.54488C80.9029 10.2571 81.2273 11.2109 81.2273 12.4064V18.2821H78.813V12.5781C78.813 12.0058 78.6757 11.5607 78.4012 11.2427C78.1267 10.9248 77.7396 10.7658 77.2405 10.7658C76.6915 10.7658 76.261 10.9502 75.9491 11.319C75.6497 11.6879 75.4999 12.222 75.4999 12.9215V18.2821H73.0856V12.5781C73.0856 12.0058 72.9484 11.5607 72.6739 11.2427C72.3994 10.9248 72.0126 10.7658 71.5135 10.7658C70.977 10.7658 70.5465 10.9502 70.2221 11.319C69.9102 11.6879 69.7542 12.222 69.7542 12.9215V18.2821H67.3399V8.74365H69.7542V9.75473C70.3157 8.90262 71.1829 8.47657 72.3557 8.47657C73.5036 8.47657 74.352 8.93442 74.901 9.85011C75.5249 8.93442 76.4544 8.47657 77.6897 8.47657Z" fill="black"/>
</mask>
<g mask="url(#mask0_141_1129)">
<path d="M19.4954 3.97412H15.5963V7.94848H19.4954V3.97412Z" fill="#1FA4F7"/>
</g>
</svg>
